<svg width="279" height="280" viewBox="0 0 279 280" fill="none" xmlns="http://www.w3.org/2000/svg">
<path d="M186.785 204.869C184.656 198.56 177.237 194.927 170.216 196.753C163.194 198.58 159.228 205.176 161.36 211.485C163.488 217.796 170.908 221.429 177.93 219.6C184.95 217.773 188.916 211.179 186.785 204.869Z" fill="#EFC68F"/>
<path d="M186.785 204.869C186.348 203.575 185.679 202.4 184.844 201.355C184.404 206.063 180.833 210.243 175.471 211.64C169.889 213.093 164.068 211.087 160.84 207.039C160.704 208.495 160.857 209.997 161.36 211.485C163.488 217.796 170.908 221.429 177.931 219.6C184.951 217.773 188.916 211.179 186.785 204.869" fill="#D8AE7A"/>
<path d="M177.834 207.628L175.703 203.76L171.342 203.499L168.31 207.268L170.266 211.123L174.996 211.621L177.834 207.628" fill="#6E5043"/>
<path d="M186.472 211.691C186.896 210.424 187.079 209.077 186.986 207.693C186.922 206.732 186.724 205.807 186.42 204.929L183.93 208.297L186.472 211.691" fill="#6E5043"/>
<path d="M178.144 201.421L183.051 201.465L183.676 200.579C181.862 198.752 179.47 197.479 176.864 196.935L175.806 198.249L178.144 201.421Z" fill="#6E5043"/>
<path d="M163.369 214.071C164.589 215.839 166.345 217.356 168.536 218.368L167.273 214.78L163.369 214.071Z" fill="#6E5043"/>
<path d="M169.14 200.744L172.225 197.997L171.9 196.781C169.418 197.141 167.19 198.157 165.453 199.591L165.556 199.997L169.14 200.744" fill="#6E5043"/>
<path d="M174.708 219.669C177.169 219.632 179.5 218.957 181.476 217.767L177.471 216.647L174.708 219.669Z" fill="#6E5043"/>
<path d="M163.069 203.812L162.281 203.753C161.985 204.433 161.753 205.153 161.604 205.911C161.303 207.443 161.355 208.981 161.72 210.445L164.229 207.227L163.069 203.812" fill="#6E5043"/>
<path d="M251.116 225.199C253.326 222.679 262.346 206.124 261.397 203.252C259.862 198.615 249.976 186.257 249.976 186.257L253.944 184.817C253.944 184.817 264.197 198.248 264.65 202.731C265.312 209.283 253.34 225.139 253.34 225.139L251.116 225.199" fill="#FAB988"/>
<path d="M260.814 206.66C261.777 206.969 262.69 207.448 263.533 208.091C264.337 206.036 264.794 204.161 264.65 202.731C264.197 198.248 253.944 184.817 253.944 184.817L249.976 186.257C249.976 186.257 259.862 198.615 261.397 203.252C261.598 203.86 261.348 205.087 260.814 206.66" fill="#F7936D"/>
<path d="M119.253 208.48C119.253 208.48 127.813 205.309 132.391 203.361C136.968 201.416 142.116 197.732 142.487 194.199C134.74 192.377 125.651 200.156 119.253 208.48" fill="#2B5158"/>
<path d="M59.3643 215.817C59.3643 215.817 67.5544 217.524 72.5024 218.035C77.4503 218.548 85.4695 217.353 85.4695 214.281C79.5737 208.937 68.9929 211.629 59.3643 215.817" fill="#2B5158"/>
<path d="M240.683 181.341C268.255 193.497 281.714 175.045 278.024 148.127C276.959 140.376 266.734 119.907 258.234 122.74C253.71 116.143 241.118 124.028 236.342 133.22C221.872 161.064 240.683 181.341 240.683 181.341" fill="#AD543B"/>
<path d="M278.024 148.127C277.611 145.12 275.816 140.203 273.283 135.472C269.428 140.611 261.447 144.996 251.711 146.671C244.209 147.96 237.153 147.38 231.856 145.427C227.196 166.793 240.683 181.341 240.683 181.341C268.255 193.497 281.713 175.045 278.024 148.127Z" fill="#9D432E"/>
<path d="M255.677 145.811C254.39 146.144 253.069 146.436 251.71 146.671C249.877 146.985 248.069 147.185 246.309 147.285C240.63 151.296 235.982 160.569 234.709 171.803C237.46 177.856 240.682 181.341 240.682 181.341C246.158 183.755 251.077 184.961 255.414 185.135C257.341 171.228 266.834 150.329 255.677 145.811Z" fill="#833123"/>
<path d="M138.625 113.071C129.932 116.22 107.734 108.127 95.5192 92.5107C83.3014 76.8947 106.468 79.6187 106.468 79.6187C106.468 79.6187 131.298 100.504 139.2 102.264C141.315 102.736 140.082 112.539 138.625 113.071" fill="#FAB988"/>
<path d="M131.196 104.657C131.196 102.637 131.707 100.749 132.584 99.1212C122.179 92.8306 106.468 79.6186 106.468 79.6186C106.468 79.6186 83.3014 76.8946 95.5192 92.5106C106.483 106.527 125.483 114.476 135.547 113.683C132.919 111.692 131.196 108.396 131.196 104.657" fill="#F7936D"/>
<path d="M12.6996 127.549C8.26261 119.44 12.8798 96.2707 26.4522 81.8174C40.0236 67.3654 40.861 90.672 40.861 90.672C40.861 90.672 24.0037 118.393 23.4684 126.472C23.3241 128.635 13.4465 128.911 12.6996 127.549" fill="#FAB988"/>
<path d="M18.7566 121.635C20.7253 121.635 22.5853 122.117 24.2613 122.959C27.6743 112.361 40.8607 90.672 40.8607 90.672C40.8607 90.672 40.0233 67.3653 26.4519 81.8173C14.5097 94.5347 9.50399 113.996 11.4957 124.011C13.5763 122.512 16.0711 121.635 18.7566 121.635" fill="#F7936D"/>
<path d="M13.8322 123.573C1.73426 132.851 9.93166 141.16 8.23582 175.633C8.23582 175.633 8.94103 176.425 10.4254 176.204C11.3197 160.789 26.5406 139.165 24.1338 129.131C23.3999 126.068 18.5827 119.923 13.8322 123.573" fill="#FAB988"/>
<path d="M133.962 111.8C146.049 121.772 152.616 110.972 181.017 100.477C181.017 100.477 182.428 99.344 181.732 98.1493C167.922 101.985 143.33 96.3519 135.352 101.392C132.921 102.928 129.62 108.217 133.962 111.8Z" fill="#FAB988"/>
<path d="M131.571 94.1066C130.974 101.045 123.535 112.443 116.969 115.823C108.959 112.209 87.8811 103.259 80.8696 71.9959C75.5603 48.3239 131.571 94.1066 131.571 94.1066Z" fill="#FBBE44"/>
<path d="M82.3154 77.504C90.4222 104.335 109.346 113.636 116.864 117.028C119.054 115.9 121.442 112.664 123.541 110.216C116.871 108.436 108.761 96.4093 98.4373 86.6573C93.728 82.2093 86.2602 84.972 82.3154 77.504" fill="#F59D32"/>
<path d="M108.807 148.719C98.9074 138.044 86.6282 133.933 74.798 149.311C62.9684 164.689 67.997 212.301 67.4053 218.808C66.8137 225.316 62.9574 223.155 60.3897 236.633C58.6157 245.948 61.9637 262.296 60.5589 278.264L62.0949 277.412C62.2214 271.568 71.9241 251.861 75.3897 237.44C77.9752 226.681 74.9282 222.601 75.685 218.808C76.2236 216.119 87.8944 169.303 96.9782 177.107C106.959 185.683 128.54 202.176 130.692 207.569C132.842 212.96 127.853 222.976 128.297 228.784C128.854 236.087 140.06 248.321 143.995 268.709C144.185 269.701 144.496 269.013 145.528 268.197C146.561 267.383 140.372 209.991 138.381 202.541C135.463 191.625 116.348 156.851 108.807 148.719" fill="#FAB988"/>
<path d="M138.381 202.541C135.463 191.625 116.348 156.851 108.807 148.719C98.9072 138.044 86.628 133.933 74.7978 149.311C62.9682 164.689 67.9968 212.301 67.4051 218.808C66.9676 223.62 64.7458 223.697 62.5791 228.857C65.34 225.753 68.3644 224.148 71.2734 224.625C73.2775 224.953 75.0087 226.26 76.4311 228.273C76.2916 223.848 75.1952 221.261 75.6848 218.808C76.2234 216.119 87.8942 169.303 96.978 177.107C106.959 185.683 128.54 202.176 130.692 207.569C132.842 212.96 127.853 222.976 128.297 228.784C128.424 230.456 129.127 232.403 130.156 234.628C131.392 221.012 134.617 209.919 138.819 204.465C138.651 203.649 138.504 202.999 138.381 202.541" fill="#F7936D"/>
<path d="M253.963 222.435C254.432 222.968 253.135 224.689 254.522 226.876C254.762 227.245 255.163 227.792 255.544 228.348C256.227 229.34 256.522 230.667 256.075 230.867C255.7 231.035 255.519 230.067 255.046 229.349C254.631 228.724 254.502 228.497 254.347 228.589C254.239 228.657 254.615 229.549 255.002 230.56C255.504 231.856 255.631 232.8 255.168 232.984C254.728 233.163 254.616 232.232 254.062 231.109C253.575 230.128 253.422 229.677 252.976 229.845C252.764 229.92 253.015 230.6 253.192 231.728C253.395 233.04 253.226 233.919 252.827 233.959C252.255 234.015 252.563 233.34 252.143 231.872C251.603 229.976 251.331 228.107 250.376 227.407C249.491 226.753 247.98 228.633 247.595 227.76C247.295 227.068 249.119 226.156 251.206 224.753C252.886 223.632 253.466 221.865 253.963 222.435Z" fill="#FAB988"/>
<path d="M203.564 156.213C202.857 156.156 202.595 154.016 200.079 153.408C199.649 153.308 198.98 153.193 198.319 153.059C197.14 152.821 196.007 152.072 196.188 151.616C196.34 151.235 197.144 151.807 197.981 151.992C198.715 152.155 198.964 152.228 199.012 152.055C199.044 151.932 198.152 151.549 197.172 151.092C195.911 150.508 195.165 149.917 195.368 149.463C195.561 149.029 196.289 149.623 197.468 150.044C198.499 150.411 198.921 150.627 199.125 150.197C199.227 149.997 198.573 149.681 197.663 148.995C196.607 148.191 196.116 147.44 196.375 147.137C196.747 146.697 196.993 147.397 198.317 148.163C200.021 149.148 201.515 150.304 202.689 150.147C203.78 149.999 203.56 147.6 204.443 147.96C205.14 148.247 204.461 150.172 203.935 152.629C203.507 154.603 204.317 156.277 203.564 156.213" fill="#FAB988"/>
<path d="M174.742 101.641C175.32 102.456 178.053 100.652 180.581 103.149C181.006 103.579 181.621 104.289 182.256 104.972C183.386 106.187 185.088 106.84 185.501 106.163C185.845 105.596 184.59 105.172 183.768 104.324C183.05 103.581 182.784 103.348 182.957 103.117C183.08 102.956 184.172 103.673 185.42 104.428C187.018 105.403 188.256 105.735 188.65 105.031C189.028 104.363 187.801 104.055 186.454 103.021C185.281 102.116 184.718 101.809 185.084 101.132C185.25 100.808 186.092 101.299 187.565 101.737C189.276 102.24 190.521 102.1 190.698 101.477C190.954 100.581 189.944 100.975 188.085 100.103C185.69 98.9826 183.244 98.292 182.589 96.6867C181.984 95.196 184.997 93.0813 183.934 92.3507C183.093 91.7773 181.289 94.5267 178.742 97.62C176.7 100.112 174.126 100.776 174.742 101.641" fill="#FAB988"/>
<path d="M9.45448 171.397C8.51229 171.611 8.69719 174.588 5.45291 175.887C4.90083 176.103 4.02948 176.387 3.17009 176.693C1.63781 177.241 0.298224 178.476 0.659682 179.063C0.960724 179.557 1.90031 178.629 2.98312 178.215C3.93104 177.857 4.24927 177.712 4.35604 177.94C4.42896 178.103 3.32687 178.789 2.11645 179.599C0.561245 180.633 -0.293443 181.58 0.0919739 182.163C0.460724 182.721 1.29562 181.773 2.78208 180.977C4.07635 180.284 4.59197 179.908 4.97583 180.457C5.15968 180.713 4.3602 181.267 3.30291 182.381C2.08052 183.673 1.6076 184.793 2.0352 185.159C2.64301 185.693 2.80187 184.687 4.39563 183.393C6.44093 181.729 8.16853 179.868 9.79563 179.865C11.2993 179.863 11.606 183.189 12.7045 182.529C13.5749 182.009 12.1779 179.5 10.8513 176.233C9.78104 173.612 10.4545 171.171 9.45448 171.397" fill="#FAB988"/>
<path d="M57.9414 217.92C66.4663 218.819 74.2059 211.416 85.5185 214.963C85.5185 214.963 89.9075 186.833 95.2043 185.98C104.372 184.501 118.566 209.343 118.566 209.343C131.367 202.851 130.343 195.172 142.818 194.26L109.399 145.169C109.399 145.169 69.5439 143.661 67.109 154.041C64.2991 166.019 57.9414 217.92 57.9414 217.92" fill="#528D9C"/>
<path d="M98.2097 184.537C97.0348 184.649 95.3238 183.66 94.2285 186.356C103.4 186.217 118.566 209.343 118.566 209.343C120.523 208.247 122.628 206.879 124.798 205.409C120.192 198.611 102.987 184.081 98.2097 184.537Z" fill="#3A707C"/>
<path d="M72.5029 164.631C82.0575 163.948 105.091 159 113.452 150.811L109.399 145.169C109.399 145.169 69.5439 143.661 67.109 154.041C64.2991 166.019 57.9414 217.92 57.9414 217.92C59.1497 218.049 60.3423 217.996 61.5314 217.845C62.5747 209.425 71.1377 173.673 72.5029 164.631Z" fill="#3A707C"/>
<path d="M91.8396 180.215L84.7812 162.38L87.2891 162.129L92.976 180.215H91.8396Z" fill="#3A707C"/>
<path d="M83.532 175.779C82.7538 174.445 82.1361 168.593 85.282 165.263C88.1789 162.196 88.1038 159.836 87.8018 158.703L88.8252 158.431C89.1846 159.776 89.3018 162.549 86.0508 165.991C83.1757 169.035 83.9861 174.456 84.4466 175.244L83.532 175.779" fill="#90CFCD"/>
<path d="M88.9891 157.688C90.112 158.557 92.7901 163.357 91.5011 167.312C90.3145 170.953 91.2536 172.948 91.9188 173.815L91.1973 174.405C90.4063 173.38 89.2797 171.043 90.6115 166.957C91.788 163.341 89.1161 158.98 88.4521 158.465L88.9891 157.688" fill="#90CFCD"/>
<path d="M65.0399 160.252C73.6159 165.279 107.847 154.411 112.578 148.201C112.578 148.201 101.267 118.629 107.329 94.6C111.646 77.4853 94.0206 63.2534 78.6424 63.2534C66.2082 63.2534 44.4858 58.7427 34.2831 75.3773C31.5003 79.9147 40.8582 99.1841 42.9326 106.281C48.5519 125.503 64.1514 130.383 65.0399 160.252" fill="#FBBE44"/>
<path d="M91.0277 96.9693L91.6465 100.787L90.8579 104.972L80.9438 106.807L81.4913 110.297L89.3668 108.843C91.5042 108.448 93.2725 109.763 93.6397 112.025L95.5979 124.117C95.9698 126.407 94.7089 128.304 92.5526 128.699L75.3684 131.857L74.173 124.051L85.785 121.913L85.1006 117.585L73.51 119.721L70.6074 100.757L91.0277 96.9693" fill="#FBEA6B"/>
<path d="M80.5782 63.396C73.6402 59.6413 60.2741 60.4373 54.3027 63.396C56.5782 68.1733 76.9391 77.16 80.5782 63.396Z" fill="#FBEA6B"/>
<path d="M69.5899 161.276C68.7019 131.407 55.9409 126.524 50.3221 107.303C48.6497 101.58 46.206 81.8146 43.4972 72.3253C42.2331 73.6119 34.4757 77.276 33.4309 78.9786C30.6481 83.516 40.5696 100.375 42.6445 107.473C48.2639 126.695 64.1513 130.383 65.0399 160.252C66.2383 160.955 67.9508 161.337 70.0003 161.475C69.8643 161.408 69.7143 161.349 69.5899 161.276" fill="#F59D32"/>
<path d="M77.9778 48.392L62.0075 42.4026L55.8721 63.1787C61.7059 65.6787 71.1013 66.8027 77.5335 63.476L77.9778 48.392" fill="#F07D61"/>
<path d="M30.5793 118.119C23.6157 118.305 13.4955 114.055 9.39648 107.912C12.0855 99.5453 16.572 75.7346 46.8475 65.2519C69.7741 57.3133 30.5793 118.119 30.5793 118.119" fill="#FBBE44"/>
<path d="M25.7461 117.64C27.442 117.983 31.0825 118.604 32.5773 118.563C32.5773 118.563 45.4945 97.8239 50.1513 82.2213C42.52 97.6813 29.2174 112.873 25.7461 117.64" fill="#F59D32"/>
<path d="M55.9082 63.1413C60.1222 66.3573 66.6295 68.796 70.8801 68.796C77.3118 68.796 78.1987 62.5867 78.1987 62.5867C72.8763 64.14 67.441 65.36 55.9082 63.1413" fill="#F07D61"/>
<path d="M230.408 277.657C228.672 269.264 224.328 250.739 224.908 247.843C225.818 243.292 240.705 224.38 240.705 224.38L236.22 218.492C236.22 218.492 220.982 241.093 220.421 247.265C220.218 249.496 227.946 277.657 227.946 277.657H230.408" fill="#FAB988"/>
<path d="M223.076 254.121C223.946 254.121 224.792 254.271 225.61 254.54C225.038 251.277 224.722 248.765 224.908 247.843C225.818 243.292 240.705 224.38 240.705 224.38L236.22 218.492C236.22 218.492 220.982 241.093 220.421 247.265C220.364 247.899 220.949 250.635 221.814 254.223C222.229 254.156 222.649 254.121 223.076 254.121Z" fill="#F7936D"/>
<path d="M180.767 241.331C180.767 241.331 199.738 221.531 203.055 219.909C207.228 217.881 230.199 219.836 230.199 219.836L232.484 212.795C232.484 212.795 205.943 211.771 200.552 214.823C198.6 215.927 179.396 239.96 179.396 239.96L180.767 241.331" fill="#FAB988"/>
<path d="M200.552 214.823C200.268 214.984 199.608 215.644 198.701 216.636C199.324 218.377 199.781 220.259 200.041 222.247C201.4 221.048 202.472 220.195 203.055 219.909C207.228 217.881 230.199 219.836 230.199 219.836L232.484 212.795C232.484 212.795 205.943 211.771 200.552 214.823" fill="#F7936D"/>
<path d="M204.791 210.939L206.818 226.857C206.818 226.857 233.822 227.343 237.21 222.228C240.596 217.111 242.348 214.953 238.802 211.661C235.256 208.368 204.791 210.939 204.791 210.939" fill="#D93865"/>
<path d="M239.544 212.435C239.2 214.084 237.882 215.953 236.1 218.644C233.025 223.287 210.497 223.316 206.362 223.281L206.817 226.857C206.817 226.857 233.934 228.015 237.322 222.897C240.437 218.193 242.044 215.319 239.544 212.435" fill="#C72F5D"/>
<path d="M217.816 239.16L230.554 249C230.554 249 247.92 224.111 245.894 218.321C243.867 212.529 236.054 210.793 236.054 210.793L217.816 239.16Z" fill="#D93865"/>
<path d="M238.345 235.153L227.54 210.131L230.839 209.789L241.644 229.353L238.345 235.153Z" fill="#C72F5D"/>
<path d="M245.893 218.321C244.204 213.496 238.512 211.491 236.656 210.955C239.04 212.057 242.021 214.032 243.164 217.297C244.988 222.509 231.1 243.191 228.311 247.268L230.553 249C230.553 249 247.92 224.111 245.893 218.321" fill="#C72F5D"/>
<path d="M240.82 171.456L243.636 163.692L250.46 166.252L248.243 175.721C248.243 175.721 241.588 174.612 240.82 171.456" fill="#F07D61"/>
<path d="M202.952 151.655C204.006 154.837 213.721 170.993 216.677 171.627C221.454 172.651 237.117 170.375 237.117 170.375L236.35 174.525C236.35 174.525 219.577 176.575 215.482 174.697C209.496 171.953 201.877 153.604 201.877 153.604L202.952 151.655" fill="#FAB988"/>
<path d="M216.677 171.627C216.553 171.6 216.416 171.537 216.269 171.46C216.136 172.607 215.937 173.711 215.694 174.78C220.112 176.508 236.35 174.525 236.35 174.525L237.117 170.375C237.117 170.375 221.454 172.651 216.677 171.627" fill="#F7936D"/>
<path d="M222.447 178.735L221.796 168.967C221.796 168.967 240.683 167.883 241.335 172.224C241.987 176.567 222.447 178.735 222.447 178.735" fill="#FEEEB5"/>
<path d="M222.252 175.803L222.447 178.735C222.447 178.735 240.863 176.691 241.337 172.597C238.284 175.172 226.117 175.7 222.252 175.803" fill="#F2CA85"/>
<path d="M228.092 208.696C228.092 208.696 237.676 231.4 242.668 231.4C247.662 231.4 253.926 189.373 249.8 178.953C245.676 168.532 233.736 168.749 233.518 170.488C233.302 172.224 237.644 195.017 228.092 208.696" fill="#FEEEB5"/>
<path d="M250.431 181.145C250.009 197.611 243.197 225.58 239.193 225.58C237.688 225.58 235.708 223.401 233.679 220.371C236.881 226.428 240.755 232.575 243.288 232.575C247.985 232.575 253.256 194.353 250.431 181.145Z" fill="#F2CA85"/>
<path d="M263.284 193.924L255.465 199.811C255.465 199.811 242.4 178.181 245.676 175.263C248.953 172.343 263.284 193.924 263.284 193.924" fill="#FEEEB5"/>
<path d="M260.201 196.247L263.284 193.924C263.284 193.924 256.397 183.557 251.08 178.167C254.879 184.207 259.152 193.837 260.201 196.247Z" fill="#F2CA85"/>
<path d="M158.293 264.935L143.949 270.387C143.949 270.387 142.769 264.761 145.982 264.5C150.112 264.167 158.293 264.935 158.293 264.935Z" fill="#FEEEB5"/>
<path d="M166.634 239.432L180.635 245.719C180.635 245.719 182.727 239.544 179.535 239.093C175.432 238.517 166.634 239.432 166.634 239.432Z" fill="#91C9E0"/>
<path d="M70.0076 279.379H56.6992C56.6992 279.379 60.2024 272.887 62.8867 273.783C66.3363 274.94 70.0076 279.379 70.0076 279.379Z" fill="#FEEEB5"/>
<path d="M231.863 279.379H218.555C218.555 279.379 226.091 273.441 228.705 274.34C232.067 275.497 231.863 279.379 231.863 279.379Z" fill="#91C9E0"/>
<path d="M86.3799 183.968C90.7023 185.105 99.233 184.196 105.376 178.393C105.376 178.393 103.693 185.411 94.683 186.471C88.8819 187.153 86.3799 183.968 86.3799 183.968Z" fill="#3A707C"/>
<path d="M47.0799 104.401C48.4444 107.985 56.4642 113.615 72.5023 113.615C72.5023 113.615 53.222 122.829 47.421 111.397C41.6194 99.9653 47.0799 104.401 47.0799 104.401Z" fill="#F59D32"/>
<path d="M106.456 95.5293C106.268 101.341 103.081 109.439 89.3193 110.42C89.3193 110.42 106.322 112.773 106.914 105.644C108.504 86.4866 106.456 95.5293 106.456 95.5293" fill="#F59D32"/>
<path d="M114.816 116.857C114.816 116.857 128.807 104.572 129.83 91.776L133.073 94.1639C133.073 94.1639 128.637 112.251 117.035 118.392L114.816 116.857Z" fill="#FBEA6B"/>
<path d="M9.30788 106.695C9.30788 106.695 23.6594 117.351 35.2427 115.328L33.9339 119.031C33.9339 119.031 16.8198 118.996 8.49902 109.204L9.30788 106.695" fill="#FBEA6B"/>
<path d="M62.9381 76.496C59.5517 76.496 56.1714 75.9533 52.9323 75.06C54.7807 68.864 54.5735 64.5373 50.3865 64.5373C49.4251 64.5373 48.2531 64.7666 46.8479 65.252C46.0443 65.5306 45.2599 65.8187 44.4922 66.1147C47.6954 64.564 51.1719 63.6733 54.7225 63.1973C54.5793 63.2626 54.4386 63.328 54.3027 63.396C55.6798 66.2866 63.6787 70.7186 70.5875 70.7186C75.0965 70.7186 79.1413 68.8306 80.5782 63.396C80.5339 63.372 80.4886 63.348 80.4432 63.324C82.2432 63.4493 84.0604 63.7653 85.8574 64.2453C79.4063 73.3133 71.1485 76.496 62.9381 76.496" fill="#E5762D"/>
<path d="M70.5875 70.7186C63.6787 70.7186 55.6798 66.2866 54.3027 63.396C54.4386 63.328 54.5793 63.2626 54.7225 63.1973C54.7391 63.1946 54.7558 63.192 54.7725 63.1906C55.1621 63.0146 55.5755 62.8453 56.0162 62.6893L55.8719 63.1787C55.9361 63.2053 56.0006 63.2333 56.0651 63.26C60.2829 66.4173 66.6818 68.796 70.8798 68.796C77.3115 68.796 78.1985 62.5867 78.1985 62.5867C77.9845 62.6493 77.7694 62.7106 77.5542 62.7719L77.5725 62.1613C78.6022 62.4813 79.5585 62.8693 80.423 63.3227C80.4298 63.3227 80.4365 63.324 80.4433 63.324C80.4886 63.348 80.5339 63.372 80.5782 63.396C79.1413 68.8306 75.0965 70.7186 70.5875 70.7186" fill="#E69444"/>
<path d="M67.0199 64.3519C64.0122 64.3519 60.4294 64.0106 55.9081 63.1413C55.9601 63.1813 56.0127 63.2199 56.0653 63.2599C56.0007 63.2333 55.9362 63.2053 55.8721 63.1786L56.0163 62.6893L62.0075 42.4026L77.9778 48.3919L77.5721 62.1612H77.5726L77.5543 62.7719C74.5221 63.6359 71.3753 64.3519 67.0199 64.3519" fill="#D94C3F"/>
<path d="M52.9321 75.0599C47.6337 73.5986 42.7066 71.196 38.7217 68.684C40.5091 67.7853 42.3971 66.9333 44.4222 66.148C44.4457 66.1373 44.4686 66.1266 44.4919 66.1146C45.2597 65.8186 46.0441 65.5306 46.8477 65.2519C48.2529 64.7666 49.4249 64.5373 50.3862 64.5373C54.5733 64.5373 54.7805 68.8639 52.9321 75.0599Z" fill="#E5762D"/>
<path d="M70.8801 68.796C66.6821 68.796 60.2831 66.4174 56.0654 63.26C56.0129 63.22 55.9602 63.1813 55.9082 63.1413C60.4295 64.0107 64.0123 64.352 67.0201 64.352C71.3754 64.352 74.5222 63.636 77.5545 62.772C77.7697 62.7107 77.9847 62.6494 78.1987 62.5867C78.1987 62.5867 77.3118 68.796 70.8801 68.796" fill="#D94C3F"/>
<path d="M82.9697 39.7066C82.9697 39.7066 89.1953 40.4639 88.6453 38.4399C85.8917 28.2799 96.2437 13.2425 84.3458 11.3585L81.415 31.4692C81.415 31.4692 83.1208 36.0106 82.9697 39.7066Z" fill="#853C36"/>
<path d="M60.622 50.1772C60.1141 41.0292 49.9485 24.2293 59.673 10.0679C63.246 4.8626 72.3444 11.1039 72.3444 11.1039C71.084 39.3173 67.6594 49.1506 60.622 50.1772" fill="#A14644"/>
<path d="M72.0548 16.5586C70.2408 16.7639 68.1996 16.5359 66.1662 15.8066C63.0236 14.6693 60.6501 12.6039 59.5089 10.3492C50.1012 24.4506 60.1173 41.0866 60.6225 50.1772C67.185 49.2212 70.5985 40.5906 72.0548 16.5586" fill="#853C36"/>
<path d="M79.0352 62.4266C79.0352 62.4266 85.1347 54.6853 87.7055 46.0773C88.3352 43.9546 87.4976 35.1146 88.4456 33.0693C89.3899 31.0226 89.9607 30.3373 90.9623 28.3186C92.8096 24.6013 88.5274 15.8053 85.6306 12.8413C79.5691 6.64128 66.753 6.5293 66.417 10.9626C64.68 33.884 61.9951 45.6573 62.9763 49.168C63.5643 51.2666 63.044 58.0866 79.0352 62.4266" fill="#FBC68C"/>
<path d="M87.705 46.0773C88.3348 43.9546 87.4972 35.1146 88.4452 33.0693C89.3894 31.0226 89.9602 30.3373 90.9618 28.3186C91.19 27.8586 82.7753 28.1853 83.131 35.0986C83.4504 41.372 81.5749 47.852 84.8977 49.0506C85.4389 49.2453 86.0192 49.2786 86.6138 49.196C87.0181 48.18 87.3889 47.1346 87.705 46.0773Z" fill="#F7936D"/>
<path d="M86.2367 49.9853C70.2471 45.6453 69.8899 38.7373 69.3066 36.6373C68.7222 34.56 66.6992 29.3786 65.5039 20.7586C63.6858 37.2693 61.6524 46.4293 62.4852 49.3973C63.0727 51.4986 63.1128 58.6533 79.1008 62.996C79.1008 62.996 83.4462 56.8173 86.343 49.8453L86.2367 49.9853Z" fill="#D4B39C"/>
<path d="M81.6611 57.4627C83.0914 57.2307 84.0496 64.1 79.1012 62.996C74.1554 61.896 79.7106 57.7813 81.6611 57.4627Z" fill="#D4B39C"/>
<path d="M64.1133 48.5333C63.4055 46.0187 65.0367 39.248 66.6533 27.1827C66.2409 25.2947 65.8377 23.1786 65.5044 20.7586C63.6863 37.2693 61.27 46.1134 62.1029 49.0814C62.6899 51.18 63.5836 60.1387 79.0273 63.1094C79.0284 63.1094 80.3976 63.324 80.882 62.996C79.0967 62.8147 67.544 60.8133 64.1133 48.5333" fill="#A98972"/>
<path d="M64.0595 40.2507C60.1559 41.8707 53.3809 38.0453 55.5898 33.432C57.8038 28.8227 60.0669 30.8333 62.3601 32.6733C64.6549 34.516 64.0595 40.2507 64.0595 40.2507" fill="#FBC68C"/>
<path d="M62.8063 39.1546C60.2021 40.2346 55.6833 37.6826 57.1552 34.5972C58.6317 31.5172 60.1421 32.8586 61.6735 34.0946C63.2052 35.3252 62.8063 39.1546 62.8063 39.1546" fill="#F07D61"/>
<path d="M63.2721 39.6386C61.6133 40.3252 58.7335 38.6999 59.6705 36.7359C60.6101 34.7719 61.5742 35.6279 62.5475 36.4106C63.5267 37.1933 63.2721 39.6386 63.2721 39.6386Z" fill="#FBC68C"/>
<path d="M64.069 39.1C64.069 39.1 70.2185 39.7734 69.5757 37.6454C66.3543 26.9707 75.7497 10.8787 63.9753 9.12801L62.1221 30.428C62.1221 30.428 64.0283 35.1907 64.069 39.1Z" fill="#A14644"/>
<path d="M84.5617 51.2654C84.6305 52.4774 81.2033 54.6547 78.9237 53.688C77.1976 52.948 75.7658 49.2694 76.4762 48.276C77.4242 47.8694 83.3851 50.2214 84.5617 51.2654Z" fill="#40271D"/>
<path d="M83.7416 50.6053C81.4474 49.3506 79.7671 48.4626 77.2755 48.1053C77.2755 48.1053 76.063 50.2053 78.0499 51.0799C78.9088 51.4586 81.6811 52.6533 82.2999 52.6133C84.1483 52.4879 83.7416 50.6053 83.7416 50.6053Z" fill="#FCE5DD"/>
<path d="M68.3691 49.7973C73.1607 52.6907 75.2419 46.0053 77.991 44.236C81.155 42.1947 85.6925 44.0214 86.367 46.8814C87.043 49.7454 86.4686 52.348 91.5675 52.188C91.5675 52.188 86.3134 56.6227 83.0566 50.584C80.5561 45.9454 74.8763 56.9867 68.3691 49.7973" fill="#A14644"/>
<path d="M86.4268 28.5867C85.7424 28.152 85.8372 26.2 87.0315 25.9067C88.2238 25.612 91.3623 26.196 91.7675 27.34C92.1711 28.4813 92.1039 30.1787 90.6326 29.74C89.1602 29.3 87.7539 29.4293 86.4268 28.5867Z" fill="#AC6F64"/>
<path d="M80.707 27.4561C81.8122 27.2668 82.6376 25.3934 81.2152 24.7241C79.7934 24.0521 75.396 23.5787 74.3111 24.5241C73.2283 25.4721 72.4919 27.0934 74.6371 27.1627C76.7814 27.2307 78.5586 27.8134 80.707 27.4561" fill="#AC6F64"/>
<path d="M87.4027 35.2626C87.8355 33.7479 87.612 32.3439 86.8932 32.1226C86.1818 31.9093 85.2495 32.9613 84.8151 34.4786C84.385 35.9866 84.6088 37.3906 85.3219 37.6119C86.038 37.8279 86.9708 36.7746 87.4027 35.2626Z" fill="#6C4A41"/>
<path d="M78.8512 33.3C79.3146 31.66 79.0168 30.128 78.1834 29.8733C77.3548 29.62 76.3026 30.7426 75.8427 32.38C75.3798 34.0146 75.6793 35.5467 76.511 35.804C77.3422 36.06 78.3902 34.936 78.8512 33.3" fill="#6C4A41"/>
<path d="M73.8906 34.2146L79.851 35.2786C79.851 35.2786 74.6322 38.1973 73.8906 34.2146Z" fill="#F7936D"/>
<path d="M87.7051 37.4399L82.0469 35.2972C82.0469 35.2972 85.0286 40.4773 87.7051 37.4399Z" fill="#F7936D"/>
<path d="M80.6035 43.248C80.6035 43.248 85.7687 47.1866 86.2989 46.292C86.827 45.4013 83.9734 31.2973 84.4598 29.572C84.9505 27.8413 80.0021 36.8707 80.6035 43.248Z" fill="#FBC68C"/>
<path d="M65.5599 9.79461C69.5933 12.2079 92.023 18.716 91.9022 8.06264C91.7813 -2.58936 82.637 -1.87205 77.499 5.46928C77.499 5.46928 59.4703 6.15194 65.5599 9.79461" fill="#A14644"/>
<path d="M70.1064 17.3561C69.0105 17.1281 67.884 16.8054 66.7471 16.3347C65.5548 15.8401 64.4689 15.248 63.4991 14.6L61.5449 30.2574C61.5449 30.2574 64.0283 35.1907 64.0689 39.1C64.0689 39.1 70.2184 39.7734 69.5756 37.6454C67.6965 31.4174 70.108 23.3481 70.1064 17.3561Z" fill="#853C36"/>
<path d="M216.848 239.192L218.041 237.231L232.204 247.808L230.753 250.027L216.848 239.192" fill="#F14285"/>
<path d="M203.554 210.304L205.81 209.872L207.467 227.468L204.85 227.883L203.554 210.304Z" fill="#F14285"/>
<path d="M241.076 170.347C239.45 171.117 237.408 172.991 240.99 175.636C244.573 178.28 248.242 175.721 248.242 175.721C248.242 175.721 244.317 168.811 241.076 170.347Z" fill="#F07D61"/>
<path d="M248.244 175.713C248.24 175.711 248.237 175.708 248.233 175.705C248.049 175.387 244.972 170.124 242.064 170.124C241.79 170.124 241.517 170.171 241.249 170.273L243.636 163.692L250.46 166.252L248.244 175.713" fill="#D94C3F"/>
<path d="M233.755 170.129C233.759 169.797 233.78 169.477 233.818 169.169C234.832 169.276 235.815 169.409 236.715 169.587C236.595 169.583 236.478 169.58 236.362 169.58C235.118 169.58 234.174 169.799 233.755 170.129Z" fill="#E6956E"/>
<path d="M246.975 183.457C237.331 182.057 233.697 174.976 233.755 170.129C234.173 169.799 235.117 169.58 236.361 169.58C236.477 169.58 236.595 169.583 236.715 169.587C236.729 169.589 236.744 169.592 236.759 169.595C237.973 169.639 239.424 169.889 240.936 170.415C239.339 171.224 237.509 173.067 240.991 175.636C242.211 176.537 243.441 176.833 244.533 176.833C244.744 176.833 244.951 176.823 245.149 176.803C245.125 178.369 245.872 180.779 246.975 183.457" fill="#E6956E"/>
<path d="M250.516 183.703C249.254 183.703 248.074 183.617 246.974 183.457C245.872 180.779 245.125 178.369 245.149 176.803C246.949 176.623 248.242 175.721 248.242 175.721C248.242 175.721 248.24 175.716 248.233 175.705C248.237 175.708 248.24 175.711 248.244 175.713L248.242 175.72C249.09 176.279 250.057 177.132 251.084 178.171C252.082 179.76 253.114 181.599 254.112 183.487C252.845 183.633 251.648 183.703 250.516 183.703Z" fill="#E6956E"/>
<path d="M254.112 183.487C253.115 181.599 252.083 179.76 251.084 178.171C251.74 178.836 252.421 179.579 253.111 180.368L253.148 180.412C253.944 181.325 254.748 182.3 255.537 183.293C255.053 183.368 254.577 183.433 254.112 183.487Z" fill="#D97C52"/>
<path d="M244.533 176.833C243.441 176.833 242.211 176.537 240.991 175.636C237.509 173.067 239.339 171.224 240.936 170.415C240.937 170.416 240.939 170.416 240.939 170.416L241.076 170.347L241.241 170.295L241.249 170.273C241.517 170.171 241.791 170.124 242.064 170.124C244.972 170.124 248.049 175.387 248.233 175.705C248.24 175.716 248.243 175.721 248.243 175.721C248.243 175.721 246.949 176.623 245.149 176.803C244.951 176.823 244.744 176.833 244.533 176.833" fill="#D94C3F"/>
<path d="M243.049 168.743C231.883 162.683 225.401 154.923 230.877 144.944C239.147 129.869 252.035 126.507 259.664 132.453C267.292 138.401 268.175 146.601 266.036 155.128C264.28 162.139 255.804 175.664 243.049 168.743Z" fill="#FAB988"/>
<path d="M265.662 140.167C266.755 144.195 266.48 148.591 265.354 153.08C263.598 160.091 255.122 173.616 242.367 166.695C236.091 163.289 231.295 159.344 229.27 154.772C230.631 160.225 235.856 164.839 243.05 168.743C255.804 175.664 264.28 162.139 266.036 155.128C267.356 149.865 267.519 144.728 265.662 140.167Z" fill="#F7936D"/>
<path d="M267.385 163.756C267.385 162.001 265.148 160.573 262.39 160.573C259.634 160.573 257.398 162.001 257.398 163.756C257.398 165.515 259.634 166.943 262.39 166.943C265.148 166.943 267.385 165.515 267.385 163.756Z" fill="#FAB988"/>
<path d="M265.809 163.984C265.809 162.904 264.431 162.024 262.732 162.024C261.035 162.024 259.657 162.904 259.657 163.984C259.657 165.068 261.035 165.948 262.732 165.948C264.431 165.948 265.809 165.068 265.809 163.984Z" fill="#F07D61"/>
<path d="M262.918 164.069C262.918 163.285 261.918 162.649 260.686 162.649C259.454 162.649 258.455 163.285 258.455 164.069C258.455 164.856 259.454 165.495 260.686 165.495C261.918 165.495 262.918 164.856 262.918 164.069Z" fill="#FAB988"/>
<path d="M257.398 163.756C258.918 161.585 263.981 161.007 268.036 159.993C272.089 158.981 267.892 145.231 267.892 145.231C265.576 153.628 258.961 156.825 257.398 163.756" fill="#9D432E"/>
<path d="M256.182 151.448C257.588 149.612 256.625 148.491 255.109 147.329C253.561 146.145 251.885 145.34 250.286 147.147C248.612 149.04 250.045 150.016 251.745 151.224C253.412 152.403 254.713 153.371 256.182 151.448Z" fill="#D95521"/>
<path d="M239.021 139.235C240.322 137.484 242.018 137.995 243.505 139.132C245.025 140.295 245.829 141.78 244.609 143.709C243.328 145.729 242.036 144.627 240.454 143.325C238.908 142.053 237.658 141.069 239.021 139.235Z" fill="#D95521"/>
<path d="M256.125 151.524C257.536 149.68 257.006 148.024 255.474 146.853C253.941 145.679 251.982 145.431 250.57 147.273C249.16 149.117 250.425 150.044 251.956 151.216C253.489 152.387 254.714 153.367 256.125 151.524Z" fill="#FFFAE9"/>
<path d="M244.607 143.267C245.838 141.296 245.13 139.564 243.494 138.543C241.856 137.519 239.91 137.589 238.679 139.557C237.448 141.525 238.791 142.328 240.428 143.353C242.067 144.375 243.374 145.232 244.607 143.267Z" fill="#FFFAE9"/>
<path d="M258.561 149.659C258.386 147.349 256.53 145.791 255.99 145.637L256.393 144.617C257.368 144.901 259.373 146.849 259.569 149.419L258.561 149.659" fill="#AD543B"/>
<path d="M244.9 138.109C242.801 136.739 239.984 137.149 239.418 137.468L238.881 136.492C239.908 135.927 243.174 135.651 245.505 137.176L244.9 138.109" fill="#AD543B"/>
<path d="M253.762 148.687C254.336 147.936 254.226 146.885 253.516 146.343C252.806 145.8 251.765 145.967 251.19 146.719C250.616 147.468 250.726 148.519 251.434 149.061C252.144 149.605 253.188 149.439 253.762 148.687" fill="#7BABC7"/>
<path d="M253.361 147.911C253.621 147.569 253.571 147.093 253.248 146.845C252.925 146.599 252.451 146.673 252.191 147.015C251.929 147.357 251.98 147.833 252.303 148.079C252.625 148.328 253.099 148.251 253.361 147.911Z" fill="#9FD1E5"/>
<path d="M242.185 140.775C242.758 140.024 242.646 138.973 241.937 138.432C241.228 137.887 240.185 138.055 239.61 138.805C239.036 139.557 239.146 140.607 239.856 141.151C240.566 141.693 241.609 141.527 242.185 140.775Z" fill="#7BABC7"/>
<path d="M242.001 140.167C242.263 139.825 242.212 139.348 241.889 139.104C241.567 138.856 241.093 138.932 240.833 139.273C240.571 139.615 240.621 140.091 240.944 140.339C241.267 140.584 241.74 140.508 242.001 140.167Z" fill="#9FD1E5"/>
<path d="M244.933 156.452C245.033 155.685 238.99 151.775 237.909 151.996C236.833 152.217 237.377 156.745 238.753 157.817C240.128 158.897 244.749 157.891 244.933 156.452" fill="#4D2521"/>
<path d="M244.279 156.172C244.358 155.533 239.33 152.279 238.428 152.46C238.09 152.529 237.946 153.113 237.958 153.861L242.662 157.367C243.524 157.091 244.214 156.664 244.279 156.172Z" fill="#FEF0F1"/>
<path d="M243.424 150.487C242.723 149.949 242.479 149.068 242.803 148.411C242.671 148.495 242.548 148.591 242.449 148.719C241.935 149.389 242.153 150.42 242.939 151.023C243.723 151.621 244.775 151.565 245.289 150.896L245.424 150.671C244.864 151.021 244.059 150.973 243.424 150.487Z" fill="#F7936D"/>
<path d="M239.56 194.431L241.203 204.785L235.489 200.429L239.56 194.431ZM240.28 191.021L233.796 200.576L242.896 207.515L240.28 191.021Z" fill="#CB9C52"/>
</svg>
