<svg width="233" height="165" viewBox="0 0 393 236" fill="none" xmlns="http://www.w3.org/2000/svg">
<path d="M302.426 165.084C300.096 132.452 331.94 118.426 357.529 107.157C365.736 103.543 373.486 100.128 379.017 96.5266C399.678 83.0626 389.428 35.9773 387.932 29.6239C371.073 52.2599 350.552 49.224 347.994 48.7386C341.07 62.0346 330.36 61.8226 328.566 61.6853C319.185 81.7893 305.116 81.372 302.717 81.1506C301.406 90.72 297.896 97.5466 292.287 101.443C285.837 105.921 278.537 105.023 276.8 104.724C275.5 120.24 272.033 136.978 248.669 140.674L248.562 140C271.628 136.35 274.838 120.357 276.15 104.289L276.182 103.897L276.566 103.985C276.648 104.001 284.814 105.804 291.905 100.876C297.412 97.048 300.837 90.2693 302.087 80.7279L302.133 80.3759L302.484 80.4373C302.634 80.456 318.053 82.8359 328.049 61.1786L328.154 60.9493L328.406 60.9826C328.521 61.0026 340.206 62.4666 347.505 48.1986L347.629 47.9613L347.888 48.0226C348.11 48.0759 370.097 52.988 387.816 28.6306L388.243 28.0426L388.422 28.748C388.558 29.2826 401.858 82.4586 379.39 97.0959C373.813 100.731 366.037 104.156 357.805 107.781C332.412 118.966 300.809 132.884 303.105 165.036L302.426 165.084Z" fill="#7E514A"/>
<path d="M256.068 129.667C255.743 131.871 260.699 128.381 259.704 126.556C258.708 124.729 256.236 128.529 256.068 129.667Z" fill="#FBC68C"/>
<path d="M100.504 112.067C99.5826 111.761 96.7306 108.341 93.6453 106.588C90.7706 102.271 92.3919 102.016 93.4159 102.954C92.3679 101.909 91.1026 99.1013 93.5866 100.395C93.9266 100.571 93.352 99.8853 92.448 98.468C91.4053 96.8093 91.0959 95.404 91.5879 94.964C92.2853 94.3346 92.2906 95.5853 93.7093 97.2613C95.5386 99.4133 97 101.792 98.6533 101.871C100.177 101.937 100.993 97.8466 102.011 98.7093C102.808 99.3973 101.013 102.431 99.1666 106.407C97.684 109.6 101.484 112.397 100.504 112.067Z" fill="#FAB988"/>
<path d="M93.7005 105.228C94.8939 105.911 97.1139 106.196 95.9752 103.864C95.9752 103.864 97.9099 103.009 95.8059 100.28L100.012 104.204L99.1592 108.073L100.297 111.769L93.6445 106.588L93.7005 105.228Z" fill="#F7936D"/>
<path d="M153.87 46.376L133.867 33.4387C133.867 33.4387 142.918 20.1013 151.871 25.78C160.322 31.1386 159.086 36.9106 153.87 46.376Z" fill="#79C4D5"/>
<path d="M153.377 26.816C154.35 30.5466 152.674 34.8946 149.542 40.5813L135.419 31.4453C134.431 32.6066 133.867 33.4387 133.867 33.4387L153.87 46.376C158.751 37.516 160.145 31.8933 153.377 26.816Z" fill="#5AA8BB"/>
<path d="M131.106 37.992C124.925 33.508 120.445 23.62 125.233 22.5333C135.435 20.2133 151.666 41.856 151.666 41.856L131.106 37.992Z" fill="#5294AF"/>
<path d="M130.876 38.6079C124.693 34.1266 120.212 24.2413 125.001 23.1506C135.204 20.8346 151.436 42.4746 151.436 42.4746L130.876 38.6079Z" fill="#63B1C5"/>
<path d="M157.849 72.36L151.201 73.0307L157.231 75.812L157.849 72.36Z" fill="#D8B15C"/>
<path d="M101.066 188.602C104.262 189.941 117.246 190.767 124.357 186.748L112.3 181.08L101.066 188.602Z" fill="#4D7A90"/>
<path d="M171.555 80.2933C169.287 78.5413 157.437 71.1226 145.689 75.9666L148.163 82.0439L171.555 80.2933Z" fill="#D8B15C"/>
<path d="M144.338 129.605C143.094 133.589 139.717 143.871 143.738 144.48C147.757 145.089 160.446 141.283 160.446 141.283L144.338 129.605Z" fill="#C59946"/>
<path d="M178.871 146.196C183.044 146.196 193.864 146.35 193.247 142.329C192.628 138.313 185.21 127.336 185.21 127.336L178.871 146.196Z" fill="#C59946"/>
<path d="M229.398 132.34C229.93 132.962 239.504 143.729 241.913 143.202C244.32 142.673 257.306 129.087 257.306 129.087L257.185 127.264C257.185 127.264 244.529 139.483 241.632 137.921C238.737 136.359 232.993 127.613 232.993 127.613L229.398 132.34Z" fill="#FBC68C"/>
<path d="M240.321 136.925C237.289 134.147 232.993 127.613 232.993 127.613L229.398 132.34C229.814 132.825 235.745 139.496 239.47 142.138C239.378 140.512 239.666 138.736 240.321 136.925Z" fill="#F7936D"/>
<path d="M223.044 178.29C229.785 176.536 235.195 174.647 236.835 175.821C238.471 176.995 246.013 212.172 246.013 212.172L248.129 211.088C248.129 211.088 243.27 169.813 240.452 169.211C237.63 168.611 219.201 168.626 219.201 168.626L223.044 178.29Z" fill="#FAB988"/>
<path d="M241.818 185.662C241.116 179.712 240.721 174.116 240.611 169.314L240.452 169.211C237.63 168.611 219.201 168.626 219.201 168.626L223.044 178.29C229.785 176.536 235.195 174.647 236.835 175.821C238.471 176.995 246.013 212.172 246.013 212.172L247.124 211.601C245.121 206.096 243.106 196.58 241.818 185.662Z" fill="#F7936D"/>
<path d="M223.605 176.14C230.572 176.155 238.829 175.916 240.116 177.466C241.401 179.016 253.972 212.321 253.972 212.321L256.293 211.811C256.293 211.811 245.545 171.802 242.966 170.507C240.392 169.211 222.34 165.819 222.34 165.819L223.605 176.14Z" fill="#FAB988"/>
<path d="M242.49 170.307C238.716 168.896 222.34 165.819 222.34 165.819L223.605 176.14C230.572 176.155 238.829 175.916 240.116 177.466C240.252 177.631 240.522 178.173 240.886 178.98C241.246 175.868 241.79 172.953 242.49 170.307Z" fill="#F7936D"/>
<path d="M220.762 120.381C223.49 116.608 239.926 133.021 239.926 133.021C239.926 133.021 233.694 142.402 233.607 141.755C233.523 141.105 214.446 129.112 220.762 120.381Z" fill="#F7F2C0"/>
<path d="M226.13 121.467C223.647 119.944 221.582 119.245 220.762 120.381C214.446 129.112 233.523 141.105 233.607 141.755C233.637 141.983 234.443 140.944 235.467 139.52C230.329 135.345 222.115 127.649 226.13 121.467Z" fill="#E6D387"/>
<path d="M230.964 106.821L223.8 105.295L218.24 121.808L225.696 123.525L230.964 106.821Z" fill="#F07D61"/>
<path d="M203.289 176.611L235.021 176.681L239.465 165.724C239.465 165.724 189.412 151.772 203.289 176.611Z" fill="#4E90A7"/>
<path d="M232.046 173.711C205.082 173.711 224.11 162.324 218.908 161.808C209.415 161.985 196.943 165.252 203.29 176.611L235.022 176.681L236.31 173.505C234.935 173.637 233.511 173.711 232.046 173.711Z" fill="#397183"/>
<path d="M233.281 176.44L238.433 164.692L240.495 165.519L236.271 176.44H233.281Z" fill="#64B0BF"/>
<path d="M202.367 173.556C197 169.661 204.496 139.059 211.226 127.009C221.058 109.403 223.866 119.635 226.038 121.38C228.211 123.131 221.171 158.591 220.514 160.328C219.86 162.067 206.278 176.393 202.367 173.556Z" fill="#F7F2C0"/>
<path d="M221.604 116.972C219.396 116.313 216.218 118.073 211.226 127.009C204.497 139.059 195.748 171.192 201.113 175.087C203.853 177.073 211.946 169.893 216.778 164.813C213.638 159.696 218.442 148.72 218.442 140.168C218.442 127.786 218.34 120.845 221.604 116.972Z" fill="#EBE195"/>
<path d="M233.894 171.186C276.655 69.8986 386.692 30.0693 388.312 29.3813L388.092 28.832C381.458 31.6493 275.34 69.9066 231.018 170.029L233.894 171.186Z" fill="#6A442D"/>
<path d="M220.975 140.596C221.167 141.374 224.816 154.924 226.941 155.319C229.069 155.707 244.564 147.809 244.564 147.809L245.148 146.068C245.148 146.068 230.431 152.811 228.695 150.29C226.957 147.771 225.625 137.516 225.625 137.516L220.975 140.596Z" fill="#FBC68C"/>
<path d="M228.785 150.386L228.695 150.29C226.957 147.771 225.625 137.516 225.625 137.516L220.975 140.596C221.135 141.248 223.713 150.829 225.796 154.178C226.403 152.956 227.419 151.662 228.785 150.386Z" fill="#F7936D"/>
<path d="M220.451 118.68C224.593 116.549 229.371 144.708 229.371 144.708C229.371 144.708 218.921 149.904 219.139 149.288C219.352 148.672 210.868 123.615 220.451 118.68Z" fill="#F7F2C0"/>
<path d="M220.529 118.659L220.451 118.68C210.869 123.615 218.969 148.929 218.754 149.547C218.647 149.845 221.159 148.707 223.767 147.46C221.55 142.203 213.962 124.643 220.529 118.659Z" fill="#E6D387"/>
<path d="M120.111 127.44C120.249 121.274 127.419 88.2293 136.301 82.0613C145.188 75.8946 145.071 104.769 144.555 107.707C143.883 111.528 134.275 129.874 133.272 131.202C129.763 135.838 119.905 136.421 120.111 127.44Z" fill="#6F4A32"/>
<path d="M136.603 81.8906C122.398 94.8226 131.774 116.466 131.466 118.216C130.791 122.041 127.822 124.905 126.818 126.231C125.372 128.14 122.767 129.186 120.215 129.157C121.3 136.429 130.503 136.421 133.771 132.105C134.776 130.778 144.808 111.693 145.482 107.871C145.991 104.967 145.208 76.5799 136.603 81.8906Z" fill="#5D3926"/>
<path d="M147.367 154.204C145.983 148.384 144.511 132.335 138.783 121.719C133.151 111.28 132.189 102.039 132.499 93.3826C133.087 76.916 162.313 69.0413 174.955 83.4866C187.596 97.9333 186.237 114.233 187.631 124.401C190.92 148.392 192.017 166.19 186.601 163.868C184.415 162.932 148.657 159.621 147.367 154.204Z" fill="#6F4A32"/>
<path d="M188.513 124.601C187.12 114.433 187.596 97.9333 174.954 83.4867C162.313 69.0413 133.086 76.916 132.498 93.3827C132.189 102.039 133.046 111.693 138.681 122.133C144.409 132.747 145.54 147.845 146.925 153.668C147.126 154.508 148.612 155.844 150.241 156.597C150.24 156.572 147.813 145.9 147.542 143.462C147.441 142.539 151.057 140.291 151.046 140.269C144.554 125.433 135.95 95.1853 139.764 85.292C141.67 85.964 147.75 86.068 153.314 83.1813C150.636 97.504 158.992 133.136 165.165 145.527C168.05 145.527 169.421 150.876 169.905 152.069C172.686 158.907 182.313 159.883 181.045 163.186C184.325 163.684 186.654 164.047 187.161 164.266C192.577 166.588 191.802 148.596 188.513 124.601Z" fill="#5D3926"/>
<path d="M146.408 152.378C149.192 149.907 175.935 145.423 182.427 148.824L182.116 155.471L146.408 152.378Z" fill="#5D3926"/>
<path d="M139.504 81.5307C139.504 81.5307 140.768 89.928 145.636 95.7267L157.848 77.0987L139.504 81.5307Z" fill="#5D3926"/>
<path d="M139.814 80.912C139.814 80.912 141.076 89.3134 145.944 95.108L158.157 76.48L139.814 80.912Z" fill="#F1B738"/>
<path d="M141.618 78.4906C120.789 82.3853 132.498 125.79 142.391 143.569C142.665 141.592 145.482 140.944 149.038 140.941C149.038 140.941 127.087 96.5773 141.618 78.4906Z" fill="#EBE195"/>
<path d="M135.591 86.0653C136.323 86.0653 137.041 86.2119 137.749 86.4386C138.54 83.4666 139.787 80.7706 141.619 78.4906C136.64 79.4213 133.536 82.6266 131.807 87.1799C132.988 86.4599 134.257 86.0653 135.591 86.0653Z" fill="#E9CB7F"/>
<path d="M139.305 137.297C140.327 139.608 141.367 141.731 142.391 143.569C142.665 141.59 145.482 140.944 149.038 140.941C149.038 140.941 147.378 137.583 145.279 132.357C143.615 134.959 141.578 136.707 139.305 137.297Z" fill="#E9CB7F"/>
<path d="M136.574 85.156L136.615 77.0733L142.189 76.668L141.429 79.2374L136.574 85.156Z" fill="#D8B15C"/>
<path d="M193.248 142.329C192.165 138.621 177.636 137.384 166.043 139.24C160.477 131.512 148.059 85.032 158.364 74.7293C169.083 75.4493 183.045 77.0986 188.765 102.449C192.712 119.949 193.248 142.329 193.248 142.329Z" fill="#EBE195"/>
<path d="M188.764 102.449C183.044 77.0986 169.082 75.4493 158.363 74.7293C157.167 75.924 155.219 79.1093 155.064 82.1226C161.795 80.536 172.683 93.5866 178.78 114.58C181.332 123.362 182.744 131.723 183.05 138.648C188.534 139.16 192.688 140.413 193.247 142.329C193.247 142.329 192.711 119.949 188.764 102.449Z" fill="#E9CB7F"/>
<path d="M150.368 66.768L156.304 77.616C156.304 77.616 147.647 86.992 139.505 81.5307C137.857 69.8854 138.371 67.62 138.371 67.62L150.368 66.768Z" fill="#F07D61"/>
<path d="M119.666 184.065C118.119 175.943 107.254 152.785 102.222 157.043C97.1901 161.299 114.721 216.837 114.734 235.079H117.831C115.122 214.569 121.217 192.195 119.666 184.065Z" fill="#FAB988"/>
<path d="M120.927 184.129C119.377 176.001 107.253 152.785 102.221 157.043C99.5918 159.267 103.129 175.513 107.104 193.113C111.439 190.917 115.667 190.316 116.84 194.764C118.585 201.369 114.952 218.05 115.963 235.079H117.83C115.121 214.569 122.473 192.256 120.927 184.129Z" fill="#F7936D"/>
<path d="M101.066 164.799C98.5975 150.195 109.273 152.85 155.221 154.111C170.681 154.537 179.551 168.837 165.425 175.359C157.537 178.997 102.531 173.457 101.066 164.799Z" fill="#62A2BE"/>
<path d="M155.861 154.149C156.262 157.703 154.228 161.324 148.833 163.816C143.644 166.208 118.07 164.631 100.757 160.805C100.705 161.971 100.81 163.284 101.065 164.799C102.53 173.457 157.537 178.997 165.425 175.359C179.353 168.931 170.922 154.945 155.861 154.149Z" fill="#4788A1"/>
<path d="M148.419 72.924C151.759 68.84 163.886 65.9253 157.767 58.412C157.767 58.412 161.799 51.6746 160.584 48.2666C159.368 44.864 156.162 46.0973 156.162 46.0973C156.162 46.0973 157.359 37.2226 154.574 35.9853C151.786 34.7493 150.596 37.2586 150.596 37.2586C150.596 37.2586 150.208 33.5253 148.611 32.7586C146.34 31.672 145.251 33.94 145.251 33.94C145.251 33.94 145.748 30.8986 142.967 30.528C140.187 30.16 138.483 32.1453 138.483 32.1453C138.483 32.1453 137.946 28.5013 132.634 29.1706C127.323 29.8373 128.819 34.612 128.819 34.612C128.819 34.612 126.487 32.2986 124.383 35.2506C123.571 36.4013 124.486 40.7653 124.486 40.7653C124.486 40.7653 121.288 41.528 120.726 45.1106C120.163 48.6973 124.663 57.1973 129.062 59.0133C133.462 60.8293 148.419 72.924 148.419 72.924Z" fill="#963629"/>
<path d="M160.584 48.2666C159.368 44.864 156.161 46.0973 156.161 46.0973C156.161 46.0973 157.359 37.2226 154.573 35.9853C151.785 34.7493 150.596 37.2586 150.596 37.2586C150.596 37.2586 150.312 34.5453 149.235 33.2706C149.331 34.044 149.397 34.8226 149.397 35.6226C149.397 45.6679 141.773 37.216 130.745 47.0093C127.957 49.4853 124.753 52.584 121.916 50.512C123.476 54.0653 126.288 57.8693 129.061 59.0133C133.461 60.8293 148.419 72.924 148.419 72.924C151.759 68.84 163.885 65.9253 157.767 58.412C157.767 58.412 161.799 51.6746 160.584 48.2666Z" fill="#812A22"/>
<path d="M155.077 81.8906L152.512 77.34L157.22 75.1613L155.077 81.8906Z" fill="#E9CB7F"/>
<path d="M159.78 81.816L152.516 77.3307L157.849 72.36L159.394 74.424L159.78 81.816Z" fill="#EBE195"/>
<path d="M140.114 92.42C139.668 92.42 139.237 92.3947 138.826 92.3427C138.797 89.4787 139.082 87.06 139.764 85.292C139.95 85.3574 140.176 85.4174 140.438 85.4707C141.008 87.3854 141.881 89.772 143.172 92.0987C142.093 92.3067 141.066 92.42 140.114 92.42ZM149.23 90.2467L153.134 84.2907C152.95 85.612 152.846 87.08 152.812 88.6707C151.63 89.2374 150.428 89.7694 149.23 90.2467Z" fill="#602E22"/>
<path d="M138.825 92.3427C138.09 92.248 137.418 92.0667 136.822 91.784C136.993 89.928 137.293 88.14 137.745 86.4387C137.746 86.4387 137.746 86.4387 137.748 86.4387C138.192 84.7693 138.78 83.1867 139.534 81.716C139.62 82.2053 139.886 83.6173 140.437 85.4707C140.174 85.4173 139.949 85.3573 139.762 85.292C139.081 87.06 138.796 89.4787 138.825 92.3427ZM152.81 88.6707C152.845 87.08 152.949 85.612 153.133 84.2907L154.905 81.588L155.076 81.8906L155.081 81.876C155.078 81.908 155.076 81.9413 155.073 81.9747C154.722 83.7573 154.518 85.74 154.44 87.8627C153.902 88.1387 153.36 88.408 152.81 88.6707Z" fill="#4F251B"/>
<path d="M143.171 92.0986C141.88 89.772 141.007 87.3853 140.438 85.4706C139.887 83.6173 139.62 82.2053 139.535 81.716C139.556 81.6746 139.578 81.6333 139.599 81.5933C139.728 81.6773 139.856 81.7586 139.986 81.8346C140.363 83.676 141.427 87.972 143.762 91.9773C143.563 92.0213 143.366 92.0613 143.171 92.0986ZM149.099 90.2973L154.86 81.508L154.906 81.588L153.134 84.2906L149.23 90.2466C149.186 90.2626 149.142 90.2813 149.099 90.2973Z" fill="#4F251B"/>
<path d="M143.762 91.9773C141.428 87.972 140.364 83.676 139.986 81.8346C141.666 82.8413 143.36 83.2386 144.988 83.2386C148.541 83.2386 151.781 81.3453 153.874 79.756L154.861 81.508L149.1 90.2973C147.273 91.0173 145.464 91.604 143.762 91.9773Z" fill="#D37224"/>
<path d="M136.823 91.7839C135.052 90.9453 133.96 89.2199 133.941 86.2693C134.477 86.1346 135.028 86.0653 135.589 86.0653C136.32 86.0653 137.039 86.2119 137.745 86.4386C137.293 88.1399 136.993 89.9279 136.823 91.7839Z" fill="#CC8C57"/>
<path d="M137.748 86.4387C137.747 86.4387 137.747 86.4387 137.746 86.4387C137.039 86.2121 136.32 86.0654 135.59 86.0654C135.028 86.0654 134.478 86.1347 133.942 86.2694C133.938 85.7281 133.971 85.1441 134.042 84.5187C134.1 84.0321 134.328 83.2561 134.723 82.2881C134.96 82.0241 135.196 81.7587 135.454 81.5201L135.759 81.2654C136.03 81.0294 136.304 80.7974 136.598 80.5854L136.574 85.156L139.532 81.548C139.555 81.564 139.578 81.5787 139.599 81.5934C139.578 81.6334 139.556 81.6747 139.535 81.716C138.78 83.1867 138.192 84.7694 137.748 86.4387Z" fill="#C97E4D"/>
<path d="M162.526 75.0894C161.47 74.9667 160.43 74.8774 159.414 74.8027V74.8014C160.43 74.876 161.47 74.9654 162.526 75.0894Z" fill="#DD9F99"/>
<path d="M136.574 85.156L136.598 80.5854C136.642 80.552 136.689 80.52 136.734 80.488C136.9 80.3707 137.082 80.2774 137.256 80.1707C137.56 79.9854 137.857 79.7893 138.181 79.6293C138.454 79.4907 138.754 79.3867 139.042 79.2694L139.189 79.2093C139.284 79.9373 139.389 80.7107 139.505 81.5307C139.514 81.536 139.524 81.5427 139.533 81.548L136.574 85.156Z" fill="#BC6D3B"/>
<path d="M154.441 87.8627C154.52 85.74 154.724 83.7573 155.075 81.9747C155.071 82.024 155.068 82.0733 155.065 82.1227C155.435 82.036 155.817 81.992 156.211 81.992C157.747 81.992 159.452 82.6493 161.236 83.8973C159.323 85.168 156.964 86.5693 154.441 87.8627Z" fill="#CC8C57"/>
<path d="M161.235 83.8973C159.451 82.6493 157.746 81.992 156.21 81.992C155.816 81.992 155.434 82.036 155.064 82.1227C155.067 82.0733 155.07 82.024 155.074 81.9747C155.076 81.9413 155.079 81.908 155.082 81.876L155.87 79.4013L159.779 81.816L159.414 74.8027C160.43 74.8773 161.47 74.9667 162.526 75.0893C164.742 75.348 167.026 75.752 169.292 76.4653C167.763 78.264 166.266 79.8147 165.267 80.8107C164.498 81.5787 163.071 82.6773 161.235 83.8973Z" fill="#C97E4D"/>
<path d="M153.658 72.7827L157.849 72.36L153.658 72.7827Z" fill="#DD9F99"/>
<path d="M155.654 74.4053C155.278 74.3799 154.901 74.3639 154.52 74.3559L153.658 72.7826L157.849 72.3599L155.654 74.4053Z" fill="#BC6D3B"/>
<path d="M154.921 75.0894L154.52 74.356C154.901 74.364 155.278 74.38 155.654 74.4054L154.921 75.0894Z" fill="#BC6D3B"/>
<path d="M144.986 83.2386C143.358 83.2386 141.665 82.8413 139.985 81.8346C139.856 81.7586 139.728 81.6773 139.598 81.5933C139.577 81.5786 139.554 81.564 139.532 81.548C139.522 81.5426 139.513 81.536 139.504 81.5306C139.388 80.7106 139.282 79.9373 139.188 79.2093L139.189 79.208C139 77.768 138.853 76.5186 138.734 75.4013C140.178 73.4533 141.962 71.4186 144.104 69.508C146.628 71.4773 148.418 72.924 148.418 72.924C149.25 71.9066 150.628 70.9613 152.134 70L153.656 72.7826H153.657L154.518 74.356L154.92 75.0893L152.514 77.3306L152.521 77.3346L152.51 77.34L153.873 79.756C151.78 81.3453 148.54 83.2386 144.986 83.2386Z" fill="#D04B3D"/>
<path d="M148.42 72.924C148.42 72.924 146.629 71.4773 144.105 69.508C145.084 68.636 146.137 67.788 147.267 66.9866L150.368 66.768L152.136 70C150.629 70.9613 149.252 71.9066 148.42 72.924Z" fill="#6E1F1A"/>
<path d="M155.077 81.8906L154.906 81.588L154.861 81.508L153.874 79.756L152.512 77.34L152.522 77.3346L155.87 79.4013L155.082 81.876L155.077 81.8906Z" fill="#C97E4D"/>
<path d="M159.78 81.816L155.87 79.4014L152.522 77.3347L152.516 77.3307L154.921 75.0894L155.654 74.4054L157.849 72.36L159.394 74.424L159.414 74.8014V74.8027L159.78 81.816Z" fill="#CC8C57"/>
<path d="M132.652 83.5907C132.652 83.5907 127.365 74.5187 126.468 67.0507C126.249 65.2094 128.238 63.7387 127.74 61.9174C127.24 60.0934 125.686 59.6614 125.133 57.8574C124.113 54.5307 128.492 41.0454 131.764 39.5294C134.604 38.216 144.112 42.924 145.545 46.3694C150.532 58.2414 149.486 67.0907 149.81 69.68C150.118 72.1534 143.858 82.8174 132.652 83.5907Z" fill="#FBC68C"/>
<path d="M126.313 66.8187C126.313 64.4253 128.239 63.7387 127.74 61.9173C127.24 60.0933 125.687 59.6613 125.133 57.8573C124.985 57.376 124.993 56.692 125.104 55.8973C128.259 55.6306 131.516 54.7026 131.339 64.124C131.236 69.536 131.92 73.2093 130.063 78.532C128.131 74.7426 126.313 68.9813 126.313 66.8187Z" fill="#F89F76"/>
<path d="M135.777 71.8133C135.777 71.8133 136.131 76.9107 133.332 77.4627C130.439 78.036 128.967 72.9427 128.967 72.9427L135.777 71.8133Z" fill="#451F1D"/>
<path d="M130.495 75.5667C129.726 74.4413 129.334 73.0973 129.334 73.0973L135.23 72.108C135.23 72.108 135.326 73.4573 135.009 74.7373L130.495 75.5667Z" fill="#FEF5ED"/>
<path d="M148.779 68.4426C151.69 69.512 157.558 64.46 155.827 60.712C154.102 56.9613 152.481 58.8507 150.83 60.6C149.185 62.3493 148.779 68.4426 148.779 68.4426Z" fill="#FBC68C"/>
<path d="M150.56 65.988C152.486 66.6946 155.728 64.1853 154.586 61.7026C153.44 59.2213 152.37 60.4746 151.276 61.632C150.186 62.7893 150.56 65.988 150.56 65.988Z" fill="#F07D61"/>
<path d="M150.271 66.068C151.607 66.5613 153.864 64.8413 153.073 63.1213C152.28 61.4053 151.533 62.2653 150.771 63.064C150.013 63.8613 150.271 66.068 150.271 66.068Z" fill="#FBC68C"/>
<path d="M124.713 56.9894C124.546 56.6467 124.545 56.2494 124.701 55.8947C124.861 55.5427 125.166 55.2734 125.544 55.1507L128.657 54.136C128.781 54.0974 128.913 54.1134 129.017 54.1854C129.118 54.256 129.184 54.3694 129.185 54.492L129.201 55.7827C129.205 56.2147 128.914 56.6 128.484 56.7294L125.836 57.5347C125.406 57.6614 124.944 57.4707 124.756 57.0787L124.713 56.9894Z" fill="#963629"/>
<path d="M139.916 53.876C139.988 53.484 139.801 53.1254 139.404 52.8787C139.004 52.6427 138.431 52.5427 137.828 52.6121L132.841 53.2027C132.648 53.2254 132.463 53.3041 132.347 53.4214L132.252 53.7827L132.855 54.956C133.055 55.348 133.663 55.5561 134.347 55.4654L138.556 54.9107C139.243 54.8201 139.811 54.4214 139.897 53.9787L139.916 53.876Z" fill="#963629"/>
<path d="M128.091 61.3014C127.783 60.2054 128.032 59.1814 128.655 59.0081C129.273 58.8374 130.032 59.5827 130.34 60.6774C130.651 61.7721 130.395 62.7974 129.775 62.9707C129.155 63.1441 128.4 62.3974 128.091 61.3014Z" fill="#4D342D"/>
<path d="M135.462 59.992C135.092 58.9187 135.282 57.8774 135.894 57.676C136.508 57.4734 137.305 58.1801 137.676 59.2521C138.045 60.3254 137.853 61.3627 137.241 61.5654C136.63 61.7721 135.836 61.0694 135.462 59.992Z" fill="#4D342D"/>
<path d="M132.432 68.4933C132.389 69.744 128.902 70.176 127.401 70.036C126.464 69.9467 130.629 61.1014 130.685 55.088C130.685 55.088 132.646 62.12 132.432 68.4933Z" fill="#FBC68C"/>
<path d="M101.89 187.367C101.89 187.367 117.296 182.161 123.016 184.479C123.016 184.479 114.669 153.528 109 153.615C92.3064 153.873 101.89 187.367 101.89 187.367Z" fill="#62A2BE"/>
<path d="M114.744 160.693C115.476 168.931 115.555 178.807 115.535 184.129C118.465 183.767 121.633 184.164 123.431 184.892C123.431 184.892 119.513 169.125 114.744 160.693Z" fill="#4788A1"/>
<path d="M184.645 135.943C185.612 129.535 190.849 97.7 181.925 88.2826C172.998 78.868 169.469 78.4346 165.424 88.848C161.921 97.8693 171.28 133.189 172.177 134.902C175.301 140.893 183.237 145.281 184.645 135.943Z" fill="#6F4A32"/>
<path d="M166.35 91.1146C170.396 80.7013 173.928 81.136 182.853 90.552C183.678 91.4213 184.38 92.484 184.98 93.7013C184.22 91.52 183.228 89.656 181.925 88.2826C172.998 78.868 169.469 78.4346 165.424 88.848C161.921 97.8693 171.28 133.189 172.177 134.903C172.3 135.143 172.434 135.378 172.573 135.609C170.405 128.415 163.21 99.2026 166.35 91.1146Z" fill="#5D3926"/>
<path d="M181.925 88.2826C177.734 83.864 174.741 81.4533 172.318 81.184C173.877 82.3773 175.64 84.0466 177.701 86.2253C186.625 95.6413 181.9 128.199 180.932 134.607C180.32 138.669 178.374 139.995 176.116 139.704C179.757 142.657 184.172 143.192 185.154 136.668C186.124 130.257 190.849 97.7 181.925 88.2826Z" fill="#5D3926"/>
<path d="M170.216 131.408C171.556 129.347 183.92 124.401 188.867 136.869C188.867 136.869 180.211 148.311 172.482 139.859C167.9 134.852 170.216 131.408 170.216 131.408Z" fill="#B4744B"/>
<path d="M186.914 133.271C184.482 135.984 177.378 142.612 171.088 135.737C170.412 134.999 169.91 134.286 169.515 133.601C169.323 135.238 169.676 137.648 172.172 140.376C179.9 148.824 188.867 136.869 188.867 136.869C188.304 135.452 187.642 134.268 186.914 133.271Z" fill="#A45A39"/>
<path d="M122.534 120.272C125.037 119.643 138.515 124.916 133.633 137.695C133.633 137.695 118.298 139.674 118.173 128.008C118.098 121.092 122.534 120.272 122.534 120.272Z" fill="#B4744B"/>
<path d="M119.442 124.345C119.319 123.817 119.242 123.329 119.186 122.861C118.375 124.076 117.74 125.831 117.768 128.361C117.894 140.026 133.632 137.695 133.632 137.695C134.647 135.036 134.86 132.705 134.55 130.68C130.231 131.761 121.456 132.82 119.442 124.345Z" fill="#A45A39"/>
<path d="M125.801 135.838C114.951 134.34 106.133 117.692 98.2559 109.768L99.4439 107.445C109.769 115.945 128.436 119.821 130.761 125.025C133.085 130.226 132.212 136.726 125.801 135.838Z" fill="#FAB988"/>
<path d="M130.761 125.025C130.596 124.657 130.338 124.295 130.016 123.935C130.488 127.944 129.045 131.66 124.457 131.256C114.908 130.411 106.113 117.099 98.5318 108.744L98.2559 109.768C106.133 117.692 115.196 135.39 126.045 136.892C132.457 137.778 133.085 130.226 130.761 125.025Z" fill="#F7936D"/>
<path d="M149.634 168.653C128.268 128.72 5.07906 4.85197 3.83906 3.60397L3.81641 2.01596C8.90041 7.12129 130.784 126.86 152.363 167.193L149.634 168.653Z" fill="#826957"/>
<path d="M3.81641 2.01596L3.83372 3.2653C15.7631 15.1026 130.652 128.56 151.54 167.605L149.62 168.632L149.634 168.653L152.363 167.193C130.784 126.86 8.90041 7.12129 3.81641 2.01596Z" fill="#5F4839"/>
<path d="M147.225 68.9106L149.662 67.488C149.662 67.488 148.265 61.5373 152.157 58.0146L145.806 42.6547C145.806 42.6547 142.427 51.888 147.225 68.9106Z" fill="#812A22"/>
<path d="M117.967 235.697C112.247 235.697 105.291 235.697 105.291 235.697C105.291 235.697 113.947 231.212 116.112 231.368C118.275 231.523 117.967 235.697 117.967 235.697Z" fill="#F7F2C0"/>
<path d="M136.742 165.037C135.171 150.547 141.803 152.397 176.285 150.85C189.97 150.237 193.707 167.297 180.774 175.292C174.011 179.474 137.681 173.681 136.742 165.037Z" fill="#7EBADA"/>
<path d="M184.448 153.195C183.696 156.505 181.698 159.843 178.198 162.567C172.914 166.678 146.04 166.004 136.564 160.621C136.495 161.896 136.559 163.353 136.742 165.037C137.68 173.681 174.011 179.474 180.774 175.292C190.539 169.256 190.796 158.056 184.448 153.195Z" fill="#61A5C3"/>
<path d="M101.161 188.539L100.141 184.583C100.141 184.583 111.27 180.069 123.759 182.372L124.666 186.644C124.666 186.644 114.901 185.199 101.161 188.539Z" fill="#9ED8ED"/>
<path d="M157.746 151.504C160.953 151.232 175.987 155.319 177.533 163.767L188.043 158.924C187.321 153.049 181.861 147.073 157.746 151.504Z" fill="#61A5C3"/>
<path d="M156.533 105.001L164.187 104.307C164.187 104.307 164.957 107.552 160.629 107.939C156.303 108.323 156.533 105.001 156.533 105.001Z" fill="#D8B15C"/>
<path d="M156.227 104.383L163.879 103.686C163.879 103.686 164.651 106.931 160.323 107.32C155.994 107.707 156.227 104.383 156.227 104.383Z" fill="#FEF6B6"/>
<path d="M158.768 114.343L166.273 113.425C166.273 113.425 167.03 116.65 162.788 117.16C158.542 117.672 158.768 114.343 158.768 114.343Z" fill="#D8B15C"/>
<path d="M158.467 113.735L165.97 112.817C165.97 112.817 166.727 116.04 162.484 116.553C158.239 117.065 158.467 113.735 158.467 113.735Z" fill="#FEF6B6"/>
<path d="M131.242 107.308L136.969 106.438C136.969 106.438 137.84 109.493 134.6 109.976C131.358 110.461 131.242 107.308 131.242 107.308Z" fill="#D8B15C"/>
<path d="M130.955 106.732L136.68 105.862C136.68 105.862 137.55 108.916 134.312 109.4C131.071 109.885 130.955 106.732 130.955 106.732Z" fill="#FEF6B6"/>
<path d="M133.252 117.124L138.979 116.255C138.979 116.255 139.847 119.311 136.608 119.792C133.368 120.278 133.252 117.124 133.252 117.124Z" fill="#D8B15C"/>
<path d="M132.967 116.544L138.692 115.676C138.692 115.676 139.561 118.731 136.323 119.216C133.083 119.703 132.967 116.544 132.967 116.544Z" fill="#FEF6B6"/>
<path d="M137.75 136.869C137.75 134.48 135.813 132.54 133.424 132.54C131.038 132.54 129.1 134.48 129.1 136.869C129.1 139.259 131.038 141.197 133.424 141.197C135.813 141.197 137.75 139.259 137.75 136.869Z" fill="#5F4839"/>
<path d="M137.674 136.921C137.674 134.828 135.981 133.133 133.887 133.133C131.799 133.133 130.104 134.828 130.104 136.921C130.104 139.013 131.799 140.708 133.887 140.708C135.981 140.708 137.674 139.013 137.674 136.921Z" fill="#4A3327"/>
<path d="M138.56 136.869C138.56 134.807 137.07 133.136 135.229 133.136C133.388 133.136 131.898 134.807 131.898 136.869C131.898 138.931 133.388 140.605 135.229 140.605C137.07 140.605 138.56 138.931 138.56 136.869Z" fill="#4A3327"/>
<path d="M135.189 140.267C133.516 140.245 132.177 138.707 132.2 136.829C132.224 134.956 133.6 133.452 135.272 133.472C136.946 133.495 138.286 135.033 138.262 136.908C138.238 138.781 136.862 140.288 135.189 140.267ZM135.23 132.54C133.098 132.54 131.369 134.48 131.369 136.869C131.369 139.259 133.098 141.197 135.23 141.197C137.364 141.197 139.093 139.259 139.093 136.869C139.093 134.48 137.364 132.54 135.23 132.54Z" fill="#D6B19C"/>
<path d="M252.254 143.481C252.311 145.457 250.795 147.101 248.866 147.16C246.935 147.221 245.326 145.666 245.267 143.696C245.211 141.723 246.726 140.069 248.655 140.013C250.582 139.952 252.195 141.507 252.254 143.481Z" fill="#4A3327"/>
<path d="M248.617 140.336C246.869 140.411 245.509 141.926 245.586 143.721C245.661 145.516 247.145 146.913 248.899 146.841C250.655 146.762 252.014 145.247 251.934 143.455C251.857 141.657 250.377 140.264 248.617 140.336ZM248.883 147.728C246.646 147.799 244.778 145.996 244.713 143.711C244.646 141.424 246.402 139.512 248.639 139.443C250.877 139.376 252.742 141.176 252.81 143.462C252.876 145.754 251.115 147.661 248.883 147.728Z" fill="#D6B19C"/>
<path d="M179.594 141.405C167.853 147.592 149.877 141.192 137.854 140.64L137.217 138.201C152.007 137.535 173.526 127.773 178.534 130.05C183.545 132.327 186.535 137.748 179.594 141.405Z" fill="#FAB988"/>
<path d="M179.615 130.624C182.478 133.447 181.828 136.02 176.5 138.826C165.279 144.74 149.47 140.243 137.48 139.208L137.854 140.64C149.876 141.192 168.09 148.168 179.83 141.98C186.254 138.595 183.964 133.212 179.615 130.624Z" fill="#F7936D"/>
<path d="M145.688 95.4947L145.482 98.692L147.336 98.02L146.356 95.1347L145.688 95.4947Z" fill="#5D3926"/>
<path d="M145.553 94.972L144.752 98.0734L146.699 97.7627L146.277 94.7454L145.553 94.972Z" fill="#EBE195"/>
<path d="M130.471 234.692L132.792 175.872H237.656L244.621 234.692H130.471Z" fill="#5D2F1A"/>
<path d="M130.674 185.508L131.672 176.645L240.29 178.311L240.702 185.878L130.674 185.508Z" fill="#7A4221"/>
<path d="M129.748 195.821L130.579 186.947L240.424 186.847L240.992 194.407L129.748 195.821Z" fill="#7A4221"/>
<path d="M242.004 204.326L241.02 195.466L130.212 196.804L129.766 204.366L242.004 204.326Z" fill="#7A4221"/>
<path d="M128.656 214.655L129.7 205.772L243.304 205.113L243.735 212.673L128.656 214.655Z" fill="#7A4221"/>
<path d="M127.688 224.988L128.557 216.096L243.444 213.645L244.04 221.195L127.688 224.988Z" fill="#7A4221"/>
<path d="M245.649 233.326L244.068 222.25L128.174 225.959L127.705 233.533L245.649 233.326Z" fill="#7A4221"/>
<path d="M132.445 229.72C132.445 230.629 133.185 231.368 134.096 231.368C135.005 231.368 135.743 230.629 135.743 229.72C135.743 228.811 135.005 228.069 134.096 228.069C133.185 228.069 132.445 228.811 132.445 229.72Z" fill="#5D2F1A"/>
<path d="M133.281 229.72C133.281 230.168 133.645 230.531 134.095 230.531C134.543 230.531 134.904 230.168 134.904 229.72C134.904 229.269 134.543 228.907 134.095 228.907C133.645 228.907 133.281 229.272 133.281 229.72Z" fill="#B2862E"/>
<path d="M133.143 220.445C133.143 221.355 133.879 222.093 134.789 222.093C135.701 222.093 136.439 221.355 136.439 220.445C136.439 219.535 135.701 218.797 134.789 218.797C133.879 218.797 133.143 219.535 133.143 220.445Z" fill="#5D2F1A"/>
<path d="M133.979 220.445C133.979 220.893 134.34 221.256 134.789 221.256C135.237 221.256 135.601 220.893 135.601 220.445C135.601 219.995 135.237 219.632 134.789 219.632C134.34 219.632 133.979 219.997 133.979 220.445Z" fill="#B2862E"/>
<path d="M133.914 210.243C133.914 211.153 134.653 211.889 135.562 211.889C136.474 211.889 137.211 211.153 137.211 210.243C137.211 209.331 136.474 208.595 135.562 208.595C134.653 208.595 133.914 209.331 133.914 210.243Z" fill="#5D2F1A"/>
<path d="M134.75 210.243C134.75 210.69 135.113 211.056 135.562 211.056C136.01 211.056 136.374 210.69 136.374 210.243C136.374 209.795 136.01 209.431 135.562 209.431C135.113 209.431 134.75 209.795 134.75 210.243Z" fill="#B2862E"/>
<path d="M135.021 200.221C135.021 201.133 135.761 201.868 136.669 201.868C137.581 201.868 138.32 201.133 138.32 200.221C138.32 199.312 137.581 198.573 136.669 198.573C135.761 198.573 135.021 199.312 135.021 200.221Z" fill="#5D2F1A"/>
<path d="M135.857 200.221C135.857 200.669 136.221 201.031 136.669 201.031C137.117 201.031 137.483 200.669 137.483 200.221C137.483 199.773 137.117 199.411 136.669 199.411C136.221 199.411 135.857 199.773 135.857 200.221Z" fill="#B2862E"/>
<path d="M135.408 191.255C135.408 192.167 136.147 192.905 137.058 192.905C137.968 192.905 138.706 192.167 138.706 191.255C138.706 190.347 137.968 189.608 137.058 189.608C136.147 189.608 135.408 190.347 135.408 191.255Z" fill="#5D2F1A"/>
<path d="M136.244 191.255C136.244 191.702 136.608 192.069 137.057 192.069C137.505 192.069 137.869 191.702 137.869 191.255C137.869 190.808 137.505 190.443 137.057 190.443C136.608 190.443 136.244 190.808 136.244 191.255Z" fill="#B2862E"/>
<path d="M136.336 181.671C136.336 182.584 137.075 183.321 137.984 183.321C138.893 183.321 139.633 182.584 139.633 181.671C139.633 180.761 138.893 180.024 137.984 180.024C137.075 180.024 136.336 180.761 136.336 181.671Z" fill="#5D2F1A"/>
<path d="M137.172 181.671C137.172 182.119 137.535 182.485 137.984 182.485C138.433 182.485 138.796 182.119 138.796 181.671C138.796 181.224 138.433 180.861 137.984 180.861C137.535 180.861 137.172 181.224 137.172 181.671Z" fill="#B2862E"/>
<path d="M207.392 185.766L175.112 185.657C175.082 185.428 175.046 185.208 175.006 184.996C174.924 184.559 174.811 184.068 174.674 183.545C175.606 183.711 176.451 183.931 177.17 184.223C177.17 184.223 176.559 181.337 175.554 177.32L198.884 177.678C202.147 180.074 205.015 182.788 207.392 185.766ZM160.814 185.609L140.107 185.54C140.064 185.007 140.003 184.514 139.918 184.065L139.879 183.895C141.188 183.932 142.352 184.108 143.266 184.478C143.266 184.478 142.382 181.205 140.995 176.79L156.071 177.021C156.8 181.113 157.694 184.065 157.694 184.065C157.694 184.065 158.758 183.9 160.411 183.708C160.543 184.337 160.678 184.972 160.814 185.609Z" fill="#A15323"/>
<path d="M144.701 195.632L162.959 195.4L144.701 195.632Z" fill="#7C3A1A"/>
<path d="M139.598 195.696C139.96 192.285 140.207 189.311 140.17 186.94L161.095 186.92C161.692 189.692 162.32 192.536 162.958 195.4L144.7 195.632L139.598 195.696Z" fill="#A15323"/>
<path d="M174.861 195.248L212.709 194.767C212.709 194.767 212.709 194.767 212.711 194.767L174.861 195.248ZM181.129 186.901L208.231 186.874C208.231 186.876 208.231 186.876 208.232 186.876L181.129 186.901Z" fill="#7C3A1A"/>
<path d="M174.861 195.248C175.179 191.959 175.36 189.125 175.229 186.907L181.129 186.901L208.232 186.876C210.069 189.352 211.576 191.993 212.709 194.767L174.861 195.248Z" fill="#A15323"/>
<path d="M129.766 204.366L129.791 203.938C129.823 204.083 129.852 204.224 129.884 204.366H129.766Z" fill="#A15323"/>
<path d="M138.627 204.362C138.627 204.362 138.627 204.364 138.627 204.362L154.743 204.357L138.627 204.362ZM149.572 196.569L163.18 196.405L149.572 196.569Z" fill="#7C3A1A"/>
<path d="M138.627 204.362C138.923 201.647 139.23 199.072 139.49 196.692L149.572 196.569L163.18 196.405C163.771 199.06 164.367 201.724 164.948 204.353L154.743 204.357L138.627 204.362Z" fill="#A15323"/>
<path d="M174.76 196.266L213.126 195.801L174.76 196.266Z" fill="#7C3A1A"/>
<path d="M173.889 204.35C174.195 201.46 174.509 198.745 174.761 196.266L213.127 195.801C214.143 198.54 214.786 201.395 215.031 204.335L173.889 204.35Z" fill="#A15323"/>
<path d="M129.701 205.772L130.197 205.769L129.701 205.772Z" fill="#FFFAEE"/>
<path d="M128.656 214.655L129.7 205.772L130.196 205.769C130.859 208.783 131.495 211.747 132.074 214.596L128.656 214.655Z" fill="#A15323"/>
<path d="M138.48 205.721L156.66 205.616L138.48 205.721Z" fill="#7C3A1A"/>
<path d="M137.703 214.499C137.904 211.474 138.183 208.529 138.48 205.721L156.66 205.616L165.215 205.567C165.848 208.444 166.463 211.273 167.031 213.993L137.703 214.499ZM173.031 213.891C173.227 210.993 173.49 208.188 173.766 205.517L215.084 205.279C215.114 205.829 215.147 206.384 215.147 206.944C215.147 209.064 214.927 211.144 214.519 213.174L173.031 213.891Z" fill="#A15323"/>
<path d="M128.557 216.096L131.206 216.04L128.557 216.096Z" fill="#FFFAEE"/>
<path d="M131.205 216.04L132.358 216.016L131.205 216.04Z" fill="#7C3A1A"/>
<path d="M127.688 224.988L128.557 216.096L131.206 216.04L132.36 216.016C132.644 217.444 132.912 218.84 133.161 220.196C133.148 220.278 133.142 220.36 133.142 220.445C133.142 220.737 133.218 221.012 133.351 221.25C133.569 222.466 133.769 223.645 133.948 224.784L130.857 224.884L127.688 224.988Z" fill="#A15323"/>
<path d="M133.352 221.25C133.219 221.012 133.143 220.737 133.143 220.445C133.143 220.36 133.148 220.278 133.161 220.196C133.227 220.549 133.289 220.901 133.352 221.25Z" fill="#7C3A1A"/>
<path d="M137.615 215.903L167.297 215.269L137.615 215.903Z" fill="#7C3A1A"/>
<path d="M137.387 224.671C137.356 221.714 137.448 218.778 137.616 215.902L167.297 215.269C167.907 218.229 168.459 221.047 168.919 223.643L137.387 224.671Z" fill="#A15323"/>
<path d="M172.951 215.149V215.148L214.274 214.266C214.274 214.267 214.274 214.267 214.274 214.268L172.951 215.149Z" fill="#7C3A1A"/>
<path d="M172.696 223.52C172.688 220.683 172.788 217.88 172.952 215.149L214.274 214.268C213.617 217.044 212.598 219.719 211.246 222.264L172.696 223.52Z" fill="#A15323"/>
<path d="M127.705 233.533L130.514 233.528L127.705 233.533Z" fill="#FFFAEE"/>
<path d="M130.516 233.528L134.938 233.52L130.516 233.528Z" fill="#7C3A1A"/>
<path d="M127.705 233.533L128.174 225.959L130.817 225.874L134.1 225.769C134.22 226.572 134.33 227.349 134.428 228.102C134.32 228.081 134.209 228.069 134.094 228.069C133.184 228.069 132.444 228.811 132.444 229.72C132.444 230.629 133.184 231.368 134.094 231.368C134.337 231.368 134.569 231.314 134.777 231.22C134.85 232.028 134.904 232.797 134.937 233.52L130.514 233.528L127.705 233.533Z" fill="#A15323"/>
<path d="M134.096 231.368C133.185 231.368 132.445 230.629 132.445 229.72C132.445 228.811 133.185 228.069 134.096 228.069C134.211 228.069 134.321 228.081 134.429 228.102C134.471 228.421 134.511 228.735 134.547 229.044C134.419 228.957 134.263 228.907 134.096 228.907C133.647 228.907 133.283 229.272 133.283 229.72C133.283 230.168 133.647 230.531 134.096 230.531C134.328 230.531 134.539 230.432 134.685 230.276C134.72 230.596 134.751 230.911 134.779 231.22C134.571 231.314 134.339 231.368 134.096 231.368Z" fill="#7C3A1A"/>
<path d="M134.095 230.531C133.645 230.531 133.281 230.168 133.281 229.72C133.281 229.272 133.645 228.907 134.095 228.907C134.261 228.907 134.417 228.957 134.545 229.044C134.596 229.462 134.643 229.873 134.684 230.276C134.537 230.432 134.327 230.531 134.095 230.531Z" fill="#C8A533"/>
<path d="M137.895 233.514L170.249 233.459L137.895 233.514Z" fill="#7C3A1A"/>
<path d="M137.896 233.514C137.608 230.909 137.454 228.284 137.402 225.664L169.093 224.649C169.68 228.065 170.092 231.065 170.25 233.459L137.896 233.514Z" fill="#A15323"/>
<path d="M173.227 233.455V233.453L202.359 233.403L202.357 233.404L173.227 233.455ZM195.304 223.811L210.653 223.319L195.304 223.811Z" fill="#7C3A1A"/>
<path d="M173.226 233.453C172.898 230.477 172.739 227.49 172.703 224.535L195.303 223.811L210.652 223.32C208.534 227.002 205.732 230.398 202.358 233.402L173.226 233.453Z" fill="#A15323"/>
<path d="M232.408 182.138C232.408 183.047 233.147 183.785 234.055 183.785C234.965 183.785 235.706 183.047 235.706 182.138C235.706 181.226 234.965 180.486 234.055 180.486C233.147 180.486 232.408 181.226 232.408 182.138Z" fill="#5D2F1A"/>
<path d="M233.244 182.138C233.244 182.587 233.605 182.948 234.055 182.948C234.503 182.948 234.868 182.587 234.868 182.138C234.868 181.688 234.503 181.321 234.055 181.321C233.605 181.321 233.244 181.69 233.244 182.138Z" fill="#B2862E"/>
<path d="M232.562 190.947C232.562 191.859 233.3 192.596 234.211 192.596C235.12 192.596 235.859 191.859 235.859 190.947C235.859 190.036 235.12 189.299 234.211 189.299C233.3 189.299 232.562 190.036 232.562 190.947Z" fill="#5D2F1A"/>
<path d="M233.396 190.947C233.396 191.395 233.76 191.759 234.21 191.759C234.656 191.759 235.02 191.395 235.02 190.947C235.02 190.499 234.656 190.136 234.21 190.136C233.76 190.136 233.396 190.499 233.396 190.947Z" fill="#B2862E"/>
<path d="M233.799 200.221C233.799 201.133 234.537 201.869 235.447 201.869C236.357 201.869 237.096 201.133 237.096 200.221C237.096 199.312 236.357 198.573 235.447 198.573C234.537 198.573 233.799 199.312 233.799 200.221Z" fill="#5D2F1A"/>
<path d="M234.633 200.221C234.633 200.669 234.997 201.032 235.446 201.032C235.895 201.032 236.258 200.669 236.258 200.221C236.258 199.773 235.895 199.411 235.446 199.411C234.997 199.411 234.633 199.773 234.633 200.221Z" fill="#B2862E"/>
<path d="M234.184 208.992C234.184 209.904 234.922 210.643 235.833 210.643C236.744 210.643 237.482 209.904 237.482 208.992C237.482 208.084 236.744 207.345 235.833 207.345C234.922 207.345 234.184 208.084 234.184 208.992Z" fill="#5D2F1A"/>
<path d="M235.02 208.992C235.02 209.44 235.384 209.805 235.833 209.805C236.281 209.805 236.645 209.44 236.645 208.992C236.645 208.544 236.281 208.181 235.833 208.181C235.384 208.181 235.02 208.544 235.02 208.992Z" fill="#B2862E"/>
<path d="M234.881 218.112C234.881 219.024 235.618 219.761 236.529 219.761C237.438 219.761 238.176 219.024 238.176 218.112C238.176 217.202 237.438 216.466 236.529 216.466C235.618 216.466 234.881 217.202 234.881 218.112Z" fill="#5D2F1A"/>
<path d="M235.717 218.112C235.717 218.562 236.079 218.925 236.529 218.925C236.977 218.925 237.339 218.562 237.339 218.112C237.339 217.664 236.977 217.3 236.529 217.3C236.079 217.3 235.717 217.664 235.717 218.112Z" fill="#B2862E"/>
<path d="M235.189 228.314C235.189 229.226 235.929 229.962 236.839 229.962C237.748 229.962 238.487 229.226 238.487 228.314C238.487 227.405 237.748 226.667 236.839 226.667C235.929 226.667 235.189 227.405 235.189 228.314Z" fill="#5D2F1A"/>
<path d="M236.025 228.314C236.025 228.762 236.388 229.125 236.839 229.125C237.287 229.125 237.649 228.762 237.649 228.314C237.649 227.868 237.287 227.501 236.839 227.501C236.388 227.501 236.025 227.868 236.025 228.314Z" fill="#B2862E"/>
<path d="M138.035 234.692H134.973C134.967 234.316 134.955 233.925 134.938 233.52L137.895 233.514C137.939 233.907 137.986 234.3 138.035 234.692ZM134.099 225.769C134.051 225.445 134.001 225.116 133.947 224.784L137.386 224.672C137.39 225.001 137.395 225.333 137.402 225.664L134.099 225.769Z" fill="#432117"/>
<path d="M133.947 224.784L137.386 224.671V224.672L133.947 224.784Z" fill="#5A2D1A"/>
<path d="M134.101 225.769H134.1L137.402 225.664L134.101 225.769Z" fill="#5A2D1A"/>
<path d="M132.36 216.016C132.266 215.545 132.17 215.072 132.074 214.596L137.704 214.499C137.672 214.966 137.642 215.433 137.615 215.903L132.36 216.016Z" fill="#432117"/>
<path d="M132.074 214.596L137.704 214.499L132.074 214.596Z" fill="#5A2D1A"/>
<path d="M130.197 205.769C130.197 205.769 130.197 205.769 130.197 205.768L131.612 205.761L130.197 205.769Z" fill="#BEAA9B"/>
<path d="M131.611 205.761L131.626 205.412L131.667 204.366L138.627 204.362C138.578 204.812 138.529 205.266 138.481 205.721L131.611 205.761Z" fill="#432117"/>
<path d="M129.79 203.938C129.789 203.937 129.789 203.936 129.789 203.935L130.212 196.804L129.79 203.938ZM131.965 196.783L132.004 195.793L131.965 196.783Z" fill="#BEAA9B"/>
<path d="M131.967 196.783L132.005 195.793L139.599 195.696C139.564 196.024 139.528 196.356 139.491 196.692L131.967 196.783Z" fill="#432117"/>
<path d="M129.748 195.821L132.005 195.793L139.599 195.696L132.005 195.793L129.748 195.821Z" fill="#5A2D1A"/>
<path d="M131.967 196.783L139.491 196.692L131.967 196.783Z" fill="#5A2D1A"/>
<path d="M132.354 186.945L132.41 185.516L130.674 185.508L132.411 185.513L132.354 186.945Z" fill="#BEAA9B"/>
<path d="M132.354 186.945L132.411 185.513L140.107 185.54C140.14 185.979 140.162 186.445 140.17 186.939L132.354 186.945Z" fill="#432117"/>
<path d="M140.107 185.54L132.411 185.513L130.674 185.508L140.107 185.54Z" fill="#5A2D1A"/>
<path d="M132.354 186.947V186.945L140.17 186.939C140.17 186.939 140.17 186.939 140.17 186.94L132.354 186.947Z" fill="#5A2D1A"/>
<path d="M132.761 176.662H132.76L132.792 175.872L132.761 176.662Z" fill="#BEAA9B"/>
<path d="M140.994 176.789L132.76 176.662L132.79 175.872H140.705C140.804 176.183 140.9 176.488 140.994 176.789Z" fill="#432117"/>
<path d="M140.996 176.791L132.76 176.664V176.662H132.761L140.996 176.789V176.791Z" fill="#5A2D1A"/>
<path d="M140.107 185.54L130.674 185.508L131.672 176.645L132.759 176.664L140.995 176.791C142.382 181.205 143.266 184.479 143.266 184.479C142.352 184.108 141.188 183.932 139.879 183.895L139.918 184.065C140.003 184.515 140.064 185.007 140.107 185.54ZM137.984 180.024C137.075 180.024 136.336 180.761 136.336 181.671C136.336 182.584 137.075 183.321 137.984 183.321C138.894 183.321 139.634 182.584 139.634 181.671C139.634 180.761 138.894 180.024 137.984 180.024Z" fill="#78381A"/>
<path d="M137.984 183.321C137.075 183.321 136.336 182.584 136.336 181.671C136.336 180.761 137.075 180.024 137.984 180.024C138.893 180.024 139.633 180.761 139.633 181.671C139.633 182.584 138.893 183.321 137.984 183.321ZM137.984 180.861C137.535 180.861 137.172 181.224 137.172 181.671C137.172 182.119 137.535 182.485 137.984 182.485C138.433 182.485 138.796 182.119 138.796 181.671C138.796 181.224 138.433 180.861 137.984 180.861Z" fill="#5B2817"/>
<path d="M137.984 182.485C137.535 182.485 137.172 182.119 137.172 181.671C137.172 181.224 137.535 180.861 137.984 180.861C138.433 180.861 138.796 181.224 138.796 181.671C138.796 182.119 138.433 182.485 137.984 182.485Z" fill="#946C20"/>
<path d="M129.748 195.821L130.579 186.947H132.355L140.171 186.94C140.208 189.311 139.961 192.285 139.599 195.696L132.005 195.793L129.748 195.821ZM137.059 189.608C136.148 189.608 135.409 190.347 135.409 191.255C135.409 192.167 136.148 192.905 137.059 192.905C137.969 192.905 138.707 192.167 138.707 191.255C138.707 190.347 137.969 189.608 137.059 189.608Z" fill="#78381A"/>
<path d="M137.058 192.905C136.147 192.905 135.408 192.167 135.408 191.255C135.408 190.347 136.147 189.608 137.058 189.608C137.968 189.608 138.706 190.347 138.706 191.255C138.706 192.167 137.968 192.905 137.058 192.905ZM137.058 190.443C136.608 190.443 136.244 190.808 136.244 191.255C136.244 191.702 136.608 192.069 137.058 192.069C137.506 192.069 137.87 191.702 137.87 191.255C137.87 190.808 137.506 190.443 137.058 190.443Z" fill="#5B2817"/>
<path d="M137.057 192.069C136.608 192.069 136.244 191.702 136.244 191.255C136.244 190.808 136.608 190.443 137.057 190.443C137.505 190.443 137.869 190.808 137.869 191.255C137.869 191.702 137.505 192.069 137.057 192.069Z" fill="#946C20"/>
<path d="M131.667 204.366L138.627 204.362C138.627 204.364 138.627 204.362 138.627 204.362L131.666 204.366" fill="#5B2817"/>
<path d="M129.884 204.366C129.852 204.224 129.823 204.083 129.791 203.938L130.212 196.804L131.966 196.783L139.49 196.692C139.23 199.072 138.923 201.647 138.627 204.362L131.667 204.366H129.884ZM136.67 198.573C135.762 198.573 135.022 199.312 135.022 200.221C135.022 201.133 135.762 201.868 136.67 201.868C137.582 201.868 138.32 201.133 138.32 200.221C138.32 199.312 137.582 198.573 136.67 198.573Z" fill="#78381A"/>
<path d="M136.669 201.868C135.761 201.868 135.021 201.133 135.021 200.221C135.021 199.312 135.761 198.573 136.669 198.573C137.581 198.573 138.32 199.312 138.32 200.221C138.32 201.133 137.581 201.868 136.669 201.868ZM136.669 199.411C136.221 199.411 135.857 199.773 135.857 200.221C135.857 200.669 136.221 201.031 136.669 201.031C137.117 201.031 137.483 200.669 137.483 200.221C137.483 199.773 137.117 199.411 136.669 199.411Z" fill="#5B2817"/>
<path d="M136.669 201.031C136.221 201.031 135.857 200.669 135.857 200.221C135.857 199.773 136.221 199.411 136.669 199.411C137.117 199.411 137.483 199.773 137.483 200.221C137.483 200.669 137.117 201.031 136.669 201.031Z" fill="#946C20"/>
<path d="M130.197 205.769L131.612 205.761L130.197 205.769Z" fill="#BDA58E"/>
<path d="M131.611 205.761L138.481 205.721L131.611 205.761Z" fill="#5B2817"/>
<path d="M132.075 214.596C131.496 211.747 130.86 208.783 130.197 205.769L131.612 205.761L138.481 205.721C138.184 208.529 137.905 211.474 137.704 214.499L132.075 214.596ZM135.563 208.595C134.653 208.595 133.915 209.331 133.915 210.243C133.915 211.153 134.653 211.889 135.563 211.889C136.475 211.889 137.212 211.153 137.212 210.243C137.212 209.331 136.475 208.595 135.563 208.595Z" fill="#78381A"/>
<path d="M135.562 211.889C134.653 211.889 133.914 211.153 133.914 210.243C133.914 209.331 134.653 208.595 135.562 208.595C136.474 208.595 137.211 209.331 137.211 210.243C137.211 211.153 136.474 211.889 135.562 211.889ZM135.562 209.431C135.113 209.431 134.75 209.795 134.75 210.243C134.75 210.69 135.113 211.056 135.562 211.056C136.01 211.056 136.374 210.69 136.374 210.243C136.374 209.795 136.01 209.431 135.562 209.431Z" fill="#5B2817"/>
<path d="M135.562 211.056C135.113 211.056 134.75 210.69 134.75 210.243C134.75 209.795 135.113 209.431 135.562 209.431C136.01 209.431 136.374 209.795 136.374 210.243C136.374 210.69 136.01 211.056 135.562 211.056Z" fill="#946C20"/>
<path d="M132.359 216.016L137.615 215.903L132.359 216.016Z" fill="#5B2817"/>
<path d="M133.947 224.784C133.769 223.645 133.569 222.466 133.351 221.25C133.633 221.754 134.171 222.093 134.789 222.093C135.701 222.093 136.438 221.355 136.438 220.445C136.438 219.535 135.701 218.797 134.789 218.797C133.963 218.797 133.281 219.404 133.161 220.196C132.911 218.84 132.643 217.444 132.359 216.016L137.615 215.903C137.447 218.778 137.355 221.714 137.386 224.671L133.947 224.784Z" fill="#78381A"/>
<path d="M134.788 222.093C134.171 222.093 133.632 221.754 133.351 221.25C133.288 220.901 133.225 220.549 133.16 220.196C133.28 219.404 133.963 218.797 134.788 218.797C135.7 218.797 136.438 219.535 136.438 220.445C136.438 221.355 135.7 222.093 134.788 222.093ZM134.788 219.632C134.339 219.632 133.977 219.997 133.977 220.445C133.977 220.893 134.339 221.256 134.788 221.256C135.236 221.256 135.6 220.893 135.6 220.445C135.6 219.995 135.236 219.632 134.788 219.632Z" fill="#5B2817"/>
<path d="M134.789 221.256C134.34 221.256 133.979 220.893 133.979 220.445C133.979 219.997 134.34 219.632 134.789 219.632C135.237 219.632 135.601 219.995 135.601 220.445C135.601 220.893 135.237 221.256 134.789 221.256Z" fill="#946C20"/>
<path d="M134.938 233.52L137.895 233.515L134.938 233.52Z" fill="#5B2817"/>
<path d="M134.937 233.52C134.904 232.797 134.85 232.028 134.777 231.22C135.345 230.96 135.741 230.385 135.741 229.72C135.741 228.925 135.177 228.259 134.428 228.103C134.33 227.349 134.22 226.572 134.1 225.769L137.401 225.664C137.453 228.284 137.606 230.909 137.894 233.515L134.937 233.52Z" fill="#78381A"/>
<path d="M134.777 231.22C134.749 230.911 134.718 230.596 134.684 230.276C134.821 230.131 134.904 229.935 134.904 229.72C134.904 229.437 134.762 229.19 134.545 229.044C134.509 228.735 134.469 228.421 134.428 228.103C135.177 228.259 135.741 228.925 135.741 229.72C135.741 230.385 135.345 230.96 134.777 231.22Z" fill="#5B2817"/>
<path d="M134.684 230.276C134.642 229.873 134.596 229.462 134.545 229.044C134.762 229.189 134.904 229.437 134.904 229.72C134.904 229.935 134.821 230.131 134.684 230.276Z" fill="#946C20"/>
<path d="M173.373 234.692H170.311C170.299 234.301 170.279 233.889 170.25 233.459L173.226 233.455C173.273 233.867 173.321 234.28 173.373 234.692ZM169.093 224.649C169.037 224.317 168.978 223.983 168.918 223.644L172.695 223.521C172.697 223.857 172.699 224.196 172.703 224.533L169.093 224.649Z" fill="#432117"/>
<path d="M168.918 223.644V223.643L172.695 223.52V223.521L168.918 223.644Z" fill="#5A2D1A"/>
<path d="M169.092 224.649L172.702 224.533V224.535L169.092 224.649Z" fill="#5A2D1A"/>
<path d="M167.297 215.269C167.209 214.847 167.121 214.423 167.031 213.995L173.031 213.89C173.003 214.308 172.977 214.728 172.951 215.148L167.297 215.269Z" fill="#432117"/>
<path d="M167.031 213.995V213.993L173.031 213.89L167.031 213.995Z" fill="#5A2D1A"/>
<path d="M165.216 205.567C165.128 205.162 165.039 204.76 164.949 204.353L173.889 204.35C173.848 204.737 173.807 205.125 173.767 205.517L165.216 205.567Z" fill="#432117"/>
<path d="M164.949 204.353L173.889 204.35L164.949 204.353Z" fill="#5A2D1A"/>
<path d="M165.215 205.567L173.766 205.517L165.215 205.567Z" fill="#5A2D1A"/>
<path d="M163.181 196.405C163.106 196.069 163.033 195.735 162.958 195.4L174.861 195.248C174.829 195.583 174.796 195.921 174.761 196.266L163.181 196.405ZM161.096 186.919C161.001 186.48 160.908 186.044 160.814 185.609L175.113 185.657C175.165 186.048 175.202 186.466 175.229 186.907L161.096 186.919Z" fill="#432117"/>
<path d="M175.113 185.657L160.814 185.609L175.113 185.657Z" fill="#5A2D1A"/>
<path d="M161.096 186.92V186.919L175.229 186.907L161.096 186.92Z" fill="#5A2D1A"/>
<path d="M175.554 177.319L156.071 177.02C156.004 176.647 155.939 176.264 155.875 175.872H175.187C175.314 176.368 175.436 176.85 175.554 177.319Z" fill="#432117"/>
<path d="M175.555 177.32L156.072 177.021V177.02L175.555 177.319V177.32Z" fill="#5A2D1A"/>
<path d="M175.114 185.657L160.815 185.609C160.679 184.972 160.544 184.337 160.412 183.708C158.759 183.9 157.695 184.065 157.695 184.065C157.695 184.065 156.802 181.113 156.072 177.021L175.555 177.32C176.56 181.337 177.171 184.223 177.171 184.223C176.452 183.931 175.607 183.711 174.675 183.545C174.812 184.068 174.926 184.559 175.007 184.996C175.047 185.208 175.083 185.428 175.114 185.657Z" fill="#78381A"/>
<path d="M162.957 195.4L174.86 195.248L162.957 195.4Z" fill="#5B2817"/>
<path d="M162.958 195.4C162.321 192.536 161.693 189.692 161.096 186.92L175.229 186.907C175.36 189.125 175.178 191.959 174.861 195.248L162.958 195.4Z" fill="#78381A"/>
<path d="M163.18 196.405L174.76 196.266L163.18 196.405Z" fill="#5B2817"/>
<path d="M164.948 204.353C164.366 201.724 163.77 199.06 163.18 196.405L174.76 196.266C174.508 198.745 174.194 201.46 173.888 204.35L164.948 204.353Z" fill="#78381A"/>
<path d="M167.031 213.993C166.463 211.273 165.848 208.444 165.215 205.567L173.766 205.517C173.49 208.188 173.227 210.993 173.031 213.89L167.031 213.993Z" fill="#78381A"/>
<path d="M167.297 215.269L172.951 215.148V215.149L167.297 215.269Z" fill="#5B2817"/>
<path d="M168.918 223.643C168.458 221.047 167.906 218.229 167.297 215.269L172.951 215.149C172.787 217.88 172.688 220.683 172.696 223.52L168.918 223.643Z" fill="#78381A"/>
<path d="M170.25 233.459L173.226 233.453V233.455L170.25 233.459Z" fill="#5B2817"/>
<path d="M170.249 233.459C170.09 231.065 169.678 228.065 169.092 224.649L172.702 224.535C172.738 227.491 172.897 230.478 173.225 233.453L170.249 233.459Z" fill="#78381A"/>
<path d="M240.289 178.311L195.719 178.656L131.672 176.647L240.289 178.311Z" fill="#CF824E"/>
<path d="M240.393 186.852L193.402 187.984L130.746 187.056L240.393 186.852Z" fill="#CF824E"/>
<path d="M240.701 195.508L191.957 196.847L130.125 196.745L240.701 195.508Z" fill="#CF824E"/>
<path d="M243.176 205.091L190.825 206.02L129.818 205.707L243.176 205.091Z" fill="#CF824E"/>
<path d="M243.484 213.849L181.652 216.116L128.686 216.014L243.484 213.849Z" fill="#CF824E"/>
<path d="M243.947 222.401L184.281 224.721L128.221 225.908L243.947 222.401Z" fill="#CF824E"/>
<path d="M137.033 185.614C140.228 186.952 151.975 188.293 158.365 185.201L147.751 180.256L137.033 185.614Z" fill="#4D7A90"/>
<path d="M154.758 184.996C153.21 176.868 142.596 152.785 137.566 157.043C132.536 161.299 149.812 218.539 150.074 235.079H153.17C150.462 214.569 156.305 193.121 154.758 184.996Z" fill="#FAB988"/>
<path d="M155.529 184.996C153.981 176.868 142.594 152.785 137.565 157.043C135.172 159.067 137.824 173.071 141.293 188.984C145.904 188.389 150.333 189.562 151.2 194.116C152.696 201.971 149.512 215.185 151.665 234.614L153.169 235.079C150.461 214.569 157.076 193.121 155.529 184.996Z" fill="#F7936D"/>
<path d="M154.14 235.697C148.42 235.697 141.463 235.697 141.463 235.697C141.463 235.697 149.347 231.368 151.512 231.523C153.676 231.678 154.14 235.697 154.14 235.697Z" fill="#F7F2C0"/>
<path d="M251.912 213.556C257.364 215.32 263.996 217.462 263.996 217.462C263.996 217.462 257.807 210.912 255.695 210.392C253.584 209.873 251.912 213.556 251.912 213.556Z" fill="#F7F2C0"/>
<path d="M244.092 212.5C248.722 215.874 254.361 219.98 254.361 219.98C254.361 219.98 250.518 211.825 248.674 210.678C246.829 209.525 244.092 212.5 244.092 212.5Z" fill="#F7F2C0"/>
<path d="M137.445 184.065C137.445 184.065 151.201 181.904 156.921 184.223C156.921 184.223 150.212 152.467 144.554 152.844C128.324 153.924 137.445 184.065 137.445 184.065Z" fill="#7EBADA"/>
<path d="M156.921 184.223C156.921 184.223 154.449 170.053 150.557 161.545C151.194 169.357 151.171 178.573 151.106 183.203C153.335 183.312 155.409 183.609 156.921 184.223Z" fill="#61A5C3"/>
<path d="M137.033 185.615L136.105 181.593C136.105 181.593 146.208 177.781 157.541 180.873L158.365 185.201C158.365 185.201 149.501 183.141 137.033 185.615Z" fill="#CBEBF4"/>
<path d="M175.266 99.4614C175.266 99.4614 184.87 101.212 185.191 101.421L185.426 104.716L181.963 105.335C181.963 105.335 176.839 103.895 176.192 103.481C175.544 103.069 175.266 99.4614 175.266 99.4614Z" fill="#5D3926"/>
<path d="M174.959 98.9187C174.959 98.9187 184.666 99.9547 185.003 100.136L185.48 103.411L182.074 104.281C182.074 104.281 176.856 103.22 176.179 102.856C175.504 102.492 174.959 98.9187 174.959 98.9187Z" fill="#B4744B"/>
<path d="M224.521 123.06L226.273 119.197L219.936 115.281L218.441 116.773L224.521 123.06Z" fill="#EBE195"/>
<path d="M142.16 26.7854L145.484 27.0934L143.781 29.2587L142.005 29.952L141 28.6413L142.16 26.7854Z" fill="#ABE3ED"/>
<path d="M218.135 148.72L229.572 142.948L230.603 145.217L218.753 150.781L218.135 148.72Z" fill="#E65078"/>
<path d="M232.518 141.789L239.564 131.719L241.467 133.164L233.978 143.245L232.518 141.789Z" fill="#E65078"/>
<path d="M226.31 121.576L229.544 111.325C229.544 111.327 229.544 111.327 229.544 111.327L226.31 121.576ZM220.35 115.537L219.936 115.281L220.35 115.536L221.448 112.279L220.35 115.537Z" fill="#DD9F99"/>
<path d="M230.503 125.107C229.288 125.107 227.965 124.537 226.452 123.852C226.46 122.897 226.399 122.176 226.256 121.75L226.312 121.576V121.578C227.817 122.52 229.468 123.754 231.082 125.06C230.892 125.092 230.699 125.107 230.503 125.107Z" fill="#D59671"/>
<path d="M226.256 121.75C226.198 121.576 226.125 121.45 226.038 121.38C225.872 121.247 225.702 121.064 225.526 120.848L226.274 119.197L220.352 115.537L221.449 112.278L223.114 107.337C223.484 107.369 223.85 107.412 224.213 107.499C226.324 108.017 228.098 109.483 229.545 111.325L226.312 121.576L226.256 121.75Z" fill="#D04B3D"/>
<path d="M226.45 123.852C225.848 123.579 225.214 123.286 224.545 123.005L225.525 120.848C225.701 121.064 225.87 121.247 226.037 121.38C226.124 121.45 226.197 121.576 226.254 121.75C226.397 122.176 226.458 122.897 226.45 123.852Z" fill="#D59671"/>
<path d="M214.566 121.681C214.585 121.655 214.602 121.629 214.621 121.604C214.63 121.592 214.64 121.578 214.649 121.567C214.621 121.604 214.594 121.643 214.566 121.681ZM218.974 117.325L218.441 116.773L218.974 117.325Z" fill="#DD9F99"/>
<path d="M224.417 122.95C224.273 122.891 224.127 122.831 223.979 122.772C223.915 122.611 223.851 122.452 223.785 122.299L224.417 122.95ZM214.529 121.735C214.543 121.717 214.555 121.699 214.568 121.681C214.596 121.643 214.623 121.604 214.651 121.567C214.66 121.555 214.669 121.543 214.679 121.531C214.629 121.597 214.579 121.667 214.529 121.735ZM217.38 118.461C217.397 118.445 217.415 118.429 217.432 118.415L217.452 118.398C217.428 118.42 217.404 118.44 217.38 118.461ZM218.979 117.328L218.976 117.325L218.979 117.327C218.979 117.328 218.979 117.328 218.979 117.328Z" fill="#D59671"/>
<path d="M215.567 122.335C215.092 122.335 214.655 122.272 214.273 122.103C214.359 121.979 214.445 121.855 214.529 121.735C214.579 121.667 214.629 121.597 214.679 121.531C214.757 121.427 214.836 121.327 214.916 121.221C215.069 121.016 215.227 120.805 215.379 120.619L215.648 120.293C215.797 120.112 215.951 119.927 216.097 119.761L216.34 119.496C216.488 119.336 216.637 119.173 216.783 119.028L217.001 118.819C217.128 118.697 217.257 118.574 217.38 118.461C217.404 118.44 217.428 118.42 217.452 118.398L217.624 118.259C217.768 118.137 217.916 118.017 218.053 117.913L218.217 117.801C218.363 117.699 218.504 117.597 218.644 117.516L218.78 117.44L218.981 117.331L218.979 117.328C218.979 117.328 218.979 117.328 218.979 117.327L220.343 118.737C220.157 118.837 219.979 118.945 219.808 119.06C218.685 119.811 217.843 120.878 217.225 122.167C216.644 122.26 216.083 122.335 215.567 122.335Z" fill="#CC8C57"/>
<path d="M223.978 122.772C223.166 122.449 222.303 122.152 221.38 121.928C221.004 121.836 220.61 121.799 220.204 121.799C219.646 121.799 219.068 121.868 218.492 121.957C218.888 120.723 219.503 119.644 220.391 118.788L223.784 122.299C223.85 122.452 223.914 122.611 223.978 122.772ZM219.807 119.06C219.978 118.945 220.156 118.837 220.342 118.737C220.156 118.837 219.979 118.945 219.807 119.06Z" fill="#D59671"/>
<path d="M217.225 122.167C217.842 120.878 218.685 119.811 219.807 119.06C219.979 118.945 220.157 118.837 220.342 118.737L220.391 118.788C219.503 119.644 218.889 120.723 218.493 121.957C218.269 121.992 218.045 122.029 217.822 122.067C217.622 122.101 217.422 122.135 217.225 122.167Z" fill="#C68351"/>
<path d="M224.545 123.005C224.503 122.988 224.46 122.969 224.416 122.95L223.784 122.299L220.391 118.788L220.341 118.737L218.977 117.327L218.975 117.325L218.441 116.773L219.936 115.281L220.351 115.537L226.273 119.197L225.525 120.848L224.545 123.005Z" fill="#CC8C57"/>
<path d="M246.574 96.5774C249.624 94.6227 257.03 78.5747 247.032 72.892C242.361 70.24 231.104 67.2014 231.309 73.296C231.309 73.296 224.249 66.152 220.544 70.4987C216.832 74.844 217.424 78.3254 220.03 80.944C220.03 80.944 210.461 76.516 208.269 83.696C206.08 90.8694 210.918 93.6907 210.918 93.6907C210.918 93.6907 202.54 92.4947 206.916 107.196C208.904 113.873 224.86 112.459 224.86 112.459L246.574 96.5774Z" fill="#B05C2E"/>
<path d="M229.366 79.8827C218.056 79.8827 211.95 77.2547 209.621 81.304C209.057 81.9014 208.584 82.668 208.269 83.696C206.08 90.8694 210.918 93.6907 210.918 93.6907C210.918 93.6907 202.54 92.4947 206.916 107.196C208.904 113.873 224.86 112.459 224.86 112.459L246.574 96.5774C247.862 95.7534 249.925 92.4107 251.128 88.3974C246.581 91.1654 236.042 79.8827 229.366 79.8827Z" fill="#914920"/>
<path d="M244.577 113.029C241.269 117.369 234.639 121.061 224.306 114.191C213.971 107.317 218.617 98.1374 219.342 94.8734C220.065 91.6134 228.733 79.3134 239.913 80.6027C248.822 81.632 248.874 107.389 244.577 113.029Z" fill="#FBC68C"/>
<path d="M226.778 114.655C216.443 107.781 221.09 98.5973 221.815 95.3373C222.514 92.1867 230.626 80.6053 241.254 80.9853C240.83 80.7973 240.386 80.656 239.913 80.6027C228.733 79.3133 220.065 91.6133 219.342 94.8733C218.617 98.1373 213.971 107.317 224.306 114.191C227.834 116.536 230.923 117.633 233.603 117.908C231.538 117.34 229.267 116.311 226.778 114.655Z" fill="#F89F76"/>
<path d="M220.169 105.78L224.262 105.679C224.262 105.679 236.907 81.4027 227.305 80.6027C217.702 79.8027 215.363 92.8254 215.363 92.8254C215.363 92.8254 221.547 95.46 220.169 105.78Z" fill="#914920"/>
<path d="M218.504 107.056C216.39 104.439 211.175 99.2054 216.08 95.6254C219.27 93.296 221.836 101.891 220.168 105.78L218.504 107.056Z" fill="#F89F76"/>
<path d="M218.209 104.737C216.924 103.148 213.758 99.9653 216.736 97.7813C218.672 96.364 220.232 101.591 219.218 103.956L218.209 104.737Z" fill="#F07D61"/>
<path d="M218.523 105.359C217.606 104.223 215.346 101.949 217.472 100.392C218.856 99.3786 219.968 103.111 219.246 104.801L218.523 105.359Z" fill="#F89F76"/>
<path d="M228.026 80.296C233.28 86.788 246.987 88.7453 246.987 82.9733C246.987 77.2027 223.878 75.1747 228.026 80.296Z" fill="#B05C2E"/>
<path d="M117.143 125.74C117.143 125.74 118.588 121.514 119.72 122.647C120.853 123.78 118.071 126.668 118.071 126.668L117.143 125.74Z" fill="#4A3327"/>
<path d="M98.0781 103.686C98.0781 103.686 99.5235 99.4613 100.655 100.595C101.787 101.731 99.0035 104.615 99.0035 104.615L98.0781 103.686Z" fill="#4A3327"/>
<path d="M72.3125 75.8493C72.3125 75.8493 73.5165 72.024 74.4592 73.0493C75.4018 74.0773 73.0872 76.6893 73.0872 76.6893L72.3125 75.8493Z" fill="#4A3327"/>
<path d="M45.3145 47.3054C45.3145 47.3054 46.5172 43.4774 47.4598 44.5027C48.4025 45.5321 46.0878 48.1454 46.0878 48.1454L45.3145 47.3054Z" fill="#4A3327"/>
<path d="M21.6133 22.316C21.6133 22.316 22.4506 19.216 23.1066 20.048C23.7626 20.88 22.1533 22.9987 22.1533 22.9987L21.6133 22.316Z" fill="#4A3327"/>
<path d="M245.95 101.499C246.284 99.0839 245.245 98.5173 243.818 98.1959C242.362 97.8679 240.944 97.9519 240.469 100.44C239.97 103.047 241.28 103.24 242.849 103.513C244.385 103.778 245.6 104.029 245.95 101.499Z" fill="#D95521"/>
<path d="M231.634 98.4147C231.925 96.1267 233.258 95.756 234.656 96.0733C236.089 96.396 237.141 97.3787 236.962 99.7893C236.774 102.316 235.521 101.935 234.001 101.512C232.514 101.1 231.329 100.808 231.634 98.4147Z" fill="#D95521"/>
<path d="M245.937 101.601C246.272 99.1706 245.348 97.8906 243.904 97.5693C242.463 97.2413 241.042 97.9893 240.708 100.419C240.373 102.845 241.549 103.078 242.988 103.401C244.432 103.726 245.601 104.026 245.937 101.601Z" fill="#FFFAE9"/>
<path d="M236.812 99.376C236.983 96.924 235.911 95.6626 234.447 95.5293C232.985 95.3906 231.68 96.432 231.511 98.888C231.339 101.341 232.529 101.416 233.992 101.551C235.456 101.685 236.639 101.832 236.812 99.376Z" fill="#FFFAE9"/>
<path d="M246.963 98.6387C246.061 96.572 244.266 96.0453 243.843 96.1773L243.771 95.02C244.535 94.796 246.563 95.6147 247.569 97.9107L246.963 98.6387Z" fill="#AD543B"/>
<path d="M235.261 94.4213C233.362 94.1947 231.581 95.988 231.303 96.5667L230.607 95.9253C231.114 94.884 233.247 92.988 235.354 93.2453L235.261 94.4213Z" fill="#AD543B"/>
<path d="M245.465 101.428C245.601 100.44 245.169 99.5174 244.499 99.3667C243.831 99.216 243.179 99.896 243.042 100.883C242.909 101.869 243.337 102.795 244.003 102.945C244.675 103.097 245.326 102.419 245.465 101.428Z" fill="#7BABC7"/>
<path d="M244.928 100.907C244.988 100.456 244.792 100.037 244.488 99.9706C244.186 99.9013 243.888 100.211 243.823 100.659C243.764 101.109 243.959 101.528 244.267 101.596C244.568 101.663 244.867 101.357 244.928 100.907Z" fill="#9FD1E5"/>
<path d="M236.431 99.4454C236.567 98.4587 236.134 97.5347 235.467 97.3814C234.799 97.2334 234.146 97.9107 234.007 98.896C233.872 99.8854 234.306 100.813 234.971 100.963C235.639 101.115 236.294 100.437 236.431 99.4454Z" fill="#7BABC7"/>
<path d="M236.1 98.9681C236.161 98.5214 235.965 98.1014 235.661 98.0307C235.359 97.964 235.06 98.2721 234.997 98.7201C234.936 99.1681 235.135 99.5907 235.437 99.6587C235.74 99.7254 236.037 99.4201 236.1 98.9681Z" fill="#9FD1E5"/>
<path d="M238.299 106.869C237.399 106.623 236.811 105.919 236.866 105.228C236.767 105.345 236.688 105.473 236.642 105.617C236.406 106.381 237.03 107.226 238.038 107.502C239.043 107.779 240.051 107.384 240.287 106.623L240.328 106.379C239.922 106.872 239.111 107.093 238.299 106.869Z" fill="#F7936D"/>
<path d="M239.952 110.2C239.822 109.515 233.527 107.874 232.659 108.373C231.8 108.868 233.544 112.604 235.03 113.133C236.515 113.671 240.199 111.489 239.952 110.2Z" fill="#4D2521"/>
<path d="M239.311 110.147C239.2 109.576 233.962 108.211 233.239 108.621C232.967 108.779 233.008 109.323 233.227 109.96L238.259 111.632C238.922 111.148 239.394 110.587 239.311 110.147Z" fill="#FEF0F1"/>
<path d="M130.384 139.467C129.417 135.314 133.172 133.724 135.731 135.543C138.291 137.364 138.688 137.986 138.688 137.986L138.916 140.717C138.916 140.717 136.584 141.173 135.048 139.808C134.764 139.555 136.061 141.474 134.879 141.971C132.432 142.993 130.647 140.589 130.384 139.467Z" fill="#FAB988"/>
<path d="M134.138 138.16C133.853 137.908 134.582 140.166 133.398 140.661C132.493 141.039 131.696 140.995 131.037 140.731C131.55 142.111 133.609 142.988 135.304 142.281C136.488 141.786 134.764 139.555 135.048 139.808C136.584 141.173 139.568 140.789 139.568 140.789L139.654 139.509C138.289 138.997 135.433 139.311 134.138 138.16Z" fill="#F7936D"/>
<path d="M136.468 139.467C136.468 138.744 135.997 138.16 135.417 138.16C134.835 138.16 134.365 138.744 134.365 139.467C134.365 140.189 134.835 140.776 135.417 140.776C135.997 140.776 136.468 140.189 136.468 139.467Z" fill="#4A3327"/>
<path d="M244.529 146.348C245.609 145.895 246.463 144.519 246.633 143.732C247.06 141.769 249.136 142.069 250.045 142.24C250.956 142.411 252.136 145.311 250.685 145.908C249.533 146.381 249.912 143.735 249.193 144.017C246.206 145.183 250.457 146.933 244.564 147.809C238.67 148.68 244.529 146.348 244.529 146.348Z" fill="#FBC68C"/>
<path d="M249.832 144.543C249.832 143.953 249.365 143.478 248.786 143.478C248.21 143.478 247.742 143.953 247.742 144.543C247.742 145.132 248.21 145.609 248.786 145.609C249.365 145.609 249.832 145.132 249.832 144.543Z" fill="#D6B19C"/>
<path d="M249.601 146.704C249.958 146.081 249.273 145.916 248.504 145.457C247.737 145.001 247.178 144.417 246.821 145.044C246.464 145.671 246.798 146.552 247.568 147.012C248.336 147.468 249.248 147.331 249.601 146.704Z" fill="#FBC68C"/>
<path d="M256.458 126.766C256.933 126.089 257.346 125.574 256.957 125.316C256.566 125.057 255.865 125.391 255.39 126.065C254.914 126.74 254.849 127.496 255.238 127.756C255.629 128.017 255.983 127.437 256.458 126.766Z" fill="#FBC68C"/>
<path d="M259.897 126.874C259.897 126.391 259.473 126.073 258.653 126.073C257.831 126.073 257.168 126.468 257.168 126.953C257.168 127.437 257.737 127.48 258.556 127.48C259.377 127.48 259.897 127.364 259.897 126.874Z" fill="#FBC68C"/>
<path d="M259.217 128.028C259.217 127.541 258.79 127.224 257.972 127.224C257.15 127.224 256.486 127.619 256.486 128.104C256.486 128.591 257.056 128.632 257.876 128.632C258.696 128.632 259.217 128.515 259.217 128.028Z" fill="#FBC68C"/>
<path d="M258.397 128.916C258.305 128.437 257.825 128.208 257.023 128.367C256.216 128.524 255.64 129.04 255.735 129.515C255.828 129.992 256.395 129.924 257.199 129.766C258.003 129.608 258.492 129.392 258.397 128.916Z" fill="#FBC68C"/>
<path d="M73.0691 184.335L72.4717 184.004C72.5304 183.897 78.3037 173.312 77.1624 158.395C76.1077 144.625 68.773 124.236 39.8237 105.287C10.625 86.1747 2.30641 59.4227 0.469081 40.3466C-1.52025 19.692 3.45842 3.32666 3.50775 3.16399L4.48907 -1.52588e-05L4.17442 3.29866C2.84642 17.1427 22.0504 22.616 22.2424 22.668L22.4784 22.736L22.493 22.9787C23.7117 43.528 45.925 47.768 46.149 47.8093L46.4224 47.8573L46.4304 48.1347C47.0317 70.248 72.1264 75.4626 72.3797 75.5133L72.6438 75.5667L72.6544 75.836C73.541 98.364 99.8157 103.817 100.081 103.871L100.332 103.92L100.353 104.178C102.654 132.036 118.925 137.389 128.418 138.101L128.368 138.781C118.686 138.056 102.116 132.629 99.6957 104.484C96.9557 103.859 73.0277 97.7626 71.9837 76.1266C69.2637 75.5 46.5224 69.624 45.757 48.424C43.173 47.8626 23.1504 42.8786 21.8264 23.2573C19.741 22.6187 4.52903 17.5587 3.48236 5.93466C2.1877 11.3067 -0.370968 24.5453 1.1517 40.3066C2.97703 59.224 11.2344 85.7573 40.1984 104.716C69.3997 123.828 76.7891 144.447 77.8451 158.379C78.9904 173.492 73.1277 184.228 73.0691 184.335Z" fill="#7E514A"/>
</svg>
