<svg width="198" height="275" viewBox="0 0 198 275" fill="none" xmlns="http://www.w3.org/2000/svg">
<path d="M135.943 221.224C135.659 221.929 138.335 224.494 137.766 227.153C137.664 227.605 137.462 228.292 137.283 228.983C136.967 230.211 137.227 231.591 137.812 231.594C138.303 231.591 138.076 230.596 138.282 229.717C138.466 228.948 138.506 228.679 138.72 228.7C138.868 228.719 138.847 229.72 138.867 230.84C138.886 232.283 139.163 233.227 139.759 233.207C140.323 233.184 140.034 232.258 140.152 230.962C140.259 229.827 140.228 229.335 140.795 229.303C141.063 229.282 141.088 230.034 141.392 231.174C141.748 232.499 142.327 233.26 142.787 233.125C143.446 232.939 142.804 232.429 142.616 230.86C142.376 228.841 141.848 226.959 142.594 225.884C143.288 224.894 145.796 226.024 145.834 225.032C145.862 224.253 143.435 224.168 140.499 223.731C138.139 223.387 136.24 220.474 135.943 221.224Z" fill="#FAB988"/>
<path d="M92.0111 147.015C92.3538 147.906 89.9458 149.484 90.6751 152.877C90.8058 153.456 91.0565 154.331 91.2791 155.207C91.6765 156.772 91.4391 158.577 90.7885 158.631C90.2458 158.671 90.4605 157.366 90.1978 156.246C89.9671 155.263 89.9111 154.918 89.6738 154.966C89.5111 155 89.5685 156.299 89.5898 157.752C89.6245 159.618 89.3498 160.868 88.6898 160.888C88.0592 160.913 88.3471 159.684 88.1685 158.012C88.0098 156.556 88.0218 155.918 87.3912 155.92C87.0938 155.92 87.0925 156.889 86.7978 158.399C86.4525 160.148 85.8365 161.183 85.3218 161.048C84.5831 160.863 85.2792 160.148 85.4258 158.098C85.6178 155.462 86.1351 152.975 85.2658 151.65C84.4565 150.426 81.7138 152.105 81.6338 150.824C81.5738 149.818 84.2685 149.498 87.5111 148.682C90.1191 148.038 91.6525 146.07 92.0111 147.015Z" fill="#F7936D"/>
<path d="M190.914 178.015L186.734 203.352C187.656 203.968 192.524 202.272 193.474 199.513C194.214 197.366 194.669 183.219 190.914 178.015Z" fill="#853440"/>
<path d="M184.209 168.353L191.512 180.916C192.621 180.916 195.324 178.876 194.584 176.052C194.006 173.856 191.277 169.015 184.209 168.353Z" fill="#853440"/>
<path d="M16.8855 131.239C15.2242 133.028 9.19888 130.372 5.38021 122.84C1.56288 115.307 -2.78779 103.148 4.82821 96.7696C12.4455 90.3962 16.8855 131.239 16.8855 131.239Z" fill="#6D2732"/>
<path d="M4.85305 97.1416C2.46372 97.6523 -0.948287 92.0229 0.24638 83.6616C1.43971 75.3016 4.85305 62.8456 14.749 61.9923C24.645 61.1403 4.85305 97.1416 4.85305 97.1416Z" fill="#6D2732"/>
<path d="M180.955 160.119C179.807 148.122 172.917 138.698 164.254 135.935C164.254 135.935 180.619 125.36 187.927 138.318C196.418 153.372 180.955 160.119 180.955 160.119Z" fill="#91C9E0"/>
<path d="M177.305 142.11C173.214 139.903 170.373 136.59 169.447 133.411C166.386 134.563 164.254 135.935 164.254 135.935C172.917 138.698 179.807 148.122 180.955 160.119C180.955 160.119 192.87 154.915 190.033 143.459C186.829 144.986 181.917 144.596 177.305 142.11Z" fill="#71B0C5"/>
<path d="M159.072 141.952C155.31 135.03 148.465 118.872 152.553 117.842C168.818 113.747 177.297 145.517 177.297 145.517L159.072 141.952Z" fill="#65A5BD"/>
<path d="M158.646 142.807C154.886 135.882 148.039 119.724 152.127 118.695C168.392 114.6 176.871 146.371 176.871 146.371L158.646 142.807Z" fill="#478295"/>
<path d="M137.851 224.823C130.337 213.728 126.44 205.851 128.868 201.95C131.292 198.05 137.725 192.98 142.884 189.316L145.101 193.031C145.101 193.031 132.671 201.353 131.828 204.531C130.559 209.316 138.611 223.336 138.611 223.336L137.851 224.823Z" fill="#FAB988"/>
<path d="M132.521 203.296C135.292 199.6 145.101 193.031 145.101 193.031L142.884 189.316C138.094 192.715 132.213 197.327 129.453 201.093C130.4 201.474 131.445 202.227 132.521 203.296Z" fill="#F7936D"/>
<path d="M153.945 167.928C150.499 168.543 139.34 163.688 148.763 158.035C158.185 152.382 188.411 156.534 191.635 157.094C197.053 158.035 202.235 171.463 186.924 168.872C171.612 166.279 160.541 166.752 153.945 167.928Z" fill="#BAC226"/>
<path d="M188.613 163.398C188.613 160.86 189.908 158.607 191.915 157.159L191.635 157.094C188.411 156.534 158.185 152.382 148.763 158.035C139.34 163.688 150.499 168.543 153.945 167.928C160.541 166.752 171.612 166.279 186.924 168.872C188.645 169.164 190.095 169.244 191.328 169.17C189.661 167.727 188.613 165.677 188.613 163.398Z" fill="#9FA221"/>
<path d="M156.984 216.562C165.566 217.548 183.931 225.274 187.727 210.676C191.416 196.495 196.627 168.684 184.21 168.353C171.983 168.028 148.963 161.835 146.618 176.396C144.463 189.788 139.964 214.608 156.984 216.562Z" fill="#6D2934"/>
<path d="M184.59 168.353C177.891 168.177 167.987 166.276 159.947 166.9C164.581 167.332 169.071 167.916 172.647 168.012C185.185 168.343 179.923 196.153 176.199 210.335C174.87 215.398 171.771 217.77 167.93 218.676C176.334 220.211 185.565 220.494 188.143 210.676C191.867 196.495 197.129 168.684 184.59 168.353Z" fill="#853440"/>
<path d="M188.27 182.336C183.379 185.979 182.126 183.705 182.24 179.152C182.355 174.603 178.714 167.893 176.098 172.782C176.098 172.782 179.396 176.879 177.804 181.541C176.212 186.205 183.322 188.82 188.27 182.336Z" fill="#6D2934"/>
<path d="M185.57 204.638C179.398 208.651 179.159 204.811 181.17 197.943C183.183 191.076 182.527 179.768 177.995 186.38C177.995 186.38 179.419 193.616 175.955 200.196C172.491 206.777 178.155 212.944 185.57 204.638Z" fill="#6D2934"/>
<path d="M159.571 235.805C168.794 237.15 179.422 238.194 185.12 231.186C190.82 224.174 187.651 214.422 163.33 218.058C147.375 220.446 159.571 235.805 159.571 235.805Z" fill="#D95521"/>
<path d="M175.474 231.591C175.474 225.103 178.936 219.783 183.359 219.194C179.643 217.319 173.244 216.576 163.33 218.058C147.375 220.446 159.571 235.805 159.571 235.805C165.032 236.599 170.978 237.276 176.11 236.253C175.702 234.811 175.474 233.24 175.474 231.591Z" fill="#C73F21"/>
<path d="M17.7446 65.4843C12.2206 51.539 21.262 12.463 41.8753 1.42299C43.5833 0.508324 78.31 3.24432 86.634 10.575C88.5326 12.247 76.9966 57.7523 65.5566 65.5203C54.1206 73.2936 17.7446 65.4843 17.7446 65.4843Z" fill="#919623"/>
<path d="M41.0276 0.126949C23.757 9.54562 15.3196 40.2603 16.5396 57.6429C22.2663 56.2376 25.9263 56.7643 28.2276 56.9883C28.8383 39.2416 53.309 5.34695 43.925 2.27495C45.0676 1.65095 71.2636 5.62695 84.5783 9.11095C73.7143 2.70028 42.581 -0.718384 41.0276 0.126949Z" fill="#BAC226"/>
<path d="M57.9141 64.5522C57.9141 64.5522 78.5274 11.9363 67.7261 3.32025L70.798 3.49359C70.798 3.49359 81.4034 11.2616 60.4167 64.3256L57.9141 64.5522Z" fill="#6D2732"/>
<path d="M42.8592 139.13C39.8912 145.446 21.4032 151.972 16.5592 144.315C9.10991 132.536 -2.33009 86.203 10.0406 65.6376C14.7059 57.879 35.0232 58.1896 51.9366 61.8683C98.4899 71.9976 45.1859 134.184 42.8592 139.13Z" fill="#6D2732"/>
<path d="M29.3257 144.998C21.787 133.219 10.211 86.8843 22.7297 66.3189C25.255 62.1683 32.3137 60.3296 40.9497 60.0763C26.851 58.4016 13.0643 59.4629 9.30833 65.6376C-3.21166 86.2029 8.36433 132.538 15.903 144.315C18.499 148.368 24.9617 148.444 30.9177 146.686C30.2963 146.223 29.755 145.665 29.3257 144.998Z" fill="#853440"/>
<path d="M2.63281 95.775L19.1968 95.4337L19.5248 98.1643L2.79681 99.359L2.63281 95.775Z" fill="#6D2732"/>
<path d="M53.1217 167.872C50.1163 174.184 39.6963 176.113 34.2777 168.812C28.859 161.51 25.3257 140.759 48.175 140.311C60.1883 140.074 55.4763 162.924 53.1217 167.872Z" fill="#578A9F"/>
<path d="M48.1756 140.311C38.0357 140.508 33.0983 144.707 31.209 149.953C31.361 149.905 31.497 149.852 31.6517 149.805C42.2823 146.579 44.509 166.217 44.0543 173.467C47.9223 173.27 51.545 171.186 53.1223 167.872C55.477 162.924 60.189 140.074 48.1756 140.311Z" fill="#416F7F"/>
<path d="M108.007 116.286C113.445 109.914 94.772 65.5016 80.7773 66.4003C80.7773 66.4003 80.9707 96.6509 87.512 103.328C91.644 107.54 101.071 124.411 108.007 116.286Z" fill="#FABD42"/>
<path d="M98.08 81.9216C92.8067 73.0309 86.4133 66.0376 80.7773 66.4002C80.7773 66.4002 80.9707 96.6509 87.512 103.328C91.1827 107.072 99.0373 120.799 105.608 118.106C94.8587 103.632 100.059 90.3162 98.08 81.9216Z" fill="#F89B36"/>
<path d="M91.244 119.324C89.7506 113.528 100.205 99.1029 113.065 109.612L111.06 113.099L114.057 111.04C114.057 111.04 116.137 124.739 94.5586 122.326L91.244 119.324Z" fill="#FBDA68"/>
<path d="M82.8026 65.0483L79.4453 66.8163C96.5586 75.6749 91.1573 110.258 85.0386 122.851L85.9306 124.003C103.713 100.842 98.7026 64.8723 82.8026 65.0483Z" fill="#A03E52"/>
<path d="M92.8773 71.5616C90.4173 67.4829 86.9933 65.0003 82.8026 65.0483L79.4453 66.8163C84.604 69.4843 87.7053 74.5016 89.3706 80.5389C89.8706 76.5709 91.168 73.3056 92.8773 71.5616Z" fill="#853440"/>
<path d="M95.7071 98.1643C93.8337 98.1643 92.1457 96.4829 90.9497 93.8003C90.9111 105.016 88.0657 116.622 85.0391 122.851L85.9311 124.003C91.9417 116.174 95.3391 106.884 96.6017 98.0203C96.3097 98.1029 96.0111 98.1643 95.7071 98.1643Z" fill="#853440"/>
<path d="M88.4043 149.143C92.951 139.031 89.4963 119.818 93.0056 113.512C96.5123 107.21 108.612 105.94 109.112 114.95C109.542 122.608 92.3376 145.955 90.847 149.498L88.4043 149.143Z" fill="#FBC68C"/>
<path d="M101.016 116.49C102.894 114.326 105.935 113.219 108.835 113.23C106.96 106.151 96.2683 107.648 93.0056 113.512C89.4963 119.818 92.951 139.031 88.4043 149.143L89.923 149.364C95.7816 140.004 96.4683 121.74 101.016 116.49Z" fill="#F7936D"/>
<path d="M89.1645 136.424C81.0365 128.295 51.3565 131.83 47.8232 144.198C44.2899 156.562 55.2419 209.919 55.2419 213.451C55.2419 216.986 52.1819 227.338 52.1819 232.651C52.1819 240.659 58.3059 254.792 60.4259 273.872H64.6659C59.2485 233.358 68.3512 167.276 71.1445 166.811C73.2632 166.459 81.8339 210.165 82.0979 213.334C82.8045 221.815 79.5072 221.815 79.9792 230.532C80.5699 241.476 91.2845 273.872 91.2845 273.872H95.0539C87.5379 247.564 92.4632 189.78 89.1645 136.424Z" fill="#5F5047"/>
<path d="M57.7441 213.451C57.7441 209.919 50.1735 170.931 53.7081 158.564C53.9028 157.882 88.6281 157.882 89.8801 150.715C93.6308 140.074 53.2588 120.519 46.4841 144.232C42.9508 156.596 54.6735 210.14 54.6735 213.675C54.6735 217.207 52.1815 227.338 52.1815 232.651C52.1815 240.659 58.3055 254.792 60.4255 273.872H62.9281C60.8081 254.792 54.6841 240.659 54.6841 232.651C54.6841 227.338 57.7441 216.986 57.7441 213.451Z" fill="#4F3E35"/>
<path d="M84.5997 213.334C84.3357 210.165 74.7091 164.582 72.5891 164.935C72.2984 164.984 71.9504 165.772 71.5664 167.177C74.2117 171.311 81.0424 211.199 81.2904 214.187C81.9971 222.667 79.1131 222.703 79.5851 231.42C80.1758 242.364 91.2838 273.872 91.2838 273.872H93.7864C93.7864 273.872 83.0718 241.476 82.4798 230.532C82.0091 221.815 85.3064 221.815 84.5997 213.334Z" fill="#4F3E35"/>
<path d="M66.2754 164.365C68.1527 165.047 72.5887 165.56 78.3901 162.659C78.3901 162.659 76.1274 167.198 71.5647 167.436C68.3234 167.607 66.2754 164.365 66.2754 164.365Z" fill="#4F3E35"/>
<path d="M47.8491 153.105C50.1771 156.503 89.9931 156.062 90.5771 148.791C91.6718 135.171 93.9331 75.3843 87.5731 68.6683C81.2131 61.9563 45.3238 55.7923 34.3704 72.4003C23.4171 89.007 43.2558 146.388 47.8491 153.105Z" fill="#FABD42"/>
<path d="M90.6744 147.416C87.8317 147.305 81.6891 146.96 82.4851 134.448C83.2824 121.936 82.5984 79.2816 76.3438 64.1523L87.1491 68.1363C87.1491 68.1363 92.8357 136.38 90.6744 147.416Z" fill="#F7A138"/>
<path d="M85.4419 133.087C80.4366 135.571 74.0659 138.298 74.6352 140.463C75.2046 142.627 81.8019 139.58 87.0339 139.58C90.6859 139.58 85.4419 133.087 85.4419 133.087Z" fill="#F7A138"/>
<path d="M54.2303 134.299C59.6343 135.271 66.7916 136.582 68.6076 134.451C70.5117 132.216 62.5797 134.451 56.209 129.447C53.845 127.867 54.2303 134.299 54.2303 134.299Z" fill="#F7A138"/>
<path d="M53.8205 152.65C49.2272 145.935 30.0472 84.2856 41.0005 67.6789C41.9325 66.2656 43.0672 65.0323 44.3459 63.9389C39.6005 65.5896 35.5579 68.2069 32.9805 72.1149C22.0272 88.7216 42.1685 147.024 46.7619 153.736C49.0352 157.058 87.9952 156.808 90.4432 149.327C80.7792 156.062 55.5032 155.105 53.8205 152.65Z" fill="#F7A138"/>
<path d="M50.9765 150.486C50.9765 150.486 59.2805 148.895 60.8725 145.823C62.1312 143.395 59.5072 124.44 59.5072 124.44L41.4219 130.924L50.9765 150.486Z" fill="#F7A138"/>
<path d="M42.5215 148.553C43.8762 150.812 60.4242 146.671 62.0735 143.136C62.8988 141.371 63.8122 121.054 62.5442 101.443C61.2775 81.8296 57.8322 62.927 57.1255 62.1016C55.7122 60.455 33.7548 64.019 30.5068 71.0536C20.6148 92.4883 40.4002 145.022 42.5215 148.553Z" fill="#D95521"/>
<path d="M40.5101 64.835C34.9248 66.4336 31.9995 67.8203 30.5075 71.0536C20.6141 92.4883 40.3995 145.022 42.5208 148.554C43.1141 149.54 46.6155 149.306 50.5035 148.43C33.7995 125.123 61.6675 78.259 40.5101 64.835Z" fill="#CE4720"/>
<path d="M92.1646 143.312C91.0606 145.472 85.2752 144.55 84.5686 140.311C84.2112 138.162 84.6926 119.108 84.0379 100.028C83.0366 70.8176 75.5246 63.5123 77.3846 63.0456C81.1539 62.1042 86.5939 65.0136 89.8672 69.1696C95.9926 76.9429 97.1126 133.654 92.1646 143.312Z" fill="#D95521"/>
<path d="M86.9115 66.2083C83.8528 63.7549 80.1662 62.3509 77.3848 63.0456C76.1782 63.3469 78.9128 66.5363 81.2582 76.6936C82.7968 72.2696 84.7235 68.6736 86.9115 66.2083Z" fill="#CE4720"/>
<path d="M84.4258 135.347C84.4391 137.976 84.4751 139.74 84.5698 140.311C85.2764 144.55 91.0618 145.472 92.1658 143.314C92.3031 143.046 92.4324 142.731 92.5604 142.395C89.5484 141.835 86.7658 139.314 84.4258 135.347Z" fill="#CE4720"/>
<path d="M59.2461 60.8069L65.2541 41.1376L76.6781 47.8509L75.3834 60.5722C75.3834 60.5722 67.3728 65.9882 59.2461 60.8069Z" fill="#F07D61"/>
<path d="M56.0391 61.3109L58.7684 58.6656L70.7897 61.8683L63.5457 69.0736L56.0391 61.3109Z" fill="#FCD462"/>
<path d="M78.4098 63.471L76.1231 59.9217L66.4805 61.7657L73.2071 69.6843L78.4098 63.471Z" fill="#FCD462"/>
<path d="M13.5511 129.946C7.27244 124.776 20.6178 80.7123 31.9244 69.6417C40.1671 64.459 48.6471 88.015 36.6338 113.456C32.6471 121.896 21.5591 136.54 13.5511 129.946Z" fill="#FABD42"/>
<path d="M31.9246 69.6417C30.5046 71.0337 29.0513 72.9443 27.6113 75.235C33.1673 74.051 40.4073 90.5403 34.3433 109.778C30.618 121.596 25.7886 116.51 18.3326 119.492C11.5086 122.222 16.6006 103.902 20.4366 89.799C13.7686 106.38 9.4273 126.548 13.5513 129.946C21.5593 136.54 32.6473 121.896 36.634 113.456C48.6473 88.015 40.1673 64.459 31.9246 69.6417Z" fill="#F89B36"/>
<path d="M30.8718 124.526C30.1052 119.236 13.8678 110.351 5.00117 123.006L8.39984 125.312L4.5625 124.499C4.5625 124.499 7.84251 136.562 28.7025 128.032L30.8718 124.526Z" fill="#FBDA68"/>
<path d="M49.3055 151.428C40.4122 144.443 34.5709 125.719 28.4095 121.667C22.2482 117.615 10.5895 121.927 14.3509 130.199C17.5469 137.234 44.2162 150.351 47.2402 152.843L49.3055 151.428Z" fill="#FBC68C"/>
<path d="M17.8739 130.048C15.5165 124.598 19.7099 120.964 24.5979 120.26C18.4939 119.33 10.9072 123.484 13.9792 130.242C17.1752 137.274 44.2152 150.351 47.2392 152.843L48.4565 152.008C41.6139 147.716 20.5885 136.33 17.8739 130.048Z" fill="#F7936D"/>
<path d="M38.1036 62.751L30.6836 66.1057C47.1143 76.179 38.0063 110.662 30.9969 122.784L31.8036 123.998C51.2089 102.176 51.3542 67.8737 38.1036 62.751Z" fill="#853440"/>
<path d="M70.082 24.283C70.082 24.283 109.485 29.0736 113.819 19.2976C117.946 9.99364 90.098 12.591 87.0127 13.5016C83.9274 14.4136 70.082 24.283 70.082 24.283Z" fill="#7D3E42"/>
<path d="M69.8379 24.2403C69.8379 24.2403 109.101 30.055 113.689 20.3963C118.058 11.2017 90.1512 13.0723 87.0432 13.9043C83.9339 14.7363 69.8379 24.2403 69.8379 24.2403Z" fill="#B87071"/>
<path d="M78.055 62.9203L76.123 59.9216L78.0564 62.9203C78.0564 62.9203 78.0564 62.9203 78.055 62.9203Z" fill="#DD9F99"/>
<path d="M68.3235 72.7562C66.5062 72.7562 64.5155 72.3936 62.3501 71.5469C61.0968 71.0576 59.9275 70.4922 58.8395 69.8749C58.2261 66.3216 57.6888 63.7709 57.3555 62.6736L63.5448 69.0736L68.4995 64.1442L73.2061 69.6842L76.8141 65.3749C77.1861 66.4029 77.5368 67.5322 77.8661 68.7482C75.4995 70.9936 72.3302 72.7562 68.3235 72.7562Z" fill="#DD7429"/>
<path d="M77.8684 68.7483C77.5391 67.5323 77.1884 66.403 76.8164 65.375L77.4084 64.6683C77.6884 65.4309 78.1337 66.4976 78.6671 67.9403C78.4124 68.2149 78.1457 68.4843 77.8684 68.7483Z" fill="#D96223"/>
<path d="M58.8396 69.875C54.8649 67.619 51.9703 64.6657 50.0156 62.1763C51.9756 61.867 53.7076 61.707 54.9783 61.707C55.6356 61.707 56.1703 61.7497 56.5476 61.8377L57.3556 62.6737C57.6889 63.771 58.2263 66.3217 58.8396 69.875Z" fill="#BA3721"/>
<path d="M78.6649 67.9403C78.1316 66.4976 77.6863 65.431 77.4062 64.6683L78.4089 63.471L78.0543 62.9203C78.0556 62.9203 78.0556 62.9203 78.0556 62.9203L78.0583 62.9243L78.3489 62.899L78.6063 62.883C78.7223 62.879 78.8383 62.8763 78.9556 62.8763C79.1569 62.8763 79.3596 62.8843 79.5662 62.9016L79.6289 62.9043C79.9822 62.9363 80.3436 63.0003 80.7089 63.079L80.9489 63.135C81.2503 63.2043 81.5543 63.2936 81.8596 63.395C81.1143 64.8256 80.0516 66.451 78.6649 67.9403Z" fill="#B03021"/>
<path d="M75.7656 56.835L76.519 49.431L75.7656 56.835Z" fill="#DD9F99"/>
<path d="M68.7663 61.3282L59.8184 58.9456L65.2557 41.1376L75.2023 46.9829C75.6557 47.7802 76.0944 48.5989 76.5184 49.4309L75.765 56.8349L75.437 60.0522L68.7663 61.3282Z" fill="#D04B3D"/>
<path d="M63.5457 69.0736L57.3564 62.6736L56.5484 61.8376L56.0391 61.3109L58.7684 58.6656L59.8164 58.9456H59.8177L68.7657 61.3283L66.4804 61.7656L68.5004 64.1443L63.5457 69.0736Z" fill="#DC843C"/>
<path d="M73.2071 69.6843L68.5005 64.1443L66.4805 61.7657L68.7658 61.3283L75.4365 60.0523L76.1231 59.9217L78.0551 62.9203L78.4098 63.471L77.4071 64.6683L76.8151 65.375L73.2071 69.6843Z" fill="#DC843C"/>
<path d="M65.1577 45.1389C63.5243 39.7803 61.7257 21.6923 73.0097 16.6963C75.931 6.49892 100.495 14.5256 102.531 17.2123C104.564 19.9056 101.384 27.9789 93.7963 34.8189C86.2056 41.6509 65.1577 45.1389 65.1577 45.1389Z" fill="#A84129"/>
<path d="M95.2818 20.0203C95.9631 20.8736 99.3764 28.7189 95.0538 33.9523L91.9258 22.2949L95.2818 20.0203Z" fill="#842F22"/>
<path d="M84.3652 21.1909C78.9372 18.4949 73.7239 19.7296 72.8186 16.7162C56.6919 12.2802 62.2012 35.4429 65.1572 45.1389C65.1572 45.1389 79.2893 43.2323 86.8799 36.3976C89.7919 33.7709 91.3706 31.2576 92.1039 28.9963C89.4306 28.7069 87.5572 22.7736 84.3652 21.1909Z" fill="#842F22"/>
<path d="M66.2792 39.9963C66.4486 36.6016 64.3032 33.1349 61.9579 34.3016C59.6152 35.4696 57.9512 39.3149 63.9459 43.7976C69.9352 48.2843 66.2792 39.9963 66.2792 39.9963Z" fill="#FBC68C"/>
<path d="M65.8647 39.8923C65.9807 37.4643 64.4541 34.987 62.7807 35.8203C61.1034 36.655 59.9167 39.4017 64.1967 42.603C68.4741 45.8083 65.8647 39.8923 65.8647 39.8923Z" fill="#F07D61"/>
<path d="M66.5021 41.4469C66.5888 39.6123 65.4315 37.7416 64.1688 38.3709C62.9008 39.0016 62.0061 41.0763 65.2408 43.4963C68.4741 45.9203 66.5021 41.4469 66.5021 41.4469Z" fill="#FBC68C"/>
<path d="M79.1643 63.819C79.1643 63.819 86.6536 52.127 90.223 45.3896C91.0976 43.7203 90.6549 40.583 91.7976 39.047C92.9336 37.503 93.8963 37.8363 95.0803 36.3296C97.2603 33.5603 94.8963 23.6777 92.3109 21.031C90.0616 18.735 78.9043 17.299 76.2789 20.023C63.3949 33.423 64.4843 43.3843 64.7989 46.523C64.9869 48.399 65.9269 57.1163 79.1643 63.819Z" fill="#FBC68C"/>
<path d="M91.7972 39.0469C92.9332 37.5029 93.8959 37.8362 95.0799 36.3296C95.5333 35.7602 89.8319 32.2416 87.0399 40.2522C85.4092 44.9496 85.1346 49.2976 87.2666 50.6362C88.3652 48.7629 89.3986 46.9402 90.2226 45.3896C91.0973 43.7202 90.6546 40.5829 91.7972 39.0469Z" fill="#F7936D"/>
<path d="M72.4718 39.8203C68.8584 27.123 63.9478 43.115 64.2624 46.259C64.4478 48.1323 65.9278 57.1163 79.1651 63.819C79.1651 63.819 84.7144 55.9576 86.8798 51.1936C76.1158 44.7363 72.9518 41.5056 72.4718 39.8203Z" fill="#CCA682"/>
<path d="M80.4041 58.7109C79.4121 58.0523 77.9908 58.4389 77.2308 59.5776C76.4695 60.7149 76.7095 62.1936 77.6321 62.9443C81.8508 66.3709 82.6748 60.2203 80.4041 58.7109Z" fill="#CCA682"/>
<path d="M66.0635 47.0523C65.8435 44.8856 68.1182 36.6016 70.7302 35.8456C67.4689 31.7536 63.9982 43.6003 64.2622 46.259C64.4476 48.1323 65.9275 57.1163 79.1649 63.819L79.2596 63.683C67.6182 57.1056 66.2409 48.8416 66.0635 47.0523Z" fill="#B88F6F"/>
<path d="M65.4822 40.2736L72.3902 39.7349C70.5289 31.9136 81.7929 17.7242 76.3795 19.2789C69.6529 21.2069 65.0195 35.2936 65.0195 35.2936C65.0195 35.2936 66.6889 37.3829 65.4822 40.2736Z" fill="#842F22"/>
<path d="M80.2431 48.1509C78.6564 49.9696 77.8111 53.4002 80.4684 54.5962C83.7191 56.0562 86.0391 51.7962 86.0391 51.7962L80.2431 48.1509Z" fill="#40221A"/>
<path d="M80.5241 48.8043C79.1201 50.4229 79.2014 50.5403 81.7987 52.3763C84.5107 54.2963 85.4774 51.8656 85.4774 51.8656L80.5241 48.8043Z" fill="#FCE5DD"/>
<path d="M90.1556 35.7256C89.3783 35.5149 90.1876 33.0363 91.5956 33.0896C93.0036 33.1483 95.9876 34.8136 95.8063 35.8083C95.6223 36.8029 95.0516 38.0216 94.381 37.5763C93.7116 37.1309 91.993 36.2243 90.1556 35.7256Z" fill="#A84129"/>
<path d="M86.09 34.0337C87.046 34.5843 88.8633 32.507 87.4726 31.3283C86.0806 30.1523 81.5273 28.519 80.6646 29.231C79.8006 29.943 79.0739 31.1083 80.1659 31.4377C81.2606 31.763 83.8326 32.7363 86.09 34.0337Z" fill="#A84129"/>
<path d="M79.2572 58.531C78.3145 58.203 77.9412 57.4803 79.9012 58.4136C80.9212 58.8976 82.0425 60.2843 81.2198 59.927C80.3985 59.5776 80.5772 58.991 79.2572 58.531Z" fill="#B88F6F"/>
<path d="M90.6502 40.9563C91.3395 39.8337 91.4235 38.6403 90.8395 38.2843C90.2595 37.9283 89.2329 38.5483 88.5422 39.6683C87.8542 40.7883 87.7702 41.9843 88.3489 42.3417C88.9302 42.695 89.9609 42.0763 90.6502 40.9563Z" fill="#4D342D"/>
<path d="M83.6578 37.3936C84.3432 36.2776 84.4312 35.0829 83.8472 34.7256C83.2658 34.3723 82.2378 34.9869 81.5472 36.1123C80.8605 37.2309 80.7752 38.4269 81.3565 38.7803C81.9378 39.1376 82.9685 38.5163 83.6578 37.3936Z" fill="#4D342D"/>
<path d="M84.373 46.6483C84.373 46.6483 88.6236 51.4656 89.3463 50.9869C90.069 50.5083 88.969 36.2963 88.969 36.2963C88.969 36.2963 84.069 42.7763 84.373 46.6483Z" fill="#FBC68C"/>
<path d="M77.0059 18.9456C78.9539 19.9083 91.5619 27.1136 95.4725 24.0109C99.3832 20.9083 95.9472 16.3656 88.5632 16.3176C81.1779 16.2709 77.0059 18.9456 77.0059 18.9456Z" fill="#A84129"/>
<path d="M61.8008 23.4283C72.4114 16.0803 80.3661 13.0363 93.2928 13.2217C93.2928 13.2217 86.3261 -0.407671 77.8154 1.511C70.2714 3.20833 59.8061 10.8497 61.8008 23.4283Z" fill="#FAB6C1"/>
<path d="M71.4083 10.8923C70.5297 8.84968 70.2497 6.76035 70.4603 4.74701C65.0057 8.38835 60.4217 14.723 61.8003 23.4283C66.5843 20.1137 70.831 17.6857 75.2323 16.0243C73.5963 14.5977 72.2657 12.8777 71.4083 10.8923Z" fill="#E05F70"/>
<path d="M91.1055 274.758H101.883C101.883 274.758 93.5788 270.34 92.3415 271.4C91.1055 272.459 91.1055 274.758 91.1055 274.758Z" fill="#ECCF8F"/>
<path d="M58.2461 274.758H69.0221C69.0221 274.758 63.0154 270.34 61.7794 271.4C60.5421 272.459 58.2461 274.758 58.2461 274.758Z" fill="#ECCF8F"/>
<path d="M151.869 273.448C148.337 260.023 141.457 228.289 141.81 224.758C141.81 224.758 167.501 221.255 167.957 224.758C169.019 232.886 174.318 266.806 176.083 273.872L174.165 273.675C174.165 273.675 163.363 235.358 155.59 238.893C147.817 242.426 153.471 273.165 153.471 273.165L151.869 273.448Z" fill="#FAB988"/>
<path d="M152.094 263.27C151.119 253.952 150.729 241.099 155.59 238.893C160.547 236.638 166.731 251.398 170.565 262.393C171.718 262.479 172.834 262.596 173.931 262.726C171.675 249.783 168.721 230.6 167.957 224.758C167.501 221.255 141.81 224.758 141.81 224.758C141.526 227.599 145.919 248.668 149.487 263.798C150.326 263.606 151.197 263.432 152.094 263.27Z" fill="#F7936D"/>
<path d="M142.874 259.975L155.83 258.796C155.83 258.796 154.412 247.223 157.95 246.783C159.835 246.548 161.718 259.034 161.718 259.034L177.738 258.089C177.738 258.089 171.14 224.171 168.315 221.815C165.487 219.458 140.968 220.868 140.516 223.462C139.576 228.882 142.874 259.975 142.874 259.975Z" fill="#76C2CF"/>
<path d="M169.418 235.429C172.047 237.62 173.986 254.203 174.791 258.292L177.738 258.089C177.738 258.089 171.14 224.171 168.315 221.815C165.706 219.639 144.638 220.674 141.046 222.886C144.295 221.886 139.19 228.094 140.726 235.515C146.526 236.027 168.356 234.543 169.418 235.429Z" fill="#5BABB4"/>
<path d="M157.718 246.862C157.372 246.035 157.011 245.536 156.647 245.582C153.492 245.976 154.228 256.625 154.423 258.924L155.828 258.796C155.828 258.796 154.491 247.794 157.718 246.862Z" fill="#5BABB4"/>
<path d="M153.121 245.24C156.13 245.507 156.048 245.729 157.301 245.582C159.434 245.324 161.908 244.131 162.164 244.131C162.42 244.131 160.436 246.694 157.717 246.862C154.998 247.032 153.121 245.24 153.121 245.24Z" fill="#5BABB4"/>
<path d="M155.416 180.944C160.185 181.827 137.748 203.558 137.748 203.558L130.545 191.771C130.545 191.771 147.221 179.427 155.416 180.944Z" fill="#FBD549"/>
<path d="M155.639 181.031C151.872 186.526 141.269 196.279 136.117 200.888L137.748 203.558C137.748 203.558 159.329 182.653 155.639 181.031Z" fill="#F4BF37"/>
<path d="M142.866 199.093C142.866 199.093 138.888 184.82 151.18 179.763L154.762 179.794C148.174 182.171 145.414 186.867 142.866 199.093Z" fill="#853440"/>
<path d="M152.588 145.08C148.524 143.843 148.288 141.723 152.528 138.544C156.768 135.366 151.587 133.479 153.707 130.651C159.263 123.246 167.226 133.995 180.088 148.203C188.216 152.56 191.279 174.76 164.248 175.291C137.218 175.82 152.588 145.08 152.588 145.08Z" fill="#A84129"/>
<path d="M180.089 148.203C175.284 142.894 171.16 138.068 167.593 134.491C168.378 136.602 168.82 138.908 168.82 141.331C168.82 151.319 161.448 159.417 152.354 159.417C150.996 159.417 149.682 159.215 148.418 158.874C147.481 166.971 149.841 175.574 164.249 175.291C191.28 174.76 188.217 152.56 180.089 148.203Z" fill="#8B2E1F"/>
<path d="M153.824 181.298L155.238 169.991L164.602 170.698L164.248 180.765L153.824 181.298Z" fill="#F07D61"/>
<path d="M139.362 233.232C139.424 235.276 168.806 233.235 172.392 231.158C172.392 231.158 172.041 180.499 160.538 179.047C148.214 177.491 138.194 196.072 139.362 233.232Z" fill="#FBD549"/>
<path d="M151.473 181.312L153.719 179.636L158.838 180.319L154.402 185.266L151.473 181.312Z" fill="#F4BF37"/>
<path d="M172.393 231.158C172.393 231.158 172.104 189.71 163.535 180.723C169.792 190.46 168.613 222.505 168.479 232.187C170.099 231.931 171.917 231.435 172.393 231.158Z" fill="#F4BF37"/>
<path d="M174.279 222.376C182.234 211.67 185.71 204.12 184.002 200.555C182.02 196.427 176.032 190.717 171.122 186.803L168.43 190.838C168.43 190.838 180.191 199.362 180.847 202.586C181.7 206.764 173.338 221.429 173.338 221.429L174.279 222.376Z" fill="#FAB988"/>
<path d="M180.81 202.484C181.787 201.486 182.782 200.679 183.751 200.082C181.562 195.996 175.847 190.572 171.122 186.803L168.43 190.838C168.43 190.838 179.95 199.191 180.81 202.484Z" fill="#F7936D"/>
<path d="M173.398 221.323L173.338 221.43L173.433 221.527L173.398 221.323Z" fill="#F7936D"/>
<path d="M162.305 180.415C164.578 178.205 182.2 192.262 182.2 192.262L173.198 200.877C173.198 200.877 158.18 184.422 162.305 180.415Z" fill="#FBD549"/>
<path d="M166.09 181.028L164.498 180.063H156.023L161.055 185.266L166.09 181.028Z" fill="#F4BF37"/>
<path d="M164.902 190.513C168.3 195.976 173.081 201.438 173.081 201.438L176.496 198.319C174.304 196.207 168.089 194.475 164.902 190.513Z" fill="#F4BF37"/>
<path d="M170.909 198.788C170.014 195.846 168.478 190.428 169.459 183.176L167.753 182.026C167.753 182.026 167.326 191.664 169.502 197.38L170.909 198.788Z" fill="#F4BF37"/>
<path d="M151.672 180.71L153.379 178.527L158.497 179.199L154.061 184.072L151.672 180.71Z" fill="#FEF1AD"/>
<path d="M165.405 180.124L164.808 178.777L155.68 178.946L160.712 184.072L165.405 180.124Z" fill="#FEF1AD"/>
<path d="M172.004 200.65L180.876 190.641L183.493 192.005L173.143 202.471L172.004 200.65Z" fill="#D95521"/>
<path d="M171.635 201.901C171.635 201.901 166.431 191.068 169.417 181.258L166.516 179.465C166.516 179.465 160.715 186.035 170.953 202.158L171.635 201.901Z" fill="#853440"/>
<path d="M150.25 180.177C150.254 180.176 150.258 180.174 150.262 180.172C150.258 180.174 150.255 180.176 150.25 180.177ZM150.282 180.163C150.571 180.024 150.87 179.891 151.181 179.763C150.87 179.891 150.571 180.024 150.282 180.163Z" fill="#5E1D23"/>
<path d="M148.381 185.336C148.129 185.298 147.882 185.258 147.64 185.215C148.726 183.58 149.988 182.338 151.509 181.363L151.766 181.71C150.577 182.67 149.444 183.88 148.381 185.336ZM144.888 184.634C144.249 184.471 143.658 184.295 143.121 184.11C144.341 183.511 145.578 182.948 146.802 182.467C146.052 183.146 145.42 183.874 144.888 184.634Z" fill="#DC852E"/>
<path d="M147.639 185.215C146.647 185.044 145.725 184.85 144.887 184.634C145.419 183.874 146.051 183.146 146.801 182.467C146.809 182.464 146.816 182.462 146.824 182.459C147.771 181.605 148.897 180.831 150.248 180.177C150.253 180.176 150.256 180.174 150.26 180.172C150.267 180.17 150.273 180.166 150.28 180.163C150.569 180.024 150.868 179.891 151.179 179.763L152.401 179.775L151.671 180.71L151.881 181.007L151.472 181.312L151.508 181.363C149.987 182.338 148.725 183.58 147.639 185.215Z" fill="#73232A"/>
<path d="M158.156 186.035C154.564 186.035 151.216 185.777 148.381 185.336C149.444 183.88 150.577 182.67 151.766 181.71L154.402 185.265L157.602 181.696L161.054 185.265L161.976 184.491C162.121 184.944 162.304 185.417 162.517 185.905C161.12 185.989 159.66 186.035 158.156 186.035Z" fill="#DC852E"/>
<path d="M154.402 185.266L151.766 181.71L151.509 181.363L151.473 181.312L151.882 181.007L154.061 184.072L156.891 180.962L157.602 181.696L154.402 185.266Z" fill="#D57725"/>
<path d="M165.068 180.41L165.407 180.124L165.068 180.41ZM154.159 178.63L153.379 178.527L154.159 178.628L154.783 173.643L154.159 178.63Z" fill="#5E1D23"/>
<path d="M154.781 173.641L155.237 169.991L154.781 173.641Z" fill="#782019"/>
<path d="M156.464 178.931L154.158 178.629L154.782 173.643V173.641L155.238 169.991L164.602 170.698L164.317 178.787L156.464 178.931Z" fill="#D04B3D"/>
<path d="M162.518 185.905C162.305 185.417 162.122 184.944 161.977 184.491L165.457 181.562C165.127 182.562 164.854 183.936 164.882 185.719C164.118 185.794 163.329 185.856 162.518 185.905Z" fill="#DC852E"/>
<path d="M161.053 185.266L157.601 181.696L156.891 180.962L157.26 180.555L160.712 184.072L165.067 180.41L165.737 180.816C165.641 181.036 165.547 181.284 165.455 181.562L161.975 184.491L161.053 185.266Z" fill="#D57725"/>
<path d="M154.061 184.072L151.883 181.007L151.672 180.71L152.403 179.775H152.404L153.379 178.527L154.159 178.629L156.464 178.931L155.681 178.946L157.261 180.555L156.892 180.962L154.061 184.072Z" fill="#DB9664"/>
<path d="M160.712 184.072L157.26 180.555L155.68 178.946L156.462 178.931L164.316 178.787V178.788L164.808 178.777L165.405 180.124L165.066 180.41L160.712 184.072Z" fill="#DB9664"/>
<path d="M169.018 182.834C169.014 182.831 169.012 182.829 169.008 182.827C169.11 182.358 169.23 181.887 169.368 181.42C169.23 181.888 169.121 182.362 169.018 182.834Z" fill="#5E1D23"/>
<path d="M169.252 185.11C169.303 184.481 169.371 183.836 169.46 183.176L169 182.865C169.003 182.852 169.005 182.84 169.008 182.827C169.012 182.829 169.015 182.831 169.019 182.834V182.835C169.889 183.365 170.792 183.952 171.701 184.56C170.952 184.76 170.132 184.944 169.252 185.11Z" fill="#DC852E"/>
<path d="M168.625 185.222C168.706 184.439 168.829 183.651 168.998 182.865L169.458 183.176C169.369 183.836 169.301 184.48 169.25 185.11C169.045 185.148 168.837 185.186 168.625 185.222Z" fill="#D57725"/>
<path d="M164.881 185.719C164.853 183.936 165.126 182.562 165.456 181.562C165.548 181.284 165.642 181.036 165.738 180.816V180.818C166.13 179.908 166.509 179.474 166.516 179.466L169.417 181.258C169.4 181.311 169.384 181.366 169.368 181.42C169.23 181.887 169.11 182.358 169.008 182.827C169.005 182.84 169.002 182.852 169 182.866C168.83 183.651 168.708 184.439 168.626 185.222C167.466 185.422 166.21 185.588 164.881 185.719Z" fill="#73232A"/>
<path d="M163.42 137.004C175.232 139.596 177.129 148.562 177.585 154.481C178.21 162.619 168.09 182.963 148.493 172.647C128.168 161.944 147.658 147.493 149.966 144.662C153.212 140.676 157.626 135.731 163.42 137.004Z" fill="#FAB988"/>
<path d="M177.586 154.48C177.309 150.888 176.486 146.182 173.254 142.451C175.434 145.84 176.07 149.712 176.306 152.774C176.931 160.913 166.811 181.258 147.214 170.939C144.301 169.407 142.229 167.794 140.783 166.151C142.15 168.383 144.577 170.586 148.494 172.647C157.774 177.534 165.117 176.016 170.013 171.703C175.455 166.905 177.915 158.767 177.586 154.48Z" fill="#F7936D"/>
<path d="M165.84 166.459L167.84 167.755C167.84 167.755 173.612 164.101 173.848 168.695C173.848 168.695 180.617 157.991 179.384 152.443C177.735 145.022 171.373 151.852 165.84 166.459Z" fill="#8B2E1F"/>
<path d="M168.666 167.399C169.161 165.168 178.089 164.336 176.438 167.399C174.789 170.463 167.724 171.641 168.666 167.399Z" fill="#FAB988"/>
<path d="M169.447 167.519C169.783 165.996 175.875 165.43 174.751 167.519C173.625 169.61 168.805 170.412 169.447 167.519Z" fill="#F07D61"/>
<path d="M168.754 167.862C168.958 166.943 172.622 166.601 171.945 167.862C171.266 169.116 168.367 169.6 168.754 167.862Z" fill="#FAB988"/>
<path d="M179.444 274.758H170.609C170.609 274.758 172.699 271.56 174.32 271.4C176.085 271.222 179.444 274.758 179.444 274.758Z" fill="#ECCF8F"/>
<path d="M155.061 274.758H144.637C144.637 274.758 150.435 271.384 152.057 271.222C153.823 271.046 155.061 274.758 155.061 274.758Z" fill="#ECCF8F"/>
<path d="M38.0207 103.484C36.2394 111.34 33.4887 118.476 30.998 122.784L31.8047 123.998C36.734 118.455 40.4154 112.104 42.9554 105.635C41.178 105.52 39.5047 104.764 38.0207 103.484Z" fill="#6D2732"/>
<path d="M36.2036 71.7562C38.1836 69.1749 40.6863 67.6229 43.4116 67.6229L43.6209 67.6402C42.1769 65.3189 40.3356 63.6136 38.1036 62.7509L30.6836 66.1056C33.0183 67.5389 34.8209 69.4736 36.2036 71.7562Z" fill="#6D2732"/>
<path d="M33.2325 39.583C27.3179 43.1096 29.2525 29.2336 29.2525 29.2336C23.3379 39.1296 28.5699 53.4616 28.2285 58.0096L33.2325 39.583Z" fill="#919623"/>
<path d="M43.3366 24.7789C47.4259 14.9363 48.5112 5.89092 46.5392 3.52692C42.1086 -1.78241 36.1832 8.81625 32.0939 18.6549C28.0033 28.5002 27.6859 38.6789 30.3872 40.1522C33.0886 41.6282 39.2459 34.6216 43.3366 24.7789Z" fill="#BAC226"/>
<path d="M37.9531 61.4816C37.9531 61.4816 58.5651 8.86689 47.7651 0.249557L50.8371 0.422897C50.8371 0.422897 61.4424 8.19223 40.4558 61.2549L37.9531 61.4816Z" fill="#6D2732"/>
<path d="M50.1797 88.839L60.0757 88.6096L60.3037 91.455L50.521 91.6816L50.1797 88.839Z" fill="#EF5B2C"/>
<path d="M50.2949 94.5256L60.1909 94.299L60.4176 97.1416L50.6362 97.371L50.2949 94.5256Z" fill="#EF5B2C"/>
<path d="M50.5234 99.8736L60.4194 99.6443L60.6461 102.488L50.8648 102.715L50.5234 99.8736Z" fill="#EF5B2C"/>
<path d="M85.2148 88.1563L92.2068 88.0349L92.3668 90.8803L85.4549 91.0043L85.2148 88.1563Z" fill="#EF5B2C"/>
<path d="M85.2949 93.8456L92.2856 93.7229L92.4469 96.5709L85.5363 96.6936L85.2949 93.8456Z" fill="#EF5B2C"/>
<path d="M85.4551 99.1936L92.4484 99.0736L92.6084 101.919L85.6977 102.04L85.4551 99.1936Z" fill="#EF5B2C"/>
<path d="M84.277 10.2096C84.277 10.2096 80.0957 8.6736 78.9023 5.43093C78.9023 5.43093 81.205 3.81226 83.4237 4.40826C85.3864 6.88159 84.277 10.2096 84.277 10.2096Z" fill="#CD7983"/>
<path d="M70.3696 164.451L69.5176 156.601C69.5176 156.601 70.7109 156.091 70.7109 156.431C70.7109 156.772 70.3696 164.451 70.3696 164.451Z" fill="#4F3E35"/>
<path d="M74.7194 155.859L70.4954 156.388L70.4141 158.956L74.6394 158.427L74.7194 155.859Z" fill="#4F3E35"/>
<path d="M73.7483 156.016L70.2763 156.439L70.1816 158.476L73.6536 158.05L73.7483 156.016Z" fill="#A0836E"/>
<path d="M34.0273 157.427C34.8233 160.726 38.0087 166.301 40.6247 165.731C43.2407 165.163 43.126 158.45 41.194 154.584C41.194 154.584 49.042 169.37 42.2167 169.598C35.3927 169.824 34.0273 157.427 34.0273 157.427Z" fill="#416F7F"/>
<path d="M36.418 156.176C37.5553 156.062 41.1953 155.719 40.0566 161.751C39.374 160.155 39.3713 159.647 38.6926 158.338C37.8406 156.699 36.418 156.176 36.418 156.176Z" fill="#416F7F"/>
<path d="M131.523 191.056L139.736 202.152L137.725 204.363L129.387 191.715L131.523 191.056Z" fill="#D95521"/>
<path d="M180.308 218.735C183.264 221.239 185.994 225.103 184.516 227.607C183.038 230.11 178.031 237.732 177.463 230.794C176.895 223.854 179.396 225.106 179.396 225.106C179.396 225.106 177.132 226.276 178.828 231.362C179.169 232.384 183.491 227.836 182.923 225.106C182.355 222.376 180.308 218.735 180.308 218.735Z" fill="#C73F21"/>
<path d="M190.432 160.723C191.682 159.017 193.56 158.164 194.242 159.417C194.924 160.668 197.37 167.21 193.276 167.663C189.181 168.119 190.83 163.853 190.944 163.683C190.944 163.683 191.114 166.867 193.162 165.731C195.209 164.593 194.242 159.929 192.934 159.929C191.626 159.929 190.432 160.723 190.432 160.723Z" fill="#9FA221"/>
<path d="M164.951 157.33C166.56 155.088 165.6 154.094 164.055 153.176C162.471 152.238 160.731 151.731 158.913 153.984C157.008 156.343 158.483 157.083 160.225 158.015C161.931 158.922 163.264 159.679 164.951 157.33Z" fill="#D95521"/>
<path d="M149.339 148.276C150.835 146.144 152.616 146.332 154.136 147.234C155.687 148.154 156.454 149.567 155.035 151.868C153.544 154.283 152.23 153.379 150.622 152.326C149.047 151.295 147.774 150.511 149.339 148.276Z" fill="#D95521"/>
<path d="M164.883 157.424C166.499 155.171 166.035 153.52 164.471 152.596C162.903 151.664 160.826 151.81 159.209 154.062C157.587 156.315 158.882 157.038 160.447 157.962C162.014 158.889 163.263 159.674 164.883 157.424Z" fill="#FFFAE9"/>
<path d="M155.062 151.398C156.495 149.05 155.844 147.358 154.159 146.607C152.472 145.864 150.388 146.34 148.954 148.689C147.519 151.036 148.904 151.608 150.592 152.359C152.28 153.105 153.624 153.747 155.062 151.398Z" fill="#FFFAE9"/>
<path d="M167.6 154.935C167.554 152.515 165.666 151.247 165.098 151.199L165.59 150.028C166.615 150.127 168.636 151.782 168.691 154.47L167.6 154.935Z" fill="#AD543B"/>
<path d="M155.687 145.862C153.529 144.838 150.494 145.859 149.871 146.315L149.359 145.389C150.487 144.576 153.995 143.603 156.391 144.739L155.687 145.862Z" fill="#AD543B"/>
<path d="M162.89 154.965C163.55 154.048 163.495 152.955 162.769 152.527C162.046 152.096 160.923 152.491 160.261 153.408C159.603 154.328 159.657 155.419 160.382 155.848C161.106 156.279 162.23 155.884 162.89 154.965Z" fill="#7BABC7"/>
<path d="M162.506 154.224C162.805 153.808 162.784 153.314 162.45 153.115C162.122 152.924 161.61 153.099 161.313 153.517C161.012 153.934 161.036 154.429 161.365 154.627C161.696 154.823 162.205 154.643 162.506 154.224Z" fill="#9FD1E5"/>
<path d="M152.342 149.201C153.002 148.287 152.946 147.195 152.221 146.763C151.497 146.332 150.372 146.727 149.713 147.646C149.054 148.562 149.108 149.658 149.833 150.087C150.558 150.516 151.682 150.122 152.342 149.201Z" fill="#7BABC7"/>
<path d="M152.184 148.595C152.482 148.177 152.458 147.679 152.131 147.487C151.8 147.289 151.29 147.472 150.991 147.887C150.691 148.305 150.716 148.801 151.046 148.996C151.374 149.194 151.886 149.012 152.184 148.595Z" fill="#9FD1E5"/>
<path d="M156.476 162.048C156.559 161.132 150.119 157.862 148.99 158.346C147.868 158.831 148.559 163.998 150.031 164.955C151.501 165.926 156.321 163.768 156.476 162.048Z" fill="#4D2521"/>
<path d="M155.784 161.86C155.846 161.099 150.488 158.375 149.548 158.777C149.196 158.927 149.058 159.642 149.09 160.511L154.117 163.598C155.013 163.093 155.729 162.448 155.784 161.86Z" fill="#FEF0F1"/>
<path d="M154.318 157.371C153.497 156.884 153.116 156.07 153.368 155.454C153.238 155.534 153.122 155.627 153.037 155.747C152.582 156.377 152.957 157.33 153.877 157.876C154.793 158.418 155.904 158.348 156.358 157.713L156.472 157.506C155.925 157.839 155.061 157.811 154.318 157.371Z" fill="#F7936D"/>
<path d="M174.705 135.36C172.994 134.518 175.046 132.204 177.862 132.971C180.676 133.739 179.567 137.75 174.705 135.36Z" fill="#B5E7F7"/>
<path d="M161.312 257.61L177.778 256.841L178.119 258.805L161.568 259.743L161.312 257.61Z" fill="#ACE3EC"/>
<path d="M142.373 258.719L155.996 257.951L156.278 259.913L142.585 260.852L142.373 258.719Z" fill="#ACE3EC"/>
<path d="M157.403 234.483L153.766 234.613L153.848 236.887L157.486 236.755L157.403 234.483Z" fill="#ACE3EC"/>
<path d="M153.76 218.943C148.732 219.177 144.8 214.288 144.982 208.02C145.163 201.751 149.387 196.483 154.416 196.246C159.447 196.01 163.376 200.903 163.196 207.17C163.016 213.44 158.79 218.711 153.76 218.943ZM154.219 195.599C148.724 195.856 144.108 201.586 143.911 208.399C143.713 215.212 148.009 220.53 153.504 220.272C159 220.02 163.616 214.291 163.813 207.477C164.011 200.662 159.715 195.344 154.219 195.599Z" fill="#FEF1AD"/>
<path d="M150.812 204.487C150.965 203.083 150.634 201.894 150.072 201.829C149.51 201.768 148.93 202.859 148.776 204.263C148.622 205.668 148.953 206.859 149.516 206.92C150.077 206.982 150.657 205.889 150.812 204.487Z" fill="#FEF1AD"/>
<path d="M158.838 204.595C158.902 203.182 158.496 202.016 157.932 201.989C157.368 201.963 156.857 203.088 156.79 204.499C156.726 205.91 157.131 207.077 157.696 207.103C158.26 207.129 158.771 206.005 158.838 204.595Z" fill="#FEF1AD"/>
<path d="M153.662 215.363C153.359 215.363 153.058 215.341 152.761 215.296C150.085 214.907 147.503 212.728 147.749 209.329L148.429 209.376C148.214 212.364 150.494 214.275 152.859 214.622C155.123 214.955 158.086 213.947 158.959 210.017L159.625 210.165C158.811 213.829 156.179 215.363 153.662 215.363Z" fill="#FEF1AD"/>
<path d="M170.758 159.271C172.682 156.193 177.206 149.348 181.648 151.152C181.648 151.152 186.563 156.974 183.72 164.251C182.81 154.584 178.762 154.15 170.758 159.271Z" fill="#A84129"/>
<path d="M176.155 218.111C176.623 218.716 174.686 221.905 175.958 224.318C176.179 224.726 176.563 225.332 176.923 225.955C177.564 227.055 177.679 228.452 177.104 228.61C176.623 228.74 176.578 227.722 176.14 226.93C175.755 226.236 175.643 225.986 175.436 226.067C175.295 226.122 175.587 227.086 175.868 228.17C176.236 229.564 176.218 230.55 175.627 230.689C175.067 230.819 175.1 229.847 174.638 228.628C174.23 227.564 174.127 227.08 173.562 227.2C173.294 227.254 173.47 227.984 173.478 229.167C173.484 230.54 173.12 231.428 172.632 231.423C171.935 231.418 172.428 230.756 172.191 229.191C171.884 227.18 171.896 225.22 170.875 224.384C169.926 223.613 167.768 225.375 167.466 224.431C167.228 223.686 169.588 222.955 172.355 221.751C174.58 220.786 175.66 217.466 176.155 218.111Z" fill="#FAB988"/>
<path d="M44.6415 149.071C44.2909 150.007 47.3322 151.247 46.6909 154.741C46.5749 155.336 46.3322 156.246 46.1255 157.153C45.7562 158.775 46.1762 160.544 46.9709 160.505C47.6349 160.471 47.2775 159.194 47.5162 158.04C47.7255 157.027 47.7695 156.674 48.0589 156.688C48.2615 156.696 48.2842 158.005 48.3642 159.46C48.4589 161.328 48.8829 162.54 49.6882 162.468C50.4562 162.403 50.0189 161.213 50.1149 159.522C50.2015 158.041 50.1389 157.405 50.9069 157.322C51.2695 157.276 51.3402 158.25 51.8082 159.712C52.3562 161.412 53.1775 162.359 53.7935 162.152C54.6802 161.863 53.7842 161.25 53.4549 159.22C53.0322 156.612 52.2229 154.2 53.1829 152.756C54.0775 151.417 57.5349 152.71 57.5402 151.423C57.5389 150.405 54.2402 150.465 50.2349 150.105C47.0162 149.822 45.0095 148.074 44.6415 149.071Z" fill="#FBC68C"/>
</svg>
