<svg width="257" height="272" viewBox="0 0 287 292" fill="none" xmlns="http://www.w3.org/2000/svg">
<path d="M96.0808 15.9531C96.8048 12.6958 96.5048 9.27443 94.7195 6.95043C91.6795 2.99443 85.2701 0.911744 80.3581 2.09841C76.3381 -1.16026 68.5688 -0.681548 64.0915 3.94112C59.6715 8.51179 56.6715 16.4171 59.0261 20.8864C50.6448 35.9304 67.0381 41.8584 67.3088 48.9291C72.0541 48.4931 75.4154 42.1957 77.5661 29.5597C78.4328 31.5891 79.8554 33.0651 81.8541 33.3544C86.5941 34.0371 94.6581 28.6771 96.2274 22.9811C96.8714 20.6384 96.7581 18.1371 96.0808 15.9531" fill="#984743"/>
<path d="M83.0997 14.8304C71.6517 14.8304 65.185 10.5651 66.0384 6.21443C66.329 4.73176 66.3117 3.2464 66.7824 1.85707C65.8064 2.4224 64.5704 2.91713 63.7078 3.68246C59.0011 7.86113 55.8931 16.3904 58.2477 20.8571C48.4664 35.8731 66.5517 42.8117 67.3091 48.9291C72.0544 48.4931 75.4157 42.1957 77.5664 29.5597C78.433 31.5891 79.8557 33.0651 81.8544 33.3544C86.5944 34.0371 94.6584 28.6771 96.2277 22.9811C96.4197 22.2864 96.5238 21.5771 96.5864 20.8651C93.6638 22.1291 86.6517 14.8304 83.0997 14.8304" fill="#7E3232"/>
<path d="M129.087 128.815C133.807 124.644 121.234 85.1012 96.5794 63.7412C92.8141 60.4772 83.7634 93.8692 89.522 99.2652C95.286 104.663 119.661 137.156 129.087 128.815Z" fill="#70A1D3"/>
<path d="M93.5081 96.0465C91.3881 94.5185 88.0374 92.8559 87.9147 87.1692C87.3454 92.7119 87.9908 99.0638 89.8694 100.824C95.6321 106.22 119.661 137.156 129.088 128.815C129.715 128.257 130.021 127.044 130.048 125.336C118.968 125.956 99.1041 100.075 93.5081 96.0465Z" fill="#4D84B8"/>
<path d="M117.288 133.127C113.875 126.756 112.728 112.767 128.208 110.151C128.208 110.151 140.715 136.311 117.288 133.127Z" fill="#D7F2FD"/>
<path d="M128.687 111.25C127.54 117.608 124.3 124.616 115.34 121.833C114.714 125.994 115.767 130.305 117.287 133.126C137.807 135.918 130.754 116.178 128.687 111.25Z" fill="#B5DFED"/>
<path d="M207.275 164.472C205.901 160.597 208.488 142.665 224.221 140.984C227.275 140.657 234.328 142.95 233.861 149.732C233.861 149.732 243.368 145.745 250.915 155.073C254.581 159.614 249.435 171.206 249.435 171.206C249.435 171.206 254.141 175.853 253.875 179.484C253.608 183.113 240.688 184.469 238.088 191.174C235.488 197.881 214.955 193.273 208.941 188.458C202.941 183.642 207.275 164.472 207.275 164.472" fill="#914A22"/>
<path d="M250.435 170.876C250.435 170.876 253.861 163.709 252.048 158.342C248.395 168.198 247.421 168.126 237.941 168.726C224.795 169.556 213.141 166.35 207.075 160.964C206.928 162.501 207.021 163.749 207.275 164.472C207.275 164.472 202.941 183.642 208.941 188.458C214.955 193.273 235.488 197.881 238.088 191.174C240.688 184.469 254.501 183.725 254.768 180.094C255.035 176.464 250.435 170.876 250.435 170.876" fill="#773C1D"/>
<path d="M58.9961 65.5638L67.3001 37.7237L81.7082 41.1438L80.2428 67.5171L58.9961 65.5638Z" fill="#F7936D"/>
<path d="M105.153 150.55C104.74 140.173 54.3559 140.293 49.4719 151.037C44.5879 161.784 49.1479 218.115 48.6573 223C48.1693 227.884 43.124 234.721 42.6346 240.584C42.1466 246.442 49.4719 279.98 50.9359 289.749H54.8439C54.8439 278.516 62.6599 246.932 62.6599 240.584C62.6599 234.233 59.4026 227.394 59.8919 223C60.3799 218.604 70.7173 184.982 79.5079 186.937C88.3013 188.89 97.4999 218.115 97.9879 223C98.4785 227.884 94.7319 235.048 96.6866 242.212C98.8746 250.236 122.407 289.749 122.407 289.749H126.647C107.1 225.929 106.127 175.134 105.153 150.55" fill="#6F4A32"/>
<path d="M51.4493 283.302L55.6294 280.913L54.9467 286.714L51.1934 287.056L51.4493 283.302Z" fill="#543424"/>
<path d="M46.5293 241.301C47.0186 235.441 51.0466 227.304 51.5346 222.42C52.024 217.534 53.9239 184.882 54.1519 179.992C62.2733 178.546 96.9212 166.454 105.567 160.312C105.9 158.493 105.447 152.692 105.153 150.55C103.7 140.266 54.3559 140.293 49.4719 151.037C44.5879 161.784 49.1479 218.114 48.6573 223C48.1693 227.884 43.124 234.721 42.6346 240.584C42.1466 246.442 49.4719 279.98 50.9359 289.749H52.6573C50.9253 278.302 46.0653 246.878 46.5293 241.301" fill="#543424"/>
<path d="M100.673 242.438C98.7185 235.276 101.845 226.848 101.356 221.964C100.868 217.08 91.8011 183.973 79.5158 186.021C78.5384 186.182 77.5692 186.708 76.6172 187.489C77.5892 186.95 78.5571 186.726 79.5078 186.937C88.3011 188.89 97.4998 218.115 97.9878 223C98.4784 227.884 94.7318 235.048 96.6865 242.212C98.8745 250.236 122.407 289.749 122.407 289.749H124.98C122.06 284.533 102.696 249.856 100.673 242.438" fill="#543424"/>
<path d="M140.755 291.972H121.248C121.248 291.972 122.035 284.194 125.968 285.269C131.021 286.653 140.755 291.972 140.755 291.972Z" fill="#ECCF8F"/>
<path d="M60.8714 291.972H48.3047C48.3047 291.972 49.77 286.194 53.0286 285.269C56.654 284.241 60.8714 291.972 60.8714 291.972Z" fill="#ECCF8F"/>
<path d="M45.6183 175.556C55.0597 176.806 104.766 162.36 106.473 156.445C103.86 144.161 102.221 127.268 99.9423 106.104C98.1703 89.6571 100.92 66.0532 96.3609 63.4465C94.2076 62.2158 41.0076 62.4705 38.7263 71.9145C36.4476 81.3571 40.4516 106.5 43.2863 125.966C44.709 135.744 44.0277 150.076 45.6183 175.556Z" fill="#70A1D3"/>
<path d="M49.169 66.3504C48.3583 71.9971 58.3916 78.2064 70.3276 75.9478C82.2609 73.6904 89.585 62.9451 89.585 62.9451C82.4197 62.4904 63.377 61.9771 49.169 66.3504" fill="#D7F2FD"/>
<path d="M101.584 113.108C101.106 108.305 100.218 99.0039 99.4237 93.9985C98.741 103.44 98.393 117.845 99.1957 125.279C101.105 143.029 106.286 157.075 106.473 156.447C103.86 144.161 103.404 131.423 101.584 113.108" fill="#4D84B8"/>
<path d="M49.8286 124.369C47.9352 111.365 41.4673 92.8478 38.058 79.1678C37.9833 91.0531 41.0113 110.336 43.2873 125.966C44.71 135.744 44.0287 150.076 45.6193 175.556C46.7593 175.705 48.4953 175.622 50.654 175.361C49.2433 150.745 51.2232 133.944 49.8286 124.369" fill="#4D84B8"/>
<path d="M51.1803 65.809C50.4483 70.693 59.4829 76.065 70.2296 74.1117C80.9749 72.157 87.4803 62.8317 87.4803 62.8317C74.2016 61.3984 63.9736 62.0264 51.1803 65.809Z" fill="#F7936D"/>
<path d="M5.97893 138.018C1.42026 133.46 12.6562 88.8611 40.3589 69.6851C44.5935 66.7545 50.8549 105.614 44.3429 110.498C37.8295 115.384 15.0976 147.134 5.97893 138.018" fill="#70A1D3"/>
<path d="M26.6674 82.4705C8.59669 104.185 0.814062 135.268 4.53806 138.991C5.22206 139.676 6.00077 140.099 6.8421 140.34C6.0421 129.969 12.3487 103.345 26.6674 82.4705" fill="#4D84B8"/>
<path d="M3.83789 137.354C3.98322 138.092 4.20856 138.661 4.53789 138.99C13.6539 148.108 38.4259 116.286 44.9379 111.401C46.2446 110.422 47.3432 105.674 47.7832 102.529C45.8485 107.192 13.7352 141.276 3.83789 137.354Z" fill="#4D84B8"/>
<path d="M0.298796 127.396C7.4868 123.536 23.2775 122.238 26.2522 139.704C26.2522 139.704 -3.26654 153.858 0.298796 127.396Z" fill="#D7F2FD"/>
<path d="M25.011 140.25C17.831 138.97 9.91912 135.317 13.0458 125.186C8.35112 124.485 3.48571 125.689 0.299044 127.396C-2.82629 150.582 19.4497 142.585 25.011 140.25Z" fill="#B5DFED"/>
<path d="M216.341 239.466L185.514 236.053C182.087 246.554 190.261 275.7 193.634 290.668H196.234C196.234 290.668 191.887 254.17 202.647 255.482C213.421 256.794 220.861 290.668 220.861 290.668H224.061C219.087 271.234 216.341 239.466 216.341 239.466Z" fill="#655B53"/>
<path d="M216.021 250.286C212.941 252.505 194.994 251.878 184.794 245.509L184.621 243.206L215.581 245.68L216.021 250.286" fill="#4F423A"/>
<path d="M201.167 254.724C191.767 253.576 194.247 283.154 195.101 290.668H196.234C195.007 278.308 195.314 255.349 202.701 256.202C203.154 255.521 202.181 254.846 201.167 254.724Z" fill="#4F423A"/>
<path d="M216.341 239.466L213.461 239.794C213.888 244.566 217.701 272.028 222.234 289.756H220.661C220.794 290.338 220.861 290.668 220.861 290.668H224.061C219.088 271.234 216.341 239.466 216.341 239.466Z" fill="#4F423A"/>
<path d="M195.795 253.87C196.568 254.297 206.115 254.724 209.622 253.188C209.622 253.188 206.462 256.485 201.688 256.144C196.902 255.804 195.795 253.87 195.795 253.87Z" fill="#4F423A"/>
<path d="M19.1569 129.616C25.8062 130.539 31.4143 152.584 49.2276 160.806L48.1009 163.06C31.7249 157.172 8.6343 149.802 6.32097 140.408C4.00764 131.01 8.58758 128.152 19.1569 129.616Z" fill="#FAB988"/>
<path d="M121.42 114.3C124.327 108.248 147.034 109.617 160.287 95.1505L162.087 96.9079C151.5 110.716 137.287 130.656 127.634 130C117.98 129.343 116.82 123.924 121.42 114.3Z" fill="#FAB988"/>
<path d="M66.8906 75.7985L69.6201 86.2625L74.284 85.4665L74.3974 74.4332L66.8906 75.7985" fill="#D7F2FD"/>
<path d="M47.857 81.2238C47.029 81.2238 46.217 81.1985 45.4237 81.1531C44.157 74.5771 42.3957 69.5264 40.8277 69.5264C40.7211 69.5264 40.6157 69.5504 40.5117 69.5984C42.5571 68.0784 46.1518 66.8745 50.5824 65.9358C50.1064 66.0691 49.6358 66.2064 49.1691 66.3504C48.4758 71.1811 55.7197 76.4238 65.301 76.4238C65.873 76.4238 66.4517 76.4051 67.0397 76.3665L67.1611 76.8358C60.3224 80.0145 53.6904 81.2238 47.857 81.2238Z" fill="#566581"/>
<path d="M65.3008 76.4238C55.7195 76.4238 48.4756 71.1812 49.1689 66.3505C49.6356 66.2065 50.1062 66.0692 50.5822 65.9359C50.6636 65.9185 50.7435 65.9012 50.8235 65.8852C51.2048 65.7798 51.5875 65.6772 51.9729 65.5772C51.7102 65.6532 51.4463 65.7305 51.1809 65.8092C50.5556 69.9865 57.0782 74.5225 65.7062 74.5225C67.1622 74.5225 68.6783 74.3932 70.2303 74.1118C71.4476 73.8905 72.6089 73.5745 73.7143 73.1892C72.6316 73.8945 71.5489 74.5465 70.4702 75.1465L66.8902 75.7985L67.0395 76.3665C66.4515 76.4052 65.8728 76.4238 65.3008 76.4238" fill="#B2989A"/>
<path d="M61.6836 56.5531L65.1077 45.0691H65.109L61.6836 56.5531Z" fill="#DD9F99"/>
<path d="M65.1087 45.0691H65.1074L66.6421 39.9264L65.1087 45.0691Z" fill="#6D2222"/>
<path d="M59.5488 63.7104L61.6835 56.5531L65.1089 45.0691L66.6422 39.9264C72.8435 40.9771 77.7368 45.5518 81.2048 50.1864L80.5341 62.2624C78.8114 62.1717 77.1261 62.1251 75.4674 62.1251C70.0781 62.1251 64.9462 62.6198 59.5488 63.7104Z" fill="#D75844"/>
<path d="M65.7054 74.5225C57.0774 74.5225 50.5548 69.9864 51.1801 65.8091C51.4455 65.7304 51.7094 65.6531 51.9721 65.5771C52.2187 65.5145 52.4668 65.4518 52.7148 65.3918C55.0548 64.7371 57.3268 64.1771 59.5428 63.7305L59.5481 63.7105C64.9454 62.6198 70.0774 62.1251 75.4667 62.1251C77.1254 62.1251 78.8107 62.1718 80.5334 62.2624L80.5308 62.2878C82.2721 62.3784 84.0614 62.5144 85.8934 62.6851C81.9081 67.0691 77.8068 70.5171 73.7135 73.1891C72.6081 73.5745 71.4468 73.8905 70.2295 74.1118C68.6775 74.3931 67.1614 74.5225 65.7054 74.5225" fill="#D75844"/>
<path d="M45.4242 81.1531C39.5176 80.8064 34.5936 79.2358 31.3496 77.3358C34.1336 74.5131 37.131 71.921 40.3603 69.685L40.4349 69.6557C40.4602 69.6357 40.4869 69.6171 40.5122 69.5984C40.6162 69.5504 40.7216 69.5264 40.8283 69.5264C42.3963 69.5264 44.1576 74.5771 45.4242 81.1531" fill="#566581"/>
<path d="M67.1613 76.8358L67.04 76.3665L66.8906 75.7984L70.4707 75.1465C69.364 75.7625 68.26 76.3238 67.1613 76.8358" fill="#B2989A"/>
<path d="M83.4794 63.8892C83.4794 63.8892 90.0006 53.8092 91.4153 44.7438C91.71 42.8412 91.398 38.0852 92.31 36.3332C93.2166 34.5852 93.35 34.0612 94.31 32.3358C96.082 29.1598 93.0713 18.4892 90.558 15.8332C85.302 10.2852 75.1366 10.9905 72.1006 13.5025C61.5792 22.2118 66.8353 42.5798 67.6166 45.6558C68.0779 47.4905 62.7247 56.4772 83.4794 63.8892Z" fill="#FBC68C"/>
<path d="M69.0241 44.8598C69.5761 42.8598 65.5894 32.9758 66.2801 24.0238C64.3947 33.1198 67.0747 43.5278 67.616 45.6558C68.0773 47.4905 62.7241 56.4772 83.4788 63.8892C83.4788 63.8892 65.7107 56.8318 69.0241 44.8598" fill="#F89F76"/>
<path d="M86.2021 40.6251C85.2288 45.6998 86.43 50.4238 88.962 52.7332C90.2353 50.7692 91.2127 48.1812 91.4154 44.7438C91.5274 42.8225 91.3981 38.0852 92.3101 36.3332C93.2167 34.5852 93.3501 34.0612 94.3101 32.3358C87.9621 29.8105 87.3314 34.7265 86.2021 40.6251" fill="#F89F76"/>
<path d="M68.3661 41.4424C65.2768 42.7264 60.4382 38.2824 62.4862 33.8344C64.5315 29.3864 66.0875 31.6104 67.6835 33.6691C69.2768 35.7238 68.3661 41.4424 68.3661 41.4424Z" fill="#FBC68C"/>
<path d="M67.4141 40.1438C65.5194 40.9332 62.5461 38.2078 63.8021 35.4811C65.0554 32.7558 66.01 34.1172 66.9874 35.3772C67.9687 36.6358 67.4141 40.1438 67.4141 40.1438Z" fill="#F07D61"/>
<path d="M67.4624 41.0665C66.1064 41.6279 63.9811 39.6771 64.8784 37.7238C65.7771 35.7731 66.4585 36.7505 67.1598 37.6532C67.8585 38.5545 67.4624 41.0665 67.4624 41.0665" fill="#FBC68C"/>
<path d="M68.6561 41.8171L70.9642 41.4278C70.9642 41.4278 74.5028 12.6745 68.3295 13.6505C64.1255 17.1665 63.9362 23.8665 64.8509 31.2745C64.8509 31.2745 68.6747 32.5851 68.6561 41.8171Z" fill="#7E3232"/>
<path d="M81.4248 49.0544C80.7288 51.1958 80.398 54.4918 83.378 55.3171C86.3727 56.1438 88.2021 50.5238 88.2021 50.5238L81.4248 49.0544Z" fill="#4F2D24"/>
<path d="M81.8828 49.8091C81.6628 50.7531 81.9349 52.2411 84.5242 52.7678C87.1109 53.2984 87.6789 50.8211 87.6789 50.8211L81.8828 49.8091" fill="#FEF2E0"/>
<path d="M78.128 29.7571C76.952 28.9811 76.82 27.9051 78.1827 27.7065C79.544 27.5051 84.5627 28.8091 84.6307 29.2598C84.7014 29.7105 84.2401 30.9545 83.5521 30.9225C82.8614 30.8905 79.0707 30.3785 78.128 29.7571Z" fill="#984743"/>
<path d="M90.5467 32.0291C89.7521 31.3331 89.824 30.3172 90.9333 30.0799C92.04 29.8412 95.7761 30.9011 95.7508 31.3291C95.7294 31.7531 95.1574 32.9505 94.6187 32.9465C94.0841 32.9372 91.1841 32.5865 90.5467 32.0291" fill="#984743"/>
<path d="M91.3768 37.5799C91.7888 36.2119 91.6328 35.0518 91.0261 34.9892C90.4235 34.9292 89.6008 35.9945 89.1915 37.3652C88.7822 38.7358 88.9369 39.8985 89.5409 39.9572C90.1462 40.0158 90.9688 38.9559 91.3768 37.5799" fill="#5F4444"/>
<path d="M81.1518 34.4065C81.5638 33.0358 81.4078 31.8771 80.8024 31.8145C80.1984 31.7531 79.3757 32.8198 78.9664 34.1905C78.5544 35.5651 78.7105 36.7238 79.3171 36.7811C79.9198 36.8411 80.7438 35.7811 81.1518 34.4065" fill="#5F4444"/>
<path d="M85.175 43.9985C85.175 43.9985 89.5136 48.7839 89.7563 48.2399C90.3976 46.8025 89.0137 30.3026 89.0137 30.3026C89.0137 30.3026 84.5177 41.0865 85.175 43.9985" fill="#FBC68C"/>
<path d="M79.2677 18.8825C85.2504 19.4611 92.2398 17.1584 92.9598 14.1011C93.6758 11.0424 88.7624 7.10643 82.7717 6.52643C76.7877 5.95176 69.0864 7.46642 68.3651 10.5238C67.6451 13.5824 73.2757 18.3038 79.2677 18.8825" fill="#984743"/>
<path d="M80.4043 17.8585C74.4137 17.2811 68.7803 12.5598 69.5003 9.50111C69.5736 9.19177 69.735 8.9011 69.943 8.62376C69.1057 9.16643 67.915 10.0971 67.7443 10.8211C67.0243 13.8784 73.275 18.3038 79.267 18.8825C84.4216 19.3812 90.3111 17.7398 92.3071 15.3225C89.7057 17.1558 84.7897 18.2825 80.4043 17.8585" fill="#7E3232"/>
<path d="M207.82 194.495L212.767 182.038L222.727 185.11L219.82 196.37L207.82 194.495" fill="#F7936D"/>
<path d="M183.328 243.873C183.901 235.878 191.635 201.722 203.501 194.437C215.381 187.15 223.741 201.316 224.035 203.196C224.328 205.076 217.808 240.112 218.382 247.162C199.568 254.214 183.328 243.873 183.328 243.873Z" fill="#EE592A"/>
<path d="M224.034 203.196C223.98 202.886 223.714 202.244 223.247 201.42C220.447 207.973 213.687 240.54 213.287 248.68C214.954 248.305 216.66 247.808 218.38 247.162C217.807 240.112 224.327 205.076 224.034 203.196" fill="#D94A23"/>
<path d="M184.566 157.336C184.566 157.336 183.553 176.896 183.207 180.469C182.873 184.042 190.073 189.933 193.446 193.391L197.273 188.791C197.273 188.791 187.993 182.493 187.3 179.627C186.606 176.761 186.926 156.672 186.926 156.672L184.566 157.336Z" fill="#FAB988"/>
<path d="M185.487 179.008C186.181 181.874 188.767 184.193 188.767 184.193L186.687 186.697C188.914 189.14 191.701 191.593 193.447 193.391L197.274 188.791C197.274 188.791 187.994 182.493 187.3 179.627C186.607 176.761 186.927 156.672 186.927 156.672L186.127 156.896C185.514 163.489 184.967 176.897 185.487 179.008" fill="#F89F76"/>
<path d="M207.687 204.484C210.647 203.372 217.167 190.733 210.087 192.089C201.98 193.642 192.82 180.874 192.82 180.874L184.127 192.178C184.127 192.178 198.194 208.053 207.687 204.484Z" fill="#EE592A"/>
<path d="M195.74 199.165C190.687 195.842 186.474 191.388 185.527 190.357L184.127 192.177C184.127 192.177 189.914 199.613 197.247 203.11C196.687 202.02 196.034 200.421 195.74 199.165Z" fill="#D94A23"/>
<path d="M231.608 243.916C231.608 243.916 234.382 230.04 232.928 223.822C232.155 220.516 230.515 215.172 228.302 211.181L224.182 211.702C224.182 211.702 228.662 221.45 229.542 224.094C231.515 229.997 229.302 243.936 229.302 243.936L231.608 243.916Z" fill="#FAB988"/>
<path d="M231.608 243.916L231.648 243.766L230.435 243.776C230.435 243.776 232.662 229.838 230.688 223.934C230.448 223.206 229.928 221.94 229.315 220.49C229.115 220.029 231.688 219.265 231.528 218.757C228.475 209.01 225.382 211.657 225.328 211.556L224.182 211.702C224.182 211.702 228.662 221.45 229.542 224.094C231.515 229.997 229.302 243.936 229.302 243.936L231.608 243.916Z" fill="#F89F76"/>
<path d="M216.861 194.87C210.275 191.476 222.835 221.112 222.835 221.112L233.582 219.344C233.582 219.344 234.381 203.878 216.861 194.87" fill="#EE592A"/>
<path d="M218.887 211.737C220.753 216.989 222.567 221.417 222.567 221.417L224.74 221.006C223.287 218.389 221.087 215.105 218.887 211.737Z" fill="#D94A23"/>
<path d="M220.9 197.28C218.74 200.24 208.5 202.428 208.5 202.428C208.5 202.428 206.34 194.352 207.367 192.218C210.833 191.478 218.567 194.72 220.9 197.28Z" fill="#FAB12A"/>
<path d="M184.301 291.972H197.127C197.127 291.972 196.621 286.061 194.021 286.877C190.701 287.929 184.301 291.972 184.301 291.972" fill="#ECCF8F"/>
<path d="M217.967 291.972H226.7C226.7 291.972 223.834 286.665 221.247 287.482C217.914 288.534 217.967 291.972 217.967 291.972Z" fill="#ECCF8F"/>
<path d="M219.661 196.37C219.035 197.85 209.808 200.581 209.808 200.581C209.808 200.581 207.768 194.238 208.795 192.105C209.808 189.972 220.901 193.405 219.661 196.37" fill="#F7936D"/>
<path d="M222.248 220.856L233.848 217.784L234.355 220.684L222.755 222.817L222.248 220.856Z" fill="#F89B2E"/>
<path d="M194.607 182.636L185.58 194.293L183.514 192.19L193.06 180.673L194.607 182.636" fill="#F89B2E"/>
<path d="M209.275 206.522C209.275 206.522 197.328 218.637 197.421 218.381C197.501 218.125 204.075 219.576 204.075 219.576L191.781 233.737L211.835 217.869L202.875 216.589L209.275 206.522" fill="#F89B2E"/>
<path d="M215.194 205.788C213.541 205.788 211.968 205.529 210.554 204.902C209.874 204.597 209.221 204.252 208.621 203.87C209.128 203.421 209.674 202.779 210.208 202.021C211.581 201.672 213.594 201.112 215.541 200.397C215.914 201.997 216.434 203.813 217.048 205.688C216.421 205.753 215.808 205.788 215.194 205.788" fill="#D03B22"/>
<path d="M211.1 186.237L211.366 185.582L211.1 186.237ZM222.726 185.11L219.22 184.028L222.726 185.11Z" fill="#662818"/>
<path d="M219.834 196.326C219.794 196.294 219.754 196.262 219.701 196.229C220.368 193.945 213.981 191.441 210.648 191.441C209.714 191.441 209.008 191.642 208.794 192.105C208.794 192.109 208.781 192.113 208.781 192.116C208.781 192.116 208.781 192.116 208.768 192.116L211.101 186.237L211.368 185.582L219.221 184.028L222.728 185.11L219.834 196.326" fill="#D75844"/>
<path d="M207.7 192.161C205.5 191.9 203.286 190.794 201.26 189.37C201.26 189.366 201.26 189.364 201.26 189.361C203.286 190.786 205.5 191.9 207.713 192.16C207.713 192.161 207.713 192.161 207.7 192.161Z" fill="#DD9F99"/>
<path d="M208.621 203.87C202.941 200.288 200.821 193.622 201.261 189.37C203.288 190.794 205.501 191.9 207.701 192.161C207.594 192.176 207.474 192.196 207.368 192.218C206.341 194.352 208.501 202.428 208.501 202.428C208.501 202.428 209.181 202.285 210.208 202.021C209.675 202.779 209.128 203.421 208.621 203.87" fill="#D03B22"/>
<path d="M217.048 205.688C216.434 203.813 215.914 201.997 215.541 200.397C217.834 199.546 220.034 198.476 220.901 197.28C220.901 197.276 220.901 197.272 220.888 197.268C223.421 198.989 225.448 200.849 227.061 202.734C224.168 204.022 220.528 205.324 217.048 205.688Z" fill="#D03B22"/>
<path d="M208.5 202.428C208.5 202.428 206.34 194.352 207.367 192.218C207.473 192.196 207.593 192.176 207.7 192.161C207.713 192.161 207.713 192.161 207.713 192.16C207.727 192.162 207.74 192.165 207.767 192.166C208.007 192.136 208.273 192.117 208.553 192.117C208.62 192.117 208.7 192.118 208.767 192.121V192.116C208.78 192.116 208.78 192.116 208.78 192.116C207.767 194.26 209.807 200.581 209.807 200.581C209.807 200.581 219.033 197.85 219.66 196.37C219.673 196.324 219.687 196.277 219.7 196.229C219.753 196.262 219.793 196.294 219.833 196.326V196.328C220.247 196.644 220.607 196.956 220.887 197.26C220.887 197.262 220.887 197.265 220.887 197.268C220.9 197.272 220.9 197.276 220.9 197.28C220.033 198.476 217.833 199.546 215.54 200.397C213.593 201.112 211.58 201.672 210.207 202.021C209.18 202.285 208.5 202.428 208.5 202.428" fill="#DC6E1D"/>
<path d="M209.807 200.581C209.807 200.581 207.767 194.26 208.78 192.116C208.78 192.113 208.794 192.109 208.794 192.105C209.007 191.642 209.714 191.441 210.647 191.441C213.98 191.441 220.367 193.945 219.7 196.229C219.687 196.277 219.674 196.324 219.66 196.37C219.034 197.85 209.807 200.581 209.807 200.581Z" fill="#D75844"/>
<path d="M223.647 191.762C217.78 193.828 198.593 188.004 199.66 174.829C200.713 161.653 221.633 152.322 230.22 153.481C238.793 154.638 255.553 180.524 223.647 191.762" fill="#FAB988"/>
<path d="M240.954 164.622C243.34 173.094 240.46 183.642 222.993 189.798C218.087 191.524 203.873 187.732 199.967 178.742C202.5 189.138 218.407 193.61 223.647 191.762C242.5 185.122 244.354 173.366 240.954 164.622" fill="#F89F76"/>
<path d="M230.061 187.001C233.328 185.642 237.528 188.804 234.408 190.07C231.274 191.338 222.514 190.153 230.061 187.001Z" fill="#F89F76"/>
<path d="M229.86 187.368C232.193 186.394 235.207 188.657 232.967 189.567C230.727 190.473 224.447 189.625 229.86 187.368Z" fill="#EB744F"/>
<path d="M228.954 187.606C230.608 186.917 232.741 188.518 231.154 189.161C229.568 189.804 225.128 189.204 228.954 187.606Z" fill="#F89F76"/>
<path d="M227.847 187.812C230.167 186.461 231.967 186.124 234.861 187.545C234.861 187.545 248.381 175.73 248.807 169.821C248.807 169.821 242.141 167.35 240.527 168.384C235.554 171.549 236.221 182.201 226.061 187.121L227.847 187.812Z" fill="#773C1D"/>
<path d="M226.18 175.061C227.647 173.388 226.807 172.238 225.42 171.017C224.007 169.77 222.447 168.877 220.794 170.509C219.047 172.221 220.354 173.26 221.914 174.541C223.434 175.79 224.62 176.81 226.18 175.061" fill="#D95521"/>
<path d="M212.262 162.925C213.635 161.324 215.222 161.935 216.582 163.132C217.968 164.359 218.635 165.844 217.328 167.619C215.955 169.481 214.782 168.327 213.355 166.965C211.955 165.633 210.808 164.6 212.262 162.925Z" fill="#D95521"/>
<path d="M226.113 175.13C227.593 173.449 227.207 171.817 225.807 170.584C224.407 169.346 222.54 168.973 221.06 170.653C219.567 172.334 220.727 173.314 222.113 174.548C223.513 175.782 224.633 176.81 226.113 175.13Z" fill="#FFFAE9"/>
<path d="M217.354 167.191C218.674 165.379 218.114 163.661 216.607 162.563C215.101 161.464 213.221 161.397 211.901 163.211C210.581 165.025 211.821 165.891 213.327 166.988C214.834 168.088 216.034 169.004 217.354 167.191" fill="#FFFAE9"/>
<path d="M228.595 173.5C228.581 171.26 226.901 169.63 226.395 169.448L226.848 168.49C227.768 168.832 229.568 170.846 229.581 173.337L228.595 173.5Z" fill="#914A22"/>
<path d="M217.994 162.242C216.061 160.777 213.327 160.98 212.754 161.249L212.301 160.27C213.327 159.796 216.501 159.754 218.648 161.384L217.994 162.242" fill="#914A22"/>
<path d="M224.047 172.373C224.66 171.689 224.62 170.672 223.967 170.097C223.327 169.525 222.314 169.616 221.7 170.301C221.1 170.984 221.127 172.004 221.78 172.576C222.42 173.149 223.447 173.058 224.047 172.373Z" fill="#7BABC7"/>
<path d="M223.714 171.597C223.981 171.286 223.981 170.824 223.674 170.562C223.381 170.305 222.928 170.345 222.648 170.654C222.381 170.968 222.394 171.43 222.687 171.689C222.981 171.952 223.434 171.909 223.714 171.597Z" fill="#9FD1E5"/>
<path d="M215.126 164.985C215.74 164.301 215.7 163.28 215.06 162.708C214.406 162.136 213.393 162.226 212.78 162.909C212.18 163.594 212.22 164.616 212.86 165.188C213.513 165.76 214.526 165.672 215.126 164.985" fill="#7BABC7"/>
<path d="M214.993 164.386C215.273 164.076 215.26 163.613 214.967 163.353C214.66 163.092 214.207 163.133 213.927 163.444C213.66 163.756 213.673 164.218 213.967 164.48C214.26 164.738 214.713 164.7 214.993 164.386Z" fill="#9FD1E5"/>
<path d="M215.634 179.257C215.781 178.525 210.288 174.272 209.221 174.4C208.181 174.524 208.328 178.928 209.568 180.072C210.808 181.226 215.328 180.626 215.634 179.257Z" fill="#4D2521"/>
<path d="M215.02 178.932C215.14 178.325 210.567 174.785 209.687 174.886C209.353 174.924 209.167 175.477 209.113 176.2L213.367 179.954C214.22 179.756 214.913 179.401 215.02 178.932" fill="#FEF0F1"/>
<path d="M216.434 174.865C215.594 174.533 215.154 173.649 215.314 172.8C215.208 172.941 215.101 173.093 215.034 173.272C214.687 174.206 215.141 175.265 216.074 175.64C216.994 176.006 218.034 175.554 218.381 174.62L218.461 174.321C217.994 174.917 217.181 175.166 216.434 174.865" fill="#F7936D"/>
<path d="M245.167 167.868C236.753 170.137 225.887 154.78 226.793 152.049C232.513 153.694 233.767 152.412 238.713 156.644C243.66 160.877 250.38 166.462 245.167 167.868Z" fill="#914A22"/>
<path d="M70.7598 185.224C74.2851 185.905 83.1571 185.337 89.0717 181.357C89.0717 181.357 85.5464 187.27 79.1758 187.27C72.8064 187.27 70.7598 185.224 70.7598 185.224Z" fill="#543424"/>
<path d="M76.1055 172.144L76.2762 175.214L84.8922 173.166L84.8068 168.218L76.1055 172.144" fill="#543424"/>
<path d="M76.6738 171.005L77.0151 173.736L84.4085 172.256L83.9538 168.276L76.6738 171.005Z" fill="#B9815B"/>
<path d="M53.2428 227.168C51.9335 226.117 51.3082 222.192 51.3082 220.088L48.4121 227.962C48.4121 227.962 48.9415 228.856 49.6495 229.654C50.9815 227.466 51.7922 226.613 53.2428 227.168" fill="#543424"/>
<path d="M99.4809 217.186C101.058 216.845 102.167 226.229 104.527 228.137C101.954 226.656 99.0742 226.66 99.0742 226.66L99.4809 217.186Z" fill="#543424"/>
<path d="M129.473 126.682C121.047 126.109 119.247 121.136 121.993 113.474C121.767 113.736 121.567 114.008 121.42 114.3C116.82 123.924 117.78 130.348 127.433 131.005C137.087 131.661 151.5 110.716 162.087 96.9078L161.38 96.2171C151.153 109.774 138.313 127.284 129.473 126.682" fill="#F7936D"/>
<path d="M10.1918 141.442C7.98651 132.478 12.5425 130.277 22.1425 131.364C21.1412 130.382 20.1611 129.756 19.1571 129.616C8.58774 128.152 2.76109 131.022 5.07309 140.418C7.38643 149.813 31.7251 157.172 48.1011 163.06L48.4359 162.39C32.4799 156.8 12.2892 149.957 10.1918 141.442" fill="#F7936D"/>
<path d="M82.7148 101.874L96.5122 100.444L96.4309 103.285L90.7296 105.742L83.0335 104.502L82.7148 101.874" fill="#4D84B8"/>
<path d="M81.4785 98.6052L97.1758 97.3251L96.9398 102.278L90.9452 104.726L82.8465 103.473L81.4785 98.6052" fill="#B5DFED"/>
<path d="M91.5447 102.614C91.5447 102.049 91.0873 101.59 90.522 101.59C89.9567 101.59 89.498 102.049 89.498 102.614C89.498 103.18 89.9567 103.638 90.522 103.638C91.0873 103.638 91.5447 103.18 91.5447 102.614Z" fill="#4D84B8"/>
<path d="M46.2455 108.842C47.9521 114.473 49.6574 126.245 57.1654 132.729C57.1654 132.729 48.464 129.146 46.928 124.54C45.2134 119.398 46.2455 108.842 46.2455 108.842" fill="#4D84B8"/>
<path d="M99.2079 113.062C99.0439 117.956 99.7266 128.018 96.4746 134.156C96.4746 134.156 100.788 130.352 101 126.336C101.236 121.853 99.2079 113.062 99.2079 113.062Z" fill="#4D84B8"/>
<path d="M49.6581 163.782L47.5527 175.499C54.8327 175.952 72.0673 170.721 72.0673 170.721C63.0247 172.427 50.6821 166.172 49.6581 163.782Z" fill="#4D84B8"/>
<path d="M246.514 164.439C246.66 165.395 246.154 166.143 244.66 166.544C237.794 168.395 229.314 158.531 226.9 153.343C228.207 157.895 237.38 170.855 244.887 168.831C247.007 168.257 247.434 166.027 246.514 164.439" fill="#773C1D"/>
<path d="M84.5078 150.608C92.1945 148.957 93.4544 147.509 98.529 137.033C88.7477 145.657 94.2771 145.082 84.5078 150.608Z" fill="#4D84B8"/>
<path d="M73.8066 89.5358C73.6533 88.7331 72.9306 88.1958 72.1906 88.3358C71.4493 88.4758 70.9719 89.2398 71.1239 90.0424C71.2746 90.8464 71.9986 91.3824 72.7399 91.2424C73.4813 91.1024 73.9573 90.3398 73.8066 89.5358Z" fill="#D7F2FD"/>
<path d="M74.2615 94.7691C74.1082 93.9651 73.3857 93.4277 72.6457 93.5677C71.9043 93.7077 71.427 94.4717 71.579 95.2757C71.7297 96.0784 72.4535 96.6144 73.1949 96.4757C73.9349 96.3357 74.4135 95.5717 74.2615 94.7691Z" fill="#D7F2FD"/>
<path d="M159.314 100.369C159.78 101.333 159.474 102.012 158.447 102.406C157.42 102.802 152.287 98.8838 152.54 97.9691C152.794 97.0558 153.314 96.4611 154.1 96.3078C154.874 96.1505 158.714 99.1665 159.314 100.369" fill="#524239"/>
<path d="M177.142 96.3385C178.195 95.4879 182.715 92.7559 183.595 87.1305C184.822 79.1985 177.848 71.3292 175.782 71.4479C168.515 71.8599 168.342 85.1159 163.915 84.0972C161.542 82.7319 166.982 72.5252 163.835 70.5132C161.128 68.7719 154.888 77.3439 153.382 81.0799C151.422 85.9226 151.128 90.8545 151.982 93.9865C152.742 96.7492 157.635 102.077 163.328 102.287C166.822 102.412 173.235 99.4799 177.142 96.3385Z" fill="#524239"/>
<path d="M163.195 78.6785C163.195 78.6785 165.968 80.3291 169.715 79.8238L168.061 83.1451C168.061 83.1451 165.381 80.7145 161.395 81.9651L163.195 78.6785Z" fill="#524239"/>
<path d="M163.714 72.8411C163.714 72.8411 167.501 73.7838 172.821 74.4558L170.301 78.5171C170.301 78.5171 167.634 75.6531 163.234 76.6291L163.714 72.8411Z" fill="#524239"/>
<path d="M176.354 95.4958C177.328 94.7078 181.501 92.1891 182.301 86.9958C183.448 79.6785 177.008 72.4145 175.101 72.5265C169.274 72.8758 169.194 86.1998 164.154 85.0265C158.928 84.0638 165.821 73.5039 163.808 72.0052C161.301 70.3985 155.821 77.9665 154.421 81.4118C152.621 85.8838 152.354 90.4318 153.141 93.3238C153.834 95.8718 158.354 100.79 163.594 100.978C166.821 101.1 172.754 98.3918 176.354 95.4958Z" fill="#967964"/>
<path d="M163.567 73.5332C166.687 73.9959 168.634 74.2412 171.687 75.0678L170.847 78.1719C170.847 78.1719 168.514 75.4292 162.9 75.9812L163.567 73.5332Z" fill="#967964"/>
<path d="M162.128 78.7838C163.568 80.0251 167.875 80.8078 170.021 80.1785L169.381 83.4344C169.381 83.4344 166.701 80.6491 161.475 81.2118L162.128 78.7838" fill="#967964"/>
<path d="M162.275 90.4664C161.928 90.1504 166.981 84.9544 169.341 81.3957C171.781 77.681 174.141 73.989 174.901 74.165C176.408 74.5104 178.981 77.4597 178.715 78.6597C178.435 79.8624 164.435 92.4611 162.275 90.4664" fill="#BE9C85"/>
<path d="M164.194 92.6598C163.954 92.2211 170.82 86.9691 173.927 84.5865C176.674 82.4718 178.927 79.7998 179.554 80.1665C180.887 80.9478 181.927 85.6571 181.314 86.7184C180.687 87.7798 165.66 95.2104 164.194 92.6598" fill="#BE9C85"/>
<path d="M156.888 91.6865C157.942 90.9158 161.368 88.8011 161.368 81.5878C161.368 78.1624 163.408 74.2091 162.808 73.8198C161.115 72.7291 156.062 78.8078 155.168 81.3772C154.302 83.8998 151.462 95.6665 156.888 91.6865Z" fill="#BE9C85"/>
<path d="M165.58 96.065C165.674 95.5464 169.914 93.245 173.541 91.6504C176.754 90.2344 179.54 88.1504 180.127 88.6624C181.367 89.7504 178.034 93.7184 175.794 95.2971C174.794 95.9984 164.38 103.005 165.58 96.065" fill="#BE9C85"/>
<path d="M161.06 91.8438C160.234 91.4305 155.14 93.3518 154.954 94.7958C154.78 96.2345 163.38 101.101 164.314 98.7371C165.194 96.4771 162.407 92.5172 161.06 91.8438" fill="#BE9C85"/>
<path d="M163.861 86.3478L161.927 85.4825C161.927 85.4825 160.527 90.0784 161.274 89.5237C162.021 88.9637 163.861 86.3478 163.861 86.3478" fill="#BE9C85"/>
<path d="M185.393 115.536C182.726 115.492 180.527 117.622 180.473 120.296C180.433 122.968 182.566 125.169 185.233 125.212C187.913 125.256 190.113 123.125 190.153 120.45C190.193 117.78 188.073 115.578 185.393 115.536Z" fill="#E8DFC1"/>
<path d="M189.688 122.452C188.035 123.678 185.475 124.466 183.741 123.622C182.888 123.21 182.275 122.127 182.128 120.795C181.981 119.467 182.341 118.288 183.061 117.711C184.248 116.765 186.235 116.527 188.795 117.016L188.928 117.145C188.848 117.156 188.528 117.09 188.035 117.024C186.795 116.854 184.568 116.684 183.155 117.814C182.461 118.364 182.115 119.5 182.261 120.778C182.408 122.066 182.995 123.11 183.795 123.501C184.995 124.085 187.221 124.066 189.781 122.234L189.688 122.452" fill="#686357"/>
<path d="M189.048 122.812C189.035 122.865 189.128 122.917 189.248 122.925C189.368 122.938 189.475 122.906 189.488 122.854L189.288 122.741L189.048 122.812Z" fill="#686357"/>
<path d="M189.221 122.662L189.421 122.544L189.474 122.297L189.274 122.418L189.221 122.662" fill="#686357"/>
<path d="M188.58 123.094C188.58 123.148 188.673 123.19 188.793 123.19C188.913 123.19 189.02 123.149 189.02 123.097C189.033 123.045 188.94 123.001 188.82 123.001L188.58 123.094" fill="#686357"/>
<path d="M188.754 122.929L188.941 122.792L188.967 122.544L188.781 122.68L188.754 122.929" fill="#686357"/>
<path d="M188.101 123.328C188.088 123.38 188.181 123.424 188.301 123.424L188.541 123.328C188.541 123.275 188.448 123.236 188.328 123.233C188.208 123.232 188.101 123.275 188.101 123.328" fill="#686357"/>
<path d="M188.26 123.16L188.446 123.024L188.473 122.777L188.286 122.912L188.26 123.16" fill="#686357"/>
<path d="M187.554 123.569C187.541 123.621 187.634 123.664 187.767 123.665C187.887 123.665 187.981 123.624 187.994 123.572C187.994 123.518 187.901 123.474 187.781 123.476C187.661 123.476 187.554 123.518 187.554 123.569Z" fill="#686357"/>
<path d="M187.715 123.401L187.901 123.266L187.942 123.017L187.755 123.153L187.715 123.401Z" fill="#686357"/>
<path d="M186.993 123.733C186.98 123.784 187.073 123.836 187.193 123.848C187.313 123.858 187.42 123.828 187.433 123.777C187.447 123.726 187.353 123.672 187.233 123.661C187.113 123.649 187.007 123.68 186.993 123.733Z" fill="#686357"/>
<path d="M187.182 123.584L187.382 123.465L187.435 123.221L187.235 123.337L187.182 123.584Z" fill="#686357"/>
<path d="M186.395 123.872L186.581 124.004L186.821 123.953L186.635 123.821L186.395 123.872Z" fill="#686357"/>
<path d="M186.58 123.737L186.793 123.638L186.873 123.398L186.66 123.496L186.58 123.737Z" fill="#686357"/>
<path d="M185.74 123.945L185.914 124.093L186.167 124.065L185.98 123.917L185.74 123.945Z" fill="#686357"/>
<path d="M185.941 123.828L186.155 123.749L186.261 123.516L186.048 123.599L185.941 123.828Z" fill="#686357"/>
<path d="M185.794 116.781L185.634 116.62L185.381 116.636L185.541 116.794L185.794 116.781" fill="#686357"/>
<path d="M185.581 116.888L185.368 116.953L185.248 117.182L185.475 117.114L185.581 116.888Z" fill="#686357"/>
<path d="M186.394 116.729L186.22 116.568L185.98 116.581L186.14 116.742L186.394 116.729" fill="#686357"/>
<path d="M186.167 116.834L185.954 116.901L185.834 117.129L186.061 117.06L186.167 116.834Z" fill="#686357"/>
<path d="M186.966 116.756L186.82 116.581L186.566 116.571L186.713 116.748L186.966 116.756Z" fill="#686357"/>
<path d="M186.741 116.839L186.514 116.888L186.381 117.103L186.608 117.054L186.741 116.839Z" fill="#686357"/>
<path d="M187.58 116.823L187.447 116.633L187.193 116.603L187.327 116.789L187.58 116.823Z" fill="#686357"/>
<path d="M187.354 116.885L187.114 116.913L186.967 117.117L187.193 117.09L187.354 116.885" fill="#686357"/>
<path d="M188.208 116.967L188.101 116.767L187.861 116.712L187.968 116.912L188.208 116.967Z" fill="#686357"/>
<path d="M187.98 117.01L187.753 117.014L187.58 117.205L187.807 117.198L187.98 117.01Z" fill="#686357"/>
<path d="M188.807 117.089L188.687 116.888L188.447 116.834L188.554 117.033L188.807 117.089Z" fill="#686357"/>
<path d="M188.728 117.053L188.488 117.06L188.328 117.25L188.555 117.242L188.728 117.053Z" fill="#686357"/>
<path d="M185.127 123.965L185.3 124.128L185.54 124.12L185.38 123.958L185.127 123.965" fill="#686357"/>
<path d="M185.354 123.868L185.567 123.806L185.687 123.584L185.46 123.645L185.354 123.868Z" fill="#686357"/>
<path d="M184.5 123.908L184.647 124.088L184.9 124.108L184.753 123.928L184.5 123.908Z" fill="#686357"/>
<path d="M184.727 123.834L184.953 123.797L185.1 123.588L184.873 123.625L184.727 123.834Z" fill="#686357"/>
<path d="M183.967 123.676L184.047 123.896L184.274 124L184.193 123.78L183.967 123.676Z" fill="#686357"/>
<path d="M184.154 123.664L184.381 123.628L184.514 123.418L184.288 123.457L184.154 123.664Z" fill="#686357"/>
<path d="M183.34 123.388L183.38 123.614L183.593 123.746L183.553 123.52L183.34 123.388Z" fill="#686357"/>
<path d="M183.514 123.398L183.754 123.392L183.914 123.204L183.687 123.21L183.514 123.398Z" fill="#686357"/>
<path d="M182.954 122.949L182.914 123.176L183.061 123.376L183.114 123.148L182.954 122.949Z" fill="#686357"/>
<path d="M183.128 123.021C183.115 123.076 183.221 123.11 183.341 123.098L183.555 122.984C183.568 122.932 183.461 122.896 183.341 122.906C183.221 122.918 183.128 122.97 183.128 123.021Z" fill="#686357"/>
<path d="M182.647 122.416C182.607 122.407 182.554 122.496 182.541 122.62C182.527 122.74 182.554 122.844 182.607 122.854L182.727 122.656C182.74 122.535 182.7 122.427 182.647 122.416Z" fill="#686357"/>
<path d="M182.781 122.541L182.955 122.685L183.208 122.65L183.035 122.505L182.781 122.541Z" fill="#686357"/>
<path d="M182.421 121.905C182.367 121.897 182.314 121.985 182.314 122.106C182.301 122.228 182.327 122.336 182.381 122.345C182.434 122.356 182.487 122.266 182.501 122.144C182.514 122.022 182.474 121.914 182.421 121.905Z" fill="#686357"/>
<path d="M182.555 122.031L182.728 122.175L182.981 122.139L182.795 121.995L182.555 122.031Z" fill="#686357"/>
<path d="M182.274 121.322L182.127 121.503L182.167 121.75L182.314 121.568L182.274 121.322Z" fill="#686357"/>
<path d="M182.381 121.464L182.541 121.636L182.781 121.641L182.634 121.47L182.381 121.464Z" fill="#686357"/>
<path d="M182.154 120.767L181.98 120.923V121.172L182.154 121.02V120.767Z" fill="#686357"/>
<path d="M182.234 120.926L182.368 121.12L182.608 121.167L182.488 120.975L182.234 120.926" fill="#686357"/>
<path d="M182.542 118.28L182.315 118.34L182.182 118.561L182.408 118.5L182.542 118.28Z" fill="#686357"/>
<path d="M182.527 118.46L182.541 118.692L182.741 118.845L182.727 118.614L182.527 118.46Z" fill="#686357"/>
<path d="M182.954 117.865L182.727 117.84L182.527 118.002L182.767 118.029L182.954 117.865" fill="#686357"/>
<path d="M182.887 118.033L182.82 118.257C182.834 118.38 182.887 118.477 182.94 118.473C182.994 118.472 183.034 118.371 183.02 118.249L182.887 118.033Z" fill="#686357"/>
<path d="M183.475 117.52C183.488 117.469 183.395 117.422 183.275 117.421L183.034 117.51C183.021 117.561 183.114 117.608 183.234 117.609C183.368 117.613 183.461 117.573 183.475 117.52Z" fill="#686357"/>
<path d="M183.353 117.658C183.313 117.644 183.246 117.726 183.22 117.848C183.193 117.969 183.22 118.08 183.26 118.096C183.313 118.112 183.38 118.028 183.406 117.906C183.42 117.785 183.406 117.674 183.353 117.658Z" fill="#686357"/>
<path d="M183.98 117.256C183.98 117.202 183.9 117.157 183.767 117.156C183.647 117.15 183.54 117.19 183.54 117.244C183.527 117.296 183.62 117.341 183.74 117.344C183.86 117.348 183.967 117.309 183.98 117.256" fill="#686357"/>
<path d="M183.862 117.392C183.808 117.376 183.742 117.461 183.728 117.583C183.702 117.705 183.715 117.815 183.768 117.831C183.821 117.848 183.875 117.763 183.901 117.64C183.928 117.519 183.915 117.409 183.862 117.392Z" fill="#686357"/>
<path d="M184.554 117.065L184.367 116.933L184.127 116.985L184.314 117.118L184.554 117.065" fill="#686357"/>
<path d="M184.421 117.183L184.248 117.351L184.261 117.603L184.421 117.436V117.183" fill="#686357"/>
<path d="M185.101 116.909L184.941 116.749L184.688 116.758L184.861 116.922L185.101 116.909" fill="#686357"/>
<path d="M184.953 117.005L184.767 117.141L184.727 117.393L184.913 117.256L184.953 117.005" fill="#686357"/>
<path d="M182.127 120.161L181.94 120.297L181.9 120.547L182.087 120.409L182.127 120.161" fill="#686357"/>
<path d="M182.193 120.329L182.287 120.533L182.527 120.605L182.433 120.4L182.193 120.329Z" fill="#686357"/>
<path d="M182.181 119.52L181.981 119.638L181.928 119.881L182.128 119.766L182.181 119.52Z" fill="#686357"/>
<path d="M182.234 119.692L182.314 119.905L182.554 119.997L182.474 119.782L182.234 119.692Z" fill="#686357"/>
<path d="M182.367 118.862L182.14 118.937L182.033 119.162L182.26 119.089L182.367 118.862Z" fill="#686357"/>
<path d="M182.367 119.041L182.407 119.269L182.621 119.409L182.581 119.181L182.367 119.041Z" fill="#686357"/>
<path d="M180.621 121.538C180.608 121.509 180.608 121.481 180.595 121.453C180.608 121.481 180.608 121.509 180.621 121.537C180.621 121.537 180.621 121.537 180.621 121.538ZM180.595 121.428C180.595 121.426 180.595 121.426 180.595 121.425C180.595 121.425 180.595 121.426 180.595 121.428ZM180.541 121.122C180.488 120.853 180.475 120.577 180.475 120.296C180.475 120.577 180.501 120.853 180.541 121.122Z" fill="#F2EDDC"/>
<path d="M180.621 121.537C180.608 121.509 180.608 121.481 180.595 121.453C180.595 121.444 180.595 121.436 180.595 121.428C180.595 121.426 180.595 121.425 180.595 121.425C180.568 121.325 180.555 121.225 180.541 121.122C180.501 120.853 180.475 120.577 180.475 120.296C180.528 117.648 182.675 115.534 185.315 115.534C185.341 115.534 185.368 115.534 185.395 115.536C186.675 115.556 187.821 116.066 188.675 116.884L188.448 116.834L188.528 116.965C188.408 116.945 188.288 116.928 188.181 116.91L188.101 116.766L188.035 116.752C188.008 116.4 186.968 115.581 185.408 115.581C185.168 115.581 184.928 115.6 184.675 115.642C182.488 115.993 181.208 117.84 181.475 118.024C181.488 118.034 181.501 118.04 181.528 118.04C181.741 118.04 182.355 117.632 183.595 117.188C183.555 117.202 183.541 117.222 183.541 117.244C183.528 117.281 183.581 117.316 183.648 117.333C183.581 117.372 183.501 117.413 183.435 117.456C183.395 117.436 183.341 117.421 183.275 117.421L183.035 117.51C183.035 117.556 183.101 117.598 183.208 117.608C183.155 117.641 183.115 117.676 183.061 117.71C183.008 117.757 182.955 117.806 182.901 117.86L182.728 117.84L182.528 118.002L182.755 118.028C182.568 118.265 182.408 118.556 182.301 118.884L182.141 118.937L182.035 119.162L182.235 119.096C182.195 119.238 182.168 119.388 182.141 119.542L181.981 119.638L181.941 119.82C181.275 120.233 180.781 120.804 180.621 121.537V121.537ZM182.541 118.28L182.315 118.34L182.181 118.561L182.408 118.5L182.541 118.28ZM190.048 121.428C189.648 119.826 187.475 118.997 185.315 118.997C184.221 118.997 183.128 119.21 182.261 119.644C182.288 119.445 182.328 119.254 182.381 119.074L182.408 119.269L182.621 119.409L182.581 119.181L182.381 119.049C182.435 118.9 182.488 118.757 182.541 118.624V118.692L182.741 118.845L182.728 118.614L182.595 118.512C182.675 118.356 182.768 118.213 182.875 118.088L182.821 118.257C182.835 118.377 182.888 118.473 182.941 118.473C182.995 118.472 183.035 118.37 183.021 118.249L182.901 118.054C182.981 117.965 183.061 117.885 183.155 117.814C183.181 117.785 183.221 117.756 183.261 117.726C183.248 117.758 183.235 117.8 183.221 117.848C183.195 117.969 183.221 118.08 183.261 118.096C183.275 118.098 183.275 118.098 183.275 118.098C183.328 118.098 183.381 118.018 183.408 117.906C183.421 117.788 183.408 117.678 183.355 117.66C183.821 117.348 184.355 117.154 184.901 117.041L184.768 117.141L184.728 117.393L184.915 117.256L184.941 117.032C185.088 117.005 185.221 116.982 185.355 116.965L185.248 117.182L185.475 117.114L185.555 116.941C185.688 116.928 185.821 116.918 185.955 116.912L185.835 117.129L186.061 117.06L186.141 116.905C186.221 116.902 186.315 116.901 186.395 116.901C186.435 116.901 186.475 116.901 186.515 116.902L186.381 117.102L186.608 117.054L186.701 116.905C186.835 116.91 186.981 116.917 187.115 116.926L186.968 117.117L187.195 117.09L187.301 116.941C187.541 116.961 187.755 116.985 187.941 117.01L187.755 117.014L187.581 117.205L187.808 117.198L187.981 117.014C187.995 117.018 188.021 117.021 188.035 117.024C188.208 117.046 188.341 117.068 188.475 117.088L188.328 117.25L188.555 117.242L188.661 117.117C188.781 117.136 188.861 117.146 188.915 117.146C188.915 117.146 188.915 117.146 188.928 117.146C189.701 118.008 190.168 119.145 190.155 120.389C190.155 120.409 190.155 120.43 190.155 120.45C190.155 120.786 190.115 121.114 190.048 121.428V121.428ZM183.848 117.39C183.795 117.39 183.741 117.47 183.728 117.582C183.701 117.705 183.715 117.814 183.768 117.83C183.768 117.832 183.781 117.833 183.781 117.833C183.835 117.833 183.875 117.753 183.901 117.64C183.928 117.518 183.915 117.409 183.861 117.392C183.848 117.39 183.848 117.39 183.848 117.39ZM184.421 117.182L184.248 117.35L184.261 117.602L184.421 117.436V117.182V117.182ZM183.941 117.197C183.901 117.173 183.848 117.156 183.768 117.156C183.768 117.154 183.755 117.154 183.755 117.154C183.715 117.154 183.688 117.158 183.648 117.166C183.808 117.112 183.968 117.056 184.141 117.001L184.248 117.078C184.141 117.114 184.048 117.154 183.941 117.197V117.197ZM188.861 117.082L188.795 117.016C188.781 117.013 188.768 117.01 188.755 117.008L188.701 116.918C188.755 116.972 188.808 117.026 188.861 117.082V117.082ZM184.475 117.01L184.368 116.933L184.355 116.937C184.461 116.902 184.581 116.868 184.715 116.833C184.728 116.829 184.741 116.825 184.755 116.821L184.848 116.917C184.728 116.945 184.595 116.976 184.475 117.01V117.01ZM185.075 116.876L184.968 116.772C185.128 116.738 185.301 116.717 185.461 116.705L185.541 116.794L185.795 116.781L185.715 116.694C185.741 116.693 185.768 116.693 185.795 116.693C185.888 116.693 185.995 116.697 186.101 116.702L186.141 116.742L186.395 116.729L186.381 116.728C186.515 116.741 186.621 116.757 186.741 116.774C186.621 116.77 186.515 116.768 186.408 116.768C185.928 116.768 185.475 116.804 185.075 116.876Z" fill="#DACDA3"/>
<path d="M182.141 119.705L182.181 119.52L182.141 119.542C182.167 119.388 182.194 119.238 182.234 119.096L182.261 119.089L182.367 118.862L182.301 118.884C182.407 118.556 182.567 118.265 182.754 118.028L182.767 118.029L182.954 117.865L182.901 117.86C182.954 117.806 183.007 117.757 183.061 117.71C183.114 117.676 183.154 117.641 183.207 117.608C183.221 117.608 183.221 117.609 183.234 117.609C183.247 117.609 183.247 117.609 183.261 117.609C183.367 117.609 183.474 117.57 183.474 117.52C183.474 117.497 183.461 117.474 183.434 117.456C183.501 117.413 183.581 117.372 183.647 117.333C183.674 117.34 183.714 117.344 183.741 117.344C183.754 117.344 183.754 117.345 183.754 117.345C183.874 117.345 183.967 117.306 183.981 117.256C183.981 117.233 183.967 117.213 183.941 117.197C184.047 117.154 184.141 117.114 184.247 117.078L184.314 117.118L184.554 117.065L184.474 117.01C184.594 116.976 184.727 116.945 184.847 116.917L184.861 116.922L185.101 116.909L185.074 116.876C185.474 116.804 185.927 116.768 186.407 116.768C186.514 116.768 186.621 116.77 186.741 116.774C186.807 116.786 186.887 116.798 186.954 116.81C187.301 116.869 187.581 116.928 187.767 116.928C187.847 116.928 187.914 116.917 187.954 116.89L187.967 116.912L188.207 116.966L188.181 116.91C188.287 116.928 188.407 116.945 188.527 116.965L188.554 117.033L188.661 117.056L188.487 117.06L188.474 117.088C188.341 117.068 188.207 117.046 188.034 117.024C188.021 117.021 187.994 117.018 187.981 117.014V117.01H187.941C187.754 116.985 187.541 116.961 187.301 116.941L187.354 116.885L187.114 116.913V116.926C186.981 116.917 186.834 116.91 186.701 116.905L186.741 116.838L186.514 116.888V116.902C186.474 116.901 186.434 116.901 186.394 116.901C186.314 116.901 186.221 116.902 186.141 116.905L186.167 116.834L185.954 116.901V116.912C185.821 116.918 185.687 116.928 185.554 116.941L185.581 116.888L185.367 116.953L185.354 116.965C185.221 116.982 185.087 117.005 184.941 117.032L184.954 117.005L184.901 117.041C184.354 117.154 183.821 117.348 183.354 117.66C183.354 117.66 183.354 117.66 183.354 117.658C183.354 117.657 183.354 117.657 183.341 117.657C183.314 117.657 183.287 117.684 183.261 117.726C183.221 117.756 183.181 117.785 183.154 117.814C183.061 117.885 182.981 117.965 182.901 118.054L182.887 118.033L182.874 118.088C182.767 118.213 182.674 118.356 182.594 118.512L182.527 118.46L182.541 118.624C182.487 118.757 182.434 118.9 182.381 119.049L182.367 119.041L182.381 119.074C182.327 119.254 182.287 119.445 182.261 119.644C182.221 119.664 182.181 119.684 182.141 119.705V119.705ZM188.914 117.146C188.861 117.146 188.781 117.136 188.661 117.117L188.714 117.068L188.807 117.089L188.754 117.008C188.767 117.01 188.781 117.013 188.794 117.016L188.861 117.082C188.887 117.104 188.901 117.125 188.927 117.146C188.914 117.146 188.914 117.146 188.914 117.146Z" fill="#625B4A"/>
<path d="M185.541 116.794L185.461 116.705C185.541 116.7 185.621 116.696 185.714 116.694L185.794 116.781L185.541 116.794Z" fill="#625B4A"/>
<path d="M185.248 117.182L185.355 116.965L185.368 116.953L185.581 116.888L185.555 116.941L185.475 117.114L185.248 117.182" fill="#625B4A"/>
<path d="M186.14 116.742L186.1 116.702C186.193 116.709 186.286 116.717 186.38 116.728L186.393 116.729L186.14 116.742" fill="#625B4A"/>
<path d="M185.834 117.129L185.954 116.912V116.901L186.167 116.834L186.141 116.905L186.061 117.06L185.834 117.129" fill="#625B4A"/>
<path d="M186.381 117.103L186.514 116.903V116.888L186.741 116.839L186.701 116.905L186.608 117.054L186.381 117.103Z" fill="#625B4A"/>
<path d="M186.967 117.117L187.114 116.926V116.913L187.354 116.885L187.3 116.941L187.193 117.09L186.967 117.117" fill="#625B4A"/>
<path d="M188.207 116.967L187.966 116.912L187.953 116.891C187.993 116.873 188.006 116.849 188.02 116.816C188.033 116.797 188.033 116.776 188.033 116.752L188.1 116.767L188.18 116.911L188.207 116.967" fill="#625B4A"/>
<path d="M187.58 117.205L187.753 117.014L187.94 117.01H187.98V117.014L187.807 117.198L187.58 117.205" fill="#625B4A"/>
<path d="M188.807 117.089L188.714 117.068L188.727 117.053L188.661 117.056L188.554 117.033L188.527 116.965L188.447 116.834L188.674 116.884C188.687 116.894 188.687 116.906 188.701 116.918L188.754 117.008L188.807 117.089" fill="#625B4A"/>
<path d="M188.328 117.25L188.475 117.088L188.488 117.06L188.661 117.056L188.728 117.053L188.715 117.068L188.661 117.117L188.555 117.242L188.328 117.25" fill="#625B4A"/>
<path d="M182.182 118.561L182.315 118.34L182.542 118.28L182.408 118.5L182.182 118.561Z" fill="#625B4A"/>
<path d="M182.741 118.845L182.541 118.692V118.624L182.527 118.46L182.594 118.512L182.727 118.614L182.741 118.845" fill="#625B4A"/>
<path d="M182.767 118.029L182.754 118.028L182.527 118.002L182.727 117.84L182.901 117.86L182.954 117.865L182.767 118.029" fill="#625B4A"/>
<path d="M182.94 118.473C182.887 118.473 182.834 118.377 182.82 118.257L182.874 118.088L182.887 118.033L182.9 118.054L183.02 118.249C183.034 118.371 182.994 118.472 182.94 118.473Z" fill="#625B4A"/>
<path d="M183.26 117.609C183.247 117.609 183.247 117.609 183.233 117.609C183.22 117.609 183.22 117.608 183.207 117.608C183.1 117.598 183.033 117.556 183.033 117.51L183.273 117.421C183.34 117.421 183.393 117.436 183.433 117.456C183.46 117.474 183.473 117.497 183.473 117.52C183.473 117.57 183.367 117.609 183.26 117.609" fill="#625B4A"/>
<path d="M183.273 118.098C183.273 118.098 183.273 118.098 183.26 118.096C183.22 118.08 183.193 117.969 183.22 117.848C183.233 117.8 183.246 117.758 183.26 117.726C183.286 117.684 183.313 117.657 183.34 117.657C183.353 117.657 183.353 117.657 183.353 117.658C183.353 117.66 183.353 117.66 183.353 117.66C183.406 117.678 183.42 117.788 183.406 117.906C183.38 118.018 183.326 118.098 183.273 118.098Z" fill="#625B4A"/>
<path d="M183.754 117.345C183.754 117.345 183.754 117.344 183.741 117.344C183.714 117.344 183.674 117.34 183.648 117.333C183.581 117.316 183.528 117.281 183.541 117.244C183.541 117.222 183.554 117.202 183.594 117.188C183.608 117.181 183.634 117.174 183.648 117.166C183.688 117.158 183.714 117.154 183.754 117.154C183.754 117.154 183.768 117.154 183.768 117.156C183.848 117.156 183.901 117.173 183.941 117.197C183.968 117.213 183.981 117.233 183.981 117.256C183.968 117.306 183.874 117.345 183.754 117.345" fill="#625B4A"/>
<path d="M183.782 117.833C183.782 117.833 183.768 117.832 183.768 117.83C183.715 117.814 183.702 117.705 183.728 117.582C183.742 117.47 183.795 117.39 183.848 117.39C183.848 117.39 183.848 117.39 183.862 117.392C183.915 117.409 183.928 117.518 183.901 117.64C183.875 117.753 183.835 117.833 183.782 117.833Z" fill="#625B4A"/>
<path d="M184.314 117.118L184.247 117.078L184.141 117.001C184.207 116.98 184.274 116.958 184.354 116.937L184.367 116.933L184.474 117.01L184.554 117.065L184.314 117.118" fill="#625B4A"/>
<path d="M184.261 117.603L184.248 117.351L184.421 117.183V117.436L184.261 117.603" fill="#625B4A"/>
<path d="M184.861 116.922L184.847 116.917L184.754 116.821C184.821 116.802 184.901 116.787 184.967 116.772L185.074 116.876L185.101 116.909L184.861 116.922Z" fill="#625B4A"/>
<path d="M184.727 117.393L184.767 117.141L184.9 117.041L184.953 117.005L184.94 117.032L184.913 117.256L184.727 117.393" fill="#625B4A"/>
<path d="M181.941 119.82L181.981 119.639L182.141 119.542L182.181 119.52L182.141 119.705C182.075 119.743 182.008 119.781 181.941 119.82Z" fill="#625B4A"/>
<path d="M182.033 119.162L182.14 118.937L182.3 118.884L182.367 118.862L182.26 119.089L182.233 119.096L182.033 119.162" fill="#625B4A"/>
<path d="M182.621 119.409L182.407 119.269L182.381 119.075L182.367 119.041L182.381 119.049L182.581 119.181L182.621 119.409" fill="#625B4A"/>
<path d="M181.528 118.04C181.501 118.04 181.488 118.034 181.474 118.024C181.208 117.84 182.488 115.993 184.674 115.642C184.928 115.6 185.168 115.581 185.408 115.581C186.968 115.581 188.008 116.4 188.034 116.752L187.861 116.712L187.954 116.878C187.528 116.821 187.128 116.786 186.741 116.774C186.621 116.757 186.514 116.741 186.381 116.728L186.221 116.568L185.981 116.581L186.101 116.702C185.994 116.697 185.888 116.693 185.794 116.693C185.768 116.693 185.741 116.693 185.714 116.694L185.634 116.62L185.381 116.636L185.461 116.705C185.301 116.717 185.128 116.738 184.968 116.772L184.941 116.749L184.688 116.758L184.754 116.821C184.741 116.825 184.728 116.829 184.714 116.833C184.581 116.868 184.461 116.902 184.354 116.937L184.128 116.985L184.141 117.001C183.968 117.056 183.808 117.112 183.648 117.166C183.621 117.172 183.608 117.18 183.594 117.188C182.354 117.632 181.741 118.04 181.528 118.04ZM187.194 116.602L187.328 116.789L187.581 116.822L187.448 116.633L187.194 116.602ZM186.568 116.57L186.714 116.748L186.968 116.756L186.821 116.581L186.568 116.57Z" fill="#E9E0BF"/>
<path d="M187.767 116.928C187.58 116.928 187.3 116.869 186.954 116.81C186.887 116.798 186.807 116.786 186.74 116.774C187.127 116.786 187.527 116.821 187.954 116.878V116.89C187.914 116.917 187.847 116.928 187.767 116.928" fill="#8E8060"/>
<path d="M185.461 116.705L185.381 116.636L185.634 116.62L185.714 116.694C185.621 116.696 185.541 116.7 185.461 116.705Z" fill="#8E8060"/>
<path d="M186.38 116.728C186.287 116.717 186.194 116.709 186.1 116.702L185.98 116.581L186.22 116.568L186.38 116.728Z" fill="#8E8060"/>
<path d="M186.966 116.756L186.713 116.748L186.566 116.571L186.82 116.581L186.966 116.756Z" fill="#8E8060"/>
<path d="M187.58 116.823L187.327 116.789L187.193 116.603L187.447 116.633L187.58 116.823Z" fill="#8E8060"/>
<path d="M187.955 116.89V116.878L187.861 116.712L188.035 116.752C188.035 116.776 188.035 116.797 188.021 116.816C188.008 116.849 187.995 116.873 187.955 116.89" fill="#8E8060"/>
<path d="M183.594 117.188C183.607 117.18 183.62 117.172 183.647 117.166C183.634 117.174 183.607 117.181 183.594 117.188Z" fill="#8E8060"/>
<path d="M184.14 117.001L184.127 116.985L184.354 116.937C184.274 116.958 184.207 116.98 184.14 117.001Z" fill="#8E8060"/>
<path d="M184.754 116.821L184.688 116.758L184.941 116.749L184.967 116.772C184.901 116.786 184.821 116.802 184.754 116.821Z" fill="#8E8060"/>
<path d="M185.261 124.845C185.221 124.845 185.168 124.845 185.128 124.844C183.061 124.786 181.488 123.502 181.528 122.404C181.541 122.017 181.768 121.793 182.155 121.666L182.168 121.75L182.261 121.636C182.261 121.633 182.275 121.63 182.288 121.626C182.315 121.726 182.355 121.824 182.381 121.918C182.341 121.946 182.315 122.018 182.315 122.106C182.301 122.228 182.328 122.336 182.381 122.345C182.381 122.346 182.395 122.346 182.395 122.346C182.435 122.346 182.475 122.281 182.488 122.189C182.528 122.273 182.568 122.354 182.608 122.433C182.568 122.465 182.542 122.533 182.542 122.62C182.528 122.74 182.555 122.844 182.608 122.854L182.728 122.656C182.728 122.653 182.728 122.649 182.728 122.645C182.795 122.762 182.875 122.873 182.955 122.974L182.915 123.176L183.061 123.376L183.101 123.15C183.301 123.35 183.515 123.51 183.742 123.622C183.822 123.662 183.901 123.7 183.995 123.732L184.048 123.896L184.275 124L184.208 123.806C184.382 123.86 184.568 123.9 184.742 123.926L184.501 123.908L184.648 124.088L184.901 124.108L184.755 123.928C184.875 123.946 185.008 123.96 185.142 123.966L185.301 124.128L185.542 124.12L185.395 123.974C185.408 123.974 185.408 123.974 185.408 123.974C185.528 123.974 185.648 123.97 185.755 123.962L185.915 124.093L186.168 124.065L186.008 123.94C186.142 123.925 186.275 123.905 186.408 123.882L186.581 124.004L186.821 123.953L186.661 123.833C186.768 123.809 186.888 123.781 186.995 123.75C187.008 123.796 187.088 123.837 187.195 123.848C187.208 123.849 187.235 123.85 187.248 123.85C187.341 123.85 187.421 123.821 187.435 123.777C187.448 123.733 187.381 123.686 187.288 123.668C187.368 123.64 187.461 123.61 187.555 123.578C187.555 123.626 187.648 123.664 187.768 123.665C187.888 123.665 187.981 123.624 187.995 123.572C187.995 123.525 187.928 123.486 187.821 123.477C187.915 123.441 188.008 123.402 188.101 123.362C188.128 123.398 188.208 123.424 188.301 123.424L188.542 123.328C188.542 123.282 188.475 123.249 188.381 123.237C188.448 123.202 188.528 123.166 188.595 123.129C188.621 123.165 188.701 123.189 188.795 123.19C188.315 124.064 186.901 124.845 185.261 124.845V124.845ZM183.342 123.388L183.381 123.614L183.595 123.746L183.555 123.52L183.342 123.388ZM185.448 123.841L185.568 123.806L185.688 123.584L185.461 123.645L185.368 123.841C185.195 123.838 185.035 123.826 184.888 123.809L184.955 123.797L185.101 123.588L184.875 123.625L184.755 123.79C184.555 123.76 184.368 123.714 184.181 123.657L184.381 123.628L184.515 123.418L184.288 123.457L184.155 123.649C184.035 123.605 183.915 123.556 183.795 123.501C183.728 123.47 183.675 123.434 183.608 123.396L183.755 123.392L183.915 123.204L183.688 123.21L183.555 123.36C183.448 123.284 183.341 123.197 183.248 123.098C183.261 123.1 183.275 123.101 183.288 123.101C183.301 123.101 183.328 123.1 183.342 123.098L183.555 122.984C183.568 122.937 183.488 122.905 183.381 122.905C183.368 122.905 183.355 122.905 183.342 122.906C183.248 122.916 183.168 122.948 183.142 122.985C183.035 122.869 182.941 122.741 182.848 122.6L182.955 122.685L183.208 122.65L183.035 122.505L182.821 122.536C182.728 122.385 182.648 122.224 182.581 122.05L182.728 122.174L182.981 122.138L182.795 121.994L182.568 122.028C182.515 121.89 182.461 121.748 182.421 121.598C182.448 121.593 182.461 121.589 182.488 121.586L182.542 121.636L182.781 121.641L182.715 121.556C182.955 121.526 183.248 121.517 183.542 121.517C184.115 121.517 184.755 121.55 185.408 121.569C187.422 121.626 188.928 121.524 188.955 122.553L188.781 122.68L188.755 122.884C188.621 122.962 188.475 123.036 188.342 123.104L188.448 123.024L188.475 122.777L188.288 122.912L188.261 123.14C188.101 123.214 187.955 123.284 187.795 123.346L187.901 123.266L187.942 123.017L187.755 123.153L187.715 123.376C187.568 123.438 187.408 123.493 187.248 123.542L187.381 123.465L187.435 123.221L187.235 123.337L187.181 123.562C187.008 123.617 186.835 123.662 186.661 123.7L186.795 123.638L186.875 123.398L186.661 123.496L186.595 123.716C186.381 123.76 186.181 123.79 185.995 123.812L186.155 123.749L186.261 123.516L186.048 123.598L185.955 123.816C185.781 123.833 185.608 123.841 185.448 123.841V123.841ZM188.875 123.005C188.862 123.004 188.848 123.002 188.835 123.002C188.848 122.992 188.875 122.982 188.888 122.973C188.888 122.984 188.875 122.994 188.875 123.005" fill="#F2ECD4"/>
<path d="M185.407 123.974C185.407 123.974 185.407 123.974 185.394 123.974L185.38 123.958L185.127 123.965L185.14 123.966C185.007 123.96 184.874 123.946 184.754 123.928L184.74 123.926C184.567 123.9 184.38 123.86 184.207 123.806L184.194 123.78L183.967 123.676L183.994 123.732C183.9 123.7 183.82 123.662 183.74 123.622C183.514 123.51 183.3 123.35 183.1 123.15L183.114 123.148L182.954 122.949V122.974C182.874 122.873 182.794 122.762 182.727 122.645C182.74 122.529 182.7 122.426 182.647 122.416C182.634 122.416 182.62 122.422 182.607 122.433C182.567 122.354 182.527 122.273 182.487 122.189C182.487 122.174 182.5 122.16 182.5 122.144C182.514 122.022 182.474 121.914 182.42 121.905C182.407 121.905 182.394 121.909 182.38 121.918C182.354 121.824 182.314 121.726 182.287 121.626C182.327 121.617 182.38 121.608 182.42 121.598C182.46 121.748 182.514 121.89 182.567 122.028L182.554 122.03L182.58 122.05C182.647 122.224 182.727 122.385 182.82 122.536L182.78 122.541L182.847 122.6C182.94 122.741 183.034 122.869 183.14 122.985C183.127 122.997 183.127 123.009 183.127 123.021C183.114 123.061 183.167 123.089 183.247 123.098C183.34 123.197 183.447 123.284 183.554 123.36L183.514 123.398L183.607 123.396C183.674 123.434 183.727 123.47 183.794 123.501C183.914 123.556 184.034 123.605 184.154 123.649V123.664L184.18 123.657C184.367 123.714 184.554 123.76 184.754 123.79L184.727 123.834L184.887 123.809C185.034 123.826 185.194 123.838 185.367 123.841L185.354 123.868L185.447 123.841C185.607 123.841 185.78 123.833 185.954 123.816L185.94 123.828L185.994 123.812C186.18 123.79 186.38 123.76 186.594 123.716L186.58 123.737L186.66 123.7C186.834 123.662 187.007 123.617 187.18 123.562V123.584L187.247 123.542C187.407 123.493 187.567 123.438 187.714 123.376V123.401L187.794 123.346C187.954 123.284 188.1 123.214 188.26 123.14V123.16L188.34 123.104C188.474 123.036 188.62 122.962 188.754 122.884V122.929L188.94 122.794C188.927 122.854 188.914 122.914 188.887 122.973C188.874 122.982 188.847 122.992 188.834 123.002C188.834 123.001 188.82 123.001 188.82 123.001L188.58 123.094C188.58 123.106 188.594 123.118 188.594 123.129C188.527 123.166 188.447 123.202 188.38 123.237C188.367 123.234 188.34 123.233 188.327 123.233H188.314C188.194 123.233 188.1 123.276 188.1 123.328C188.087 123.34 188.1 123.352 188.1 123.362C188.007 123.402 187.914 123.441 187.82 123.477C187.807 123.476 187.794 123.476 187.78 123.476C187.66 123.476 187.554 123.518 187.554 123.569C187.554 123.572 187.554 123.576 187.554 123.578C187.46 123.61 187.367 123.64 187.287 123.668C187.274 123.665 187.247 123.662 187.234 123.661C187.22 123.66 187.194 123.658 187.18 123.658C187.087 123.658 187.007 123.688 186.994 123.733C186.994 123.74 186.994 123.745 186.994 123.75C186.887 123.781 186.767 123.809 186.66 123.833L186.634 123.821L186.394 123.872L186.407 123.882C186.274 123.905 186.14 123.925 186.007 123.94L185.98 123.917L185.74 123.945L185.754 123.962C185.647 123.97 185.527 123.974 185.407 123.974" fill="#988C70"/>
<path d="M188.793 123.19C188.7 123.189 188.62 123.165 188.593 123.129C188.593 123.118 188.58 123.106 188.58 123.094L188.82 123.001C188.82 123.001 188.833 123.001 188.833 123.002C188.847 123.002 188.86 123.004 188.873 123.005C188.847 123.066 188.82 123.129 188.793 123.19" fill="#988C70"/>
<path d="M188.754 122.929V122.884L188.781 122.68L188.954 122.553C188.954 122.573 188.954 122.593 188.954 122.614C188.954 122.674 188.954 122.734 188.941 122.794L188.754 122.929" fill="#988C70"/>
<path d="M188.3 123.424C188.206 123.424 188.126 123.399 188.1 123.363C188.1 123.352 188.086 123.34 188.1 123.328C188.1 123.276 188.193 123.233 188.313 123.233H188.326C188.34 123.233 188.366 123.235 188.38 123.237C188.473 123.249 188.54 123.283 188.54 123.328L188.3 123.424" fill="#988C70"/>
<path d="M188.26 123.16V123.14L188.286 122.912L188.473 122.777L188.446 123.024L188.34 123.104L188.26 123.16" fill="#988C70"/>
<path d="M187.768 123.665C187.648 123.664 187.555 123.626 187.555 123.578C187.555 123.576 187.555 123.572 187.555 123.569C187.555 123.518 187.661 123.476 187.781 123.476C187.795 123.476 187.808 123.476 187.821 123.477C187.928 123.486 187.995 123.525 187.995 123.572C187.981 123.624 187.888 123.665 187.768 123.665" fill="#988C70"/>
<path d="M187.715 123.401V123.376L187.755 123.153L187.942 123.017L187.901 123.266L187.795 123.347L187.715 123.401Z" fill="#988C70"/>
<path d="M187.248 123.85C187.234 123.85 187.207 123.849 187.194 123.848C187.087 123.837 187.007 123.796 186.994 123.75C186.994 123.745 186.994 123.74 186.994 123.733C187.007 123.688 187.088 123.658 187.181 123.658C187.194 123.658 187.221 123.66 187.234 123.661C187.247 123.662 187.274 123.665 187.287 123.668C187.381 123.686 187.447 123.733 187.434 123.777C187.421 123.821 187.341 123.85 187.248 123.85Z" fill="#988C70"/>
<path d="M187.182 123.584V123.562L187.235 123.337L187.435 123.221L187.382 123.465L187.248 123.542L187.182 123.584" fill="#988C70"/>
<path d="M186.581 124.004L186.408 123.882L186.395 123.872L186.635 123.821L186.661 123.833L186.821 123.953L186.581 124.004" fill="#988C70"/>
<path d="M186.58 123.737L186.593 123.716L186.66 123.496L186.873 123.398L186.793 123.638L186.66 123.7L186.58 123.737" fill="#988C70"/>
<path d="M185.914 124.093L185.754 123.962L185.74 123.945L185.98 123.917L186.007 123.94L186.167 124.065L185.914 124.093Z" fill="#988C70"/>
<path d="M185.941 123.828L185.955 123.816L186.048 123.599L186.261 123.516L186.155 123.749L185.995 123.812L185.941 123.828" fill="#988C70"/>
<path d="M185.3 124.128L185.14 123.966L185.127 123.965L185.38 123.958L185.394 123.974L185.54 124.12L185.3 124.128Z" fill="#988C70"/>
<path d="M185.354 123.868L185.367 123.841L185.46 123.645L185.687 123.584L185.567 123.806L185.447 123.841L185.354 123.868" fill="#988C70"/>
<path d="M184.9 124.108L184.647 124.088L184.5 123.908L184.74 123.926L184.753 123.928L184.9 124.108" fill="#988C70"/>
<path d="M184.727 123.834L184.753 123.79L184.873 123.625L185.1 123.588L184.953 123.797L184.887 123.809L184.727 123.834Z" fill="#988C70"/>
<path d="M184.274 124L184.047 123.896L183.993 123.732L183.967 123.676L184.193 123.78L184.207 123.806L184.274 124Z" fill="#988C70"/>
<path d="M184.154 123.664V123.649L184.288 123.457L184.514 123.418L184.381 123.628L184.181 123.657L184.154 123.664" fill="#988C70"/>
<path d="M183.593 123.746L183.38 123.614L183.34 123.388L183.553 123.52L183.593 123.746Z" fill="#988C70"/>
<path d="M183.514 123.398L183.554 123.36L183.687 123.21L183.914 123.204L183.754 123.392L183.607 123.396L183.514 123.398" fill="#988C70"/>
<path d="M183.061 123.376L182.914 123.176L182.954 122.974V122.949L183.114 123.148L183.101 123.15L183.061 123.376Z" fill="#988C70"/>
<path d="M183.287 123.101C183.274 123.101 183.26 123.1 183.247 123.098C183.167 123.089 183.114 123.061 183.127 123.021C183.127 123.009 183.127 122.997 183.14 122.985C183.167 122.948 183.247 122.916 183.34 122.906C183.354 122.905 183.367 122.905 183.38 122.905C183.487 122.905 183.567 122.937 183.554 122.984L183.34 123.098C183.327 123.1 183.3 123.101 183.287 123.101" fill="#988C70"/>
<path d="M182.607 122.854C182.554 122.844 182.527 122.74 182.541 122.62C182.541 122.533 182.567 122.465 182.607 122.433C182.621 122.423 182.634 122.416 182.647 122.416C182.7 122.427 182.74 122.529 182.727 122.645C182.727 122.649 182.727 122.653 182.727 122.656L182.607 122.854Z" fill="#988C70"/>
<path d="M182.955 122.685L182.848 122.6L182.781 122.541L182.821 122.536L183.035 122.505L183.208 122.65L182.955 122.685" fill="#988C70"/>
<path d="M182.394 122.346C182.394 122.346 182.381 122.346 182.381 122.345C182.327 122.336 182.301 122.228 182.314 122.106C182.314 122.018 182.341 121.946 182.381 121.918C182.394 121.909 182.407 121.905 182.421 121.905C182.474 121.914 182.514 122.022 182.501 122.144C182.501 122.16 182.487 122.174 182.487 122.189C182.474 122.281 182.434 122.346 182.394 122.346" fill="#988C70"/>
<path d="M182.728 122.175L182.581 122.051L182.555 122.031L182.568 122.028L182.795 121.995L182.981 122.139L182.728 122.175Z" fill="#988C70"/>
<path d="M182.168 121.75L182.154 121.667C182.181 121.656 182.221 121.645 182.261 121.636L182.168 121.75" fill="#988C70"/>
<path d="M182.78 121.641L182.54 121.636L182.486 121.586C182.553 121.574 182.633 121.564 182.713 121.556L182.78 121.641" fill="#988C70"/>
<path d="M42.0842 158.945C42.2589 159.977 47.1522 161.319 48.3762 164.887C48.5815 165.496 48.8335 166.453 49.1189 167.4C49.6242 169.085 50.9002 170.572 51.5749 170.193C52.1389 169.873 51.1748 168.824 50.7881 167.635C50.4535 166.589 50.3108 166.24 50.5708 166.125C50.7548 166.051 51.4401 167.269 52.2548 168.605C53.3001 170.325 54.2855 171.281 54.9535 170.867C55.5895 170.476 54.6002 169.545 53.8176 167.908C53.1389 166.479 52.7548 165.904 53.3828 165.499C53.6748 165.3 54.2375 166.184 55.3948 167.361C56.7441 168.723 57.9482 169.261 58.3815 168.796C59.0082 168.143 57.9109 167.951 56.5842 166.188C54.8762 163.913 52.9348 161.993 53.0335 160.215C53.1321 158.571 56.8148 158.297 56.1561 157.081C55.6348 156.125 52.7841 157.604 49.1001 158.995C46.1415 160.117 41.8949 157.848 42.0842 158.945" fill="#FAB988"/>
<path d="M185.287 162.233C184.581 161.772 184.887 157.731 182.621 155.681C182.221 155.333 181.594 154.839 180.981 154.323C179.887 153.407 179.141 151.988 179.594 151.615C179.967 151.301 180.487 152.349 181.247 153.016C181.927 153.601 182.141 153.82 182.287 153.663C182.394 153.551 181.687 152.653 180.927 151.623C179.954 150.3 179.514 149.262 179.994 148.904C180.447 148.561 180.861 149.592 181.847 150.696C182.714 151.657 183.021 152.124 183.487 151.789C183.714 151.641 183.207 150.942 182.661 149.709C182.021 148.276 181.941 147.214 182.394 147.044C183.034 146.792 182.887 147.664 183.834 149.21C185.034 151.201 185.927 153.251 187.247 153.752C188.474 154.209 189.634 151.583 190.354 152.459C190.901 153.151 189.074 154.776 187.1 157.042C185.5 158.864 186.034 162.725 185.287 162.233" fill="#FAB988"/>
<path d="M230.395 238.728C229.955 239.049 230.861 241.469 229.555 242.892C229.328 243.14 228.941 243.504 228.568 243.884C227.888 244.568 228.555 245.098 229.008 244.608C229.408 244.182 229.528 244.028 229.675 244.1C229.768 244.15 229.408 244.756 229.021 245.449C228.528 246.348 229.328 246.589 229.861 245.824C230.315 245.17 230.461 244.866 230.835 244.986C231.008 245.037 230.781 245.489 230.595 246.237C230.381 247.105 231.075 247.278 231.461 246.32C231.968 245.094 231.901 244.39 232.675 243.974C233.381 243.601 234.701 245.064 235.008 244.544C235.248 244.137 234.008 242.734 232.461 241.681C231.101 240.756 230.861 238.394 230.395 238.728" fill="#FAB988"/>
<path d="M225.58 241.17C233.967 246.602 256.313 266.181 270.833 274.828C278.26 279.257 283.82 283.188 286.233 280.233C288.433 277.517 282.647 273.977 275.087 268.506C261.433 258.624 235.047 244.866 226.713 239.733C226.1 239.358 225.58 241.17 225.58 241.17Z" fill="#F7A55E"/>
<path d="M285.673 276.784C285.647 277.173 285.5 277.549 285.22 277.906C282.807 280.861 277.247 276.93 269.82 272.5C256.14 264.353 235.527 246.512 226.167 239.929C225.82 240.35 225.58 241.17 225.58 241.17C233.967 246.602 256.313 266.181 270.833 274.828C278.26 279.257 283.82 283.188 286.233 280.233C287.047 279.218 286.753 278.088 285.673 276.784" fill="#DF7D3A"/>
<path d="M227.208 241.2C228.035 240.169 228.395 239.077 228.008 238.76C227.608 238.444 226.622 239.024 225.782 240.053C224.955 241.085 224.595 242.177 224.982 242.493C225.382 242.809 226.368 242.23 227.208 241.2Z" fill="#DF7D3A"/>
<path d="M232.074 246.426C232.567 245.945 232.794 245.37 232.567 245.144C232.341 244.918 231.754 245.122 231.261 245.605C230.767 246.086 230.541 246.658 230.754 246.885C230.981 247.112 231.567 246.906 232.074 246.426" fill="#FAB988"/>
<path d="M230.594 245.686C231.087 245.205 231.314 244.633 231.087 244.406C230.861 244.178 230.287 244.385 229.781 244.866C229.287 245.346 229.061 245.921 229.287 246.146C229.501 246.373 230.087 246.169 230.594 245.686Z" fill="#FAB988"/>
<path d="M229.621 244.209C230.128 243.726 230.341 243.153 230.128 242.926C229.901 242.7 229.314 242.905 228.821 243.388C228.314 243.868 228.088 244.441 228.314 244.668C228.541 244.894 229.128 244.689 229.621 244.209Z" fill="#FAB988"/>
</svg>
