<svg width="134" height="340" viewBox="0 0 134 340" fill="none" xmlns="http://www.w3.org/2000/svg">
<path d="M58.6196 118.284C54.2969 118.736 47.6996 119.418 48.7236 116.688C49.7476 113.958 54.4116 111.003 54.4116 111.003L58.6196 118.284" fill="#3C7C84"/>
<path d="M57.8217 64.3666L57.5938 56.4039C57.5938 56.4039 64.9884 53.1066 65.3298 53.5599C65.6698 54.0146 69.3098 64.2519 69.3098 64.2519L57.8217 64.3666" fill="#F07D61"/>
<path d="M93.7095 112.941C94.8055 104.852 98.6389 81.5465 90.4895 73.3478L86.9922 76.6238C89.1055 80.4958 93.5375 81.1385 91.3282 111.829L93.7095 112.941" fill="#FBC68C"/>
<path d="M94.7335 82.5959C93.9869 78.8213 92.6695 75.5426 90.4895 73.3479L86.9922 76.6239C86.9922 76.6239 90.0015 79.3733 91.3775 87.2306C92.5002 84.4533 93.0309 83.4626 94.7335 82.5959Z" fill="#F89F76"/>
<path d="M9.65039 58.9625C16.7717 62.9532 36.0904 75.4011 46.7104 70.8265L44.9464 66.3745C44.9464 66.3745 33.2944 68.5638 11.5277 58.1105L9.65039 58.9625Z" fill="#FBC68C"/>
<path d="M44.9465 66.3746C44.9465 66.3746 40.7398 67.1386 32.7171 65.5266C32.1558 66.9172 31.3171 68.2319 30.2305 69.4479C36.2251 71.6559 42.2385 72.7532 46.7105 70.8266L44.9465 66.3746Z" fill="#F89F76"/>
<path d="M75.2408 113.268C72.6341 108.411 53.0541 107.757 51.1701 113.703C49.2835 119.645 49.8648 138.208 55.6634 141.399C61.4634 144.591 78.4301 119.211 75.2408 113.268" fill="#EFB43D"/>
<path d="M71.6158 63.9639C74.0278 60.3985 96.1545 75.1719 96.1545 75.1719L86.4051 85.5692C86.4051 85.5692 68.5691 68.4599 71.6158 63.9639Z" fill="#76C2CF"/>
<path d="M50.09 114.188C50.09 105.511 46.5713 76.2292 59.578 63.8172C62.7687 60.7732 75.9647 63.9639 75.9647 63.9639L81.7647 106.599C81.7647 106.599 61.8366 105.052 50.09 114.188" fill="#76C2CF"/>
<path d="M80.7703 105.777C74.2836 108.055 61.7063 98.1692 55.2063 85.4092C52.1343 79.3812 51.8223 75.8479 56.6836 66.4132C45.5556 79.7492 48.7236 108.381 48.7236 116.688C60.4703 107.553 81.7636 106.599 81.7636 106.599L81.597 105.385C81.3276 105.527 81.061 105.676 80.7703 105.777" fill="#5BABB4"/>
<path d="M65.9681 65.6292C62.2188 77.9065 39.1334 79.7732 39.1334 79.7732L38.9961 64.3439C38.9961 64.3439 67.4628 60.7252 65.9681 65.6292Z" fill="#76C2CF"/>
<path d="M39.0938 75.1399L39.1351 79.7732C39.1351 79.7732 46.6764 80.2892 53.7284 76.7639C46.1644 77.9012 42.3737 75.5679 39.0938 75.1399" fill="#5BABB4"/>
<path d="M132.214 156.615C129.326 160.648 117.17 165.727 109.01 164.348C97.4182 162.387 88.5728 147.821 91.7755 126.065C93.2955 115.739 113.807 133.42 116.285 147.192C125.019 133.977 138.118 148.373 132.214 156.615Z" fill="#FEEEB5"/>
<path d="M128.244 142.847C126.384 147.323 122.8 150.356 118.68 150.356C112.649 150.356 107.759 143.863 107.759 135.853C107.759 134.548 107.901 133.291 108.145 132.087C101.348 124.241 92.7395 119.516 91.7755 126.065C88.5728 147.821 97.4182 162.387 109.01 164.348C117.17 165.727 129.326 160.648 132.214 156.615C135.547 151.963 132.821 145.347 128.244 142.847" fill="#F8D19C"/>
<path d="M80.6033 215.063C80.6033 215.063 82.1953 272.239 80.4566 278.04C78.7166 283.839 73.154 286.024 71.4153 290.667C69.674 295.304 60.3766 328.765 58.0566 335.148L60.666 337.757C67.0486 323.257 106.705 257.258 107.139 215.932L80.6033 215.063" fill="#452E20"/>
<path d="M91.2913 220.625L80.6033 215.062C80.6033 215.062 81.1833 271.905 79.446 277.706C77.7047 283.505 72.1913 285.828 70.4526 290.465C68.7113 295.108 60.3766 328.765 58.0566 335.148L59.9993 337.088C65.8873 300.345 94.7046 273.348 91.2913 220.625" fill="#39251B"/>
<path d="M57.158 338.952H69.034C69.034 338.952 60.838 333.151 58.79 334.175C56.0887 335.522 57.158 338.952 57.158 338.952" fill="#ECCF8F"/>
<path d="M110.766 338.61C105.254 330.491 93.0344 315.864 89.8424 306.875C86.2678 296.792 89.6024 292.951 87.2824 286.57C85.0171 280.344 63.0584 251.099 61.8984 220.936C67.7704 205.131 89.5931 218.253 89.5931 218.253C89.5931 218.253 90.7558 295.685 113.954 336.291L110.766 338.61Z" fill="#452E20"/>
<path d="M92.8057 306.755C89.603 296.553 93.287 293.713 91.203 287.253C89.1697 280.946 70.4283 255.033 70.3817 224.851C71.9297 221.109 97.5684 225.94 106.923 217.567C107.356 215.281 107.843 210.944 105.618 210.277C93.0937 206.517 60.3217 201.14 61.2457 220.72C62.4057 250.88 84.139 281.051 86.4044 287.279C88.7244 293.657 85.1484 296.627 88.7217 306.709C91.9137 315.699 105.254 330.491 110.766 338.61L112.356 337.455C106.576 328.864 95.4497 315.175 92.8057 306.755Z" fill="#39251B"/>
<path d="M59.3973 213.54C59.992 217.558 77.656 220 83.5293 219.345C89.4013 218.693 106.269 218.76 108.011 215.063C109.752 211.364 117.364 178.956 114.753 164.164C112.143 149.373 106.053 119.573 92.7853 122.401C79.5173 125.228 45.8027 134.364 42.9747 147.635C40.1467 160.9 56.568 178.52 58.9627 188.744C60.3787 194.801 58.4053 206.843 59.3973 213.54" fill="#A4756C"/>
<path d="M86.373 137.1C99.7384 142.737 96.8384 155.023 114.501 162.756C113.312 156.971 112.057 148.96 109.464 142.227C103.289 139.947 95.5557 137.92 89.3357 134.601C88.3184 134.057 86.373 137.1 86.373 137.1Z" fill="#824C45"/>
<path d="M85.7039 136.293C89.3519 137.856 97.3239 129.235 94.5506 123.823C93.2026 121.191 81.9599 115.143 78.5253 114.644C68.0266 113.12 76.5706 132.379 85.7039 136.293Z" fill="#824C45"/>
<path d="M57.9238 133.79C65.1585 134.402 85.5892 149.613 90.4678 157.181C90.4678 157.181 90.1265 130.637 86.7292 124.089C73.1172 125.84 57.9238 133.79 57.9238 133.79Z" fill="#824C45"/>
<path d="M72.9507 211.84C69.924 205.782 61.7427 192.582 60.328 186.525C57.9333 176.301 41.5107 158.682 44.34 145.417C44.4973 144.676 44.7653 143.951 45.1067 143.236C44.0467 144.647 43.2987 146.113 42.9747 147.635C40.1467 160.901 56.568 178.52 58.9627 188.744C60.3787 194.801 58.4053 206.844 59.3973 213.54C59.992 217.558 77.5587 220.72 83.432 220.067C89.304 219.413 106.269 218.76 108.011 215.062C108.136 214.798 108.293 214.369 108.472 213.828C104.219 216.848 75.1693 216.276 72.9507 211.84" fill="#7E514A"/>
<path d="M73.6432 218.253C72.6498 211.557 71.7858 194.452 70.2712 188.416C60.7005 150.241 43.6298 144.559 42.9738 147.635C40.1458 160.901 55.3698 178.956 57.7645 189.179C59.1818 195.235 57.2058 206.844 58.1992 213.54C58.6005 216.24 67.2032 218.552 74.5845 219.581C74.0512 219.168 73.7125 218.725 73.6432 218.253" fill="#7E514A"/>
<path d="M52.4864 177.325C51.2824 166.875 65.4665 160.36 67.6318 144.628C67.6318 144.628 70.6731 144.495 70.5118 145.615C68.1478 162.059 71.8531 180.035 64.1451 183.692C56.3411 187.396 52.9958 181.745 52.4864 177.325Z" fill="#7E514A"/>
<path d="M53.8014 137.121C51.5001 140.443 78.8854 157.559 78.8854 157.559L80.0387 156.324C80.0387 156.324 58.4067 130.472 53.8014 137.121Z" fill="#7E514A"/>
<path d="M65.9314 136.041C66.2847 134.639 65.7581 132.855 64.9887 131.011C58.9047 132.151 52.9941 136.225 50.1914 138.397C50.6741 140.419 51.6074 142.316 53.1394 143.901C55.8328 146.683 64.2594 142.661 65.9314 136.041Z" fill="#7E514A"/>
<path d="M69.9473 183.959C67.9886 187.223 60.3126 194.049 50.0886 188.464C40.6753 183.321 34.626 165.433 43.8446 145.459C48.218 135.983 60.1593 153.943 58.2006 167.861C68.4246 162.207 72.8726 179.08 69.9473 183.959Z" fill="#FEEEB5"/>
<path d="M60.6666 168.331L54.8652 169.696C54.8652 169.696 58.6186 161.735 56.1159 153.089C56.1159 153.089 60.0972 161.507 58.9599 167.08L60.6666 168.331" fill="#F8D19C"/>
<path d="M51.2257 179.136C45.031 175.752 40.295 166.845 40.4057 155.459C36.8004 171.173 42.2844 184.201 50.0884 188.464C60.3124 194.049 67.9884 187.223 69.947 183.959C70.995 182.213 71.0924 178.931 70.323 175.695C67.567 179.128 60.439 184.169 51.2257 179.136Z" fill="#F8D19C"/>
<path d="M59.8691 132.697C66.1691 133.229 84.7665 146.262 89.0158 152.854C89.0158 152.854 87.9118 129.951 84.9545 124.249C73.0998 125.775 59.8691 132.697 59.8691 132.697Z" fill="#FEEEB5"/>
<path d="M63.76 127.912L63.4707 132.552L75.5054 135.887C75.6654 135.151 76.956 127.041 76.956 127.041L63.76 127.912" fill="#EFCB8E"/>
<path d="M81.482 123.629L76.25 128.179L82.5047 132.16L83.074 124.767L81.482 123.629" fill="#EFCB8E"/>
<path d="M64.0727 130.813L63.0566 100.651L78.2846 110.365L80.6033 125.736C80.6033 125.736 76.5433 131.104 64.0727 130.813" fill="#F07D61"/>
<path d="M74.7686 125.956L76.8686 125.193L78.646 126.971L77.8473 130.015L74.2246 129.435L74.7686 125.956Z" fill="#9E362B"/>
<path d="M62.6214 126.319L62.332 130.959L74.3667 134.292C74.5267 133.56 75.8187 125.449 75.8187 125.449L62.6214 126.319Z" fill="#FEEEB5"/>
<path d="M80.6043 122.621L75.8203 125.449L80.8937 130.088L82.3443 124.305L80.6043 122.621Z" fill="#FEEEB5"/>
<path d="M88.5788 151.549L83.7948 146.548L77.0508 129.435L77.7041 128.419L88.1455 144.225L88.5788 151.549" fill="#9E362B"/>
<path d="M87.3654 84.3159C94.404 64.8519 58.5413 60.5999 58.06 79.6932C57.8013 90.0266 67.0134 104.649 74.9667 104.956C82.9187 105.255 83.8067 94.1612 87.3654 84.3159Z" fill="#892F20"/>
<path d="M68.4856 108.936C66.3083 104.367 51.9896 91.6386 56.1416 80.0399C59.8843 69.5812 73.1549 67.4746 78.8856 70.4826C97.6349 80.3279 68.4856 108.936 68.4856 108.936" fill="#892F20"/>
<path d="M76.5973 72.2786C71.0679 70.8426 67.6199 72.0999 65.1919 73.3572C62.7146 74.6399 61.3013 75.9239 59.8253 74.3412C58.2599 75.8679 54.8893 78.9226 54.0666 81.2212C49.9146 92.8172 60.3026 102.392 67.4053 106.161C67.4053 106.161 83.0533 94.6266 84.9506 82.7613C82.0266 82.8453 79.9613 73.1506 76.5973 72.2786Z" fill="#73251D"/>
<path d="M67.7112 137.973C66.8952 137.938 66.1006 137.857 65.3379 137.728C65.4726 137.43 65.5926 137.126 65.6992 136.817C66.3552 137.177 67.0272 137.564 67.7112 137.973" fill="#8E4740"/>
<path d="M58.856 133.047C58.4746 132.083 58.176 130.977 57.9453 129.771C59.1613 128.349 60.6453 127.497 62.2586 127.497L62.5466 127.517L62.6213 126.319L62.332 130.959L63.052 131.159C62.132 131.581 61.3826 131.941 60.8426 132.208C60.1666 132.465 59.504 132.748 58.856 133.047" fill="#D26F28"/>
<path d="M88.5185 130.596C88.0438 127.814 87.4558 125.493 86.7278 124.089C86.1545 124.164 85.5785 124.248 84.9998 124.342C84.9838 124.312 84.9678 124.28 84.9531 124.249L84.9585 124.26C86.5625 123.844 88.0665 123.476 89.4571 123.15L90.3531 128.746C89.8011 129.388 89.1865 130.005 88.5185 130.596" fill="#70312C"/>
<path d="M62.6211 126.319L63.9171 126.233L63.3624 109.757L63.9171 126.233L62.6211 126.319Z" fill="#D26F28"/>
<path d="M63.3637 109.757L63.1504 103.429L63.3637 109.757Z" fill="#466D70"/>
<path d="M82.8119 124.578L82.7052 124.502L82.8132 124.578H82.8119V124.578ZM84.0772 124.372C84.0905 124.369 84.1039 124.368 84.1172 124.365C84.1039 124.368 84.0905 124.369 84.0772 124.372ZM84.1185 124.365C84.3985 124.324 84.6759 124.285 84.9545 124.249C84.6759 124.285 84.3985 124.324 84.1185 124.365ZM80.1719 122.876V122.874L80.6039 122.621L80.1719 122.876Z" fill="#70312C"/>
<path d="M68.6592 137.993C68.3405 137.993 68.0246 137.986 67.7112 137.973C67.0272 137.564 66.3552 137.177 65.6992 136.817C65.7859 136.563 65.8632 136.304 65.9299 136.041C66.0179 135.689 66.0512 135.312 66.0392 134.917C67.6552 135.735 69.4086 136.738 71.2072 137.861C70.3432 137.948 69.4912 137.993 68.6592 137.993V137.993ZM86.9605 131.856C86.4285 128.656 85.7792 125.902 85.0006 124.342C85.5792 124.248 86.1552 124.164 86.7285 124.089C87.4565 125.493 88.0445 127.814 88.5192 130.596C88.0272 131.03 87.5072 131.45 86.9605 131.856Z" fill="#70312C"/>
<path d="M65.3368 137.728C64.0101 137.503 62.7795 137.131 61.6875 136.596C60.4435 135.987 59.5235 134.733 58.8555 133.047C59.5035 132.748 60.1662 132.465 60.8422 132.208C60.2128 132.517 59.8675 132.697 59.8675 132.697C61.3555 132.823 63.5302 133.647 66.0382 134.917C66.0502 135.312 66.0168 135.689 65.9288 136.041C65.8621 136.304 65.7848 136.563 65.6981 136.817C65.5915 137.127 65.4715 137.431 65.3368 137.728" fill="#6D322F"/>
<path d="M71.2078 137.861C69.4091 136.739 67.6558 135.735 66.0398 134.917C63.5318 133.647 61.3571 132.823 59.8691 132.697C59.8691 132.697 60.2145 132.517 60.8438 132.208C61.3838 131.941 62.1331 131.581 63.0531 131.159L63.5491 131.296L63.4705 132.552L75.5051 135.887C75.6025 135.436 76.1238 132.225 76.5145 129.801L77.2425 129.919L79.5745 135.836C76.8398 136.88 73.9638 137.584 71.2078 137.861V137.861ZM81.9398 134.829L78.4865 129.603L82.5051 132.16L83.0745 124.767L82.8118 124.579H82.8131L82.8145 124.58C83.2358 124.504 83.6571 124.435 84.0771 124.372C84.0905 124.369 84.1038 124.368 84.1171 124.365H84.1185C84.3985 124.324 84.6758 124.285 84.9545 124.249C84.9691 124.28 84.9851 124.312 85.0011 124.343C85.7798 125.903 86.4291 128.656 86.9611 131.856C85.4505 132.977 83.7465 133.977 81.9398 134.829" fill="#DC936A"/>
<path d="M75.5054 135.887L63.4707 132.552L63.5493 131.296L74.368 134.292C74.448 133.925 74.812 131.707 75.156 129.584L76.5147 129.801C76.124 132.225 75.6027 135.436 75.5054 135.887" fill="#CD7C54"/>
<path d="M82.5048 132.16L78.4861 129.603L78.1074 129.028L78.4207 127.828L80.8927 130.088L82.3434 124.305L82.1088 124.079L82.7048 124.503L82.8114 124.579L83.0741 124.767L82.5048 132.16" fill="#CD7C54"/>
<path d="M63.9184 126.233L63.3637 109.757L63.1504 103.429C64.1264 104.166 65.1024 104.822 66.0438 105.388C67.1691 106.836 68.0584 108.042 68.4851 108.936C68.4851 108.936 69.6331 107.809 71.3264 105.926L78.2851 110.365L80.1717 122.876V122.874V122.876L75.8197 125.449L75.9171 125.538L75.7984 125.582C75.8117 125.496 75.8197 125.449 75.8197 125.449L63.9184 126.233Z" fill="#D04B3D"/>
<path d="M77.2429 129.919L76.5149 129.801L75.1562 129.584C75.4456 127.791 75.7216 126.065 75.7989 125.583L75.9176 125.539L78.4216 127.828L78.1083 129.028L77.7056 128.419L77.0522 129.435L77.2429 129.919Z" fill="#89251E"/>
<path d="M74.3667 134.292L63.548 131.296L63.052 131.159L62.332 130.959L62.6214 126.319L63.9174 126.233L75.8187 125.449C75.8187 125.449 75.8107 125.496 75.7974 125.583C75.72 126.065 75.444 127.791 75.1547 129.584C74.8107 131.707 74.4467 133.925 74.3667 134.292" fill="#DC936A"/>
<path d="M80.8937 130.088L78.4216 127.828L75.9176 125.539L75.8203 125.449L80.1723 122.876L80.6043 122.621L82.107 124.076L82.1097 124.079L82.3443 124.305L80.8937 130.088" fill="#DC936A"/>
<path d="M79.5735 135.836L77.2415 129.919L77.0508 129.435L77.7041 128.419L78.1068 129.028L78.4854 129.603L81.9388 134.829C81.1668 135.192 80.3761 135.528 79.5735 135.836" fill="#89251E"/>
<path d="M68.4843 108.936C68.0576 108.043 67.1683 106.836 66.043 105.388C66.507 105.668 66.963 105.925 67.4056 106.161C67.4056 106.161 68.1429 105.617 69.3176 104.645L71.3256 105.927C69.6323 107.809 68.4843 108.936 68.4843 108.936Z" fill="#762119"/>
<path d="M67.406 106.161C66.9633 105.925 66.5073 105.668 66.0433 105.388C65.102 104.823 64.126 104.167 63.15 103.429L63.0566 100.651L69.318 104.645C68.1433 105.617 67.406 106.161 67.406 106.161" fill="#621C17"/>
<path d="M88.4347 130.379C92.0814 131.941 100.055 123.319 97.28 117.907C95.932 115.276 84.6907 109.227 81.256 108.729C70.7573 107.203 79.3 126.461 88.4347 130.379" fill="#FBD549"/>
<path d="M83.5998 109.435C82.3611 108.933 81.3011 108.581 80.6038 108.48C70.3158 106.988 78.5811 127.923 88.9318 130.539C91.8558 112.224 80.9878 113.283 83.5998 109.435" fill="#EFB43D"/>
<path d="M103.33 128.515C102.505 128.459 99.5741 126.517 96.8594 125.924C96.4127 125.828 95.7287 125.729 95.0594 125.612C93.8901 125.405 92.6981 124.612 92.7767 124.055C92.8487 123.583 93.7167 124.201 94.5594 124.359C95.3114 124.497 95.5674 124.569 95.5887 124.351C95.6061 124.196 94.6541 123.804 93.6141 123.331C92.2994 122.735 91.4834 122.084 91.5754 121.491C91.6634 120.911 92.4807 121.577 93.7114 121.975C94.8074 122.325 95.2767 122.56 95.418 121.975C95.4927 121.695 94.7621 121.364 93.7114 120.569C92.4967 119.653 91.8461 118.709 92.0381 118.24C92.3154 117.551 92.7194 118.493 94.2287 119.333C96.2074 120.437 96.3501 121.127 97.6714 120.755C98.9567 120.387 96.9007 116.78 98.0527 117.159C98.9727 117.464 101.462 121.229 100.983 124.679C100.623 127.195 104.222 128.576 103.33 128.515" fill="#F89F76"/>
<path d="M97.2792 117.907L97.0646 117.592C94.0659 117.965 86.2592 124.311 88.4339 130.379C92.0806 131.941 100.054 123.319 97.2792 117.907" fill="#E8A531"/>
<path d="M94.9607 118.485C89.658 119.053 92.93 153.145 92.93 153.145L94.3807 153C94.3807 153 100.914 117.85 94.9607 118.485Z" fill="#FBC68C"/>
<path d="M96.154 119.168L96.3114 119.181C95.9567 118.68 95.5127 118.426 94.9607 118.485C89.658 119.053 92.93 153.145 92.93 153.145L94.0527 153.03C93.602 147.92 91.3327 119.685 96.154 119.168Z" fill="#F89F76"/>
<path d="M89.0853 118.472C77.2 120.864 69.8373 115.193 68.608 110.52C67.5667 106.568 68.0093 93.9825 64.9093 90.1865C61.8133 86.3878 63.9853 75.3051 69.3333 72.5771C74.684 69.8558 88.0306 74.1291 90.2506 88.9945C90.4506 90.3411 87.724 92.3478 88.8933 95.5638C90.168 99.0652 89.0853 118.472 89.0853 118.472" fill="#FBC68C"/>
<path d="M90.2489 88.9946L90.1836 88.6732C89.7823 88.5732 89.3676 88.4906 88.945 88.4159C81.8463 87.0999 84.4956 90.1706 84.6889 96.6599C84.8796 103.1 86.1316 108.352 89.465 108.325C89.5783 103.036 89.5316 97.3172 88.8916 95.5639C87.7223 92.3479 90.4489 90.3412 90.2489 88.9946" fill="#F89F76"/>
<path d="M58.6308 104.049C55.5801 102.608 56.5188 95.6266 61.9108 97.6826C67.3041 99.7346 66.7561 104.881 65.3161 105.305C63.8868 105.724 60.4721 104.913 58.6308 104.049Z" fill="#FBC68C"/>
<path d="M59.5306 102.899C57.5639 101.969 58.1652 97.4666 61.6479 98.7919C65.1292 100.117 64.7746 103.436 63.8506 103.708C62.9266 103.977 60.7212 103.451 59.5306 102.899Z" fill="#F07D61"/>
<path d="M61.5317 102.77C60.2183 102.152 60.6223 99.1545 62.941 100.037C65.2583 100.92 65.025 103.126 64.4077 103.31C63.7917 103.489 62.3197 103.14 61.5317 102.77Z" fill="#FBC68C"/>
<path d="M64.7649 93.6918C67.4195 98.6145 62.0915 115.289 67.6595 119.466C73.7515 124.033 95.0675 120.12 95.0675 120.12C95.0675 120.12 91.0422 107.612 89.5329 104.641C85.3102 106.69 78.5542 106.041 74.2409 103.385C69.9262 100.73 67.8102 93.6185 67.6969 91.0078C67.1582 78.6958 62.4942 80.1545 62.4942 80.1545C62.4942 80.1545 60.9809 86.6651 64.7649 93.6918Z" fill="#73251D"/>
<path d="M66.7725 103.445L70.8592 101.197C70.8592 101.197 69.2978 76.2425 63.4645 77.6145C57.6312 78.9919 62.8258 97.6225 62.8258 97.6225C62.8258 97.6225 66.5099 98.7879 66.7725 103.445Z" fill="#73251D"/>
<path d="M84.926 89.3452C84.0153 88.8292 83.1567 86.7465 84.4393 86.6879C85.7273 86.6319 91.1927 87.1785 91.0407 88.2132C90.89 89.2479 90.9727 90.1545 90.0647 90.2399C89.1513 90.3252 86.4447 90.1999 84.926 89.3452Z" fill="#A84129"/>
<path d="M80.3695 88.7119C81.4228 88.4026 82.2935 86.7359 80.9708 86.4079C79.6455 86.0799 73.8441 85.4679 73.7854 86.5119C73.7241 87.5586 73.4468 88.4239 74.3775 88.6986C75.3081 88.9732 78.6081 89.2332 80.3695 88.7119" fill="#A84129"/>
<path d="M79.3 107.41L87.0827 107.514C87.0827 107.514 86.1947 113.988 83.0427 113.977C78.752 113.958 79.3 107.41 79.3 107.41" fill="#371817"/>
<path d="M85.6952 110.477C86.1499 109.221 86.3165 108.016 86.3165 108.016L80.0486 107.933C80.0486 107.933 79.9459 109.202 80.2406 110.493L85.6952 110.477" fill="#FDE8DA"/>
<path d="M87.9708 94.6386C88.0601 93.2946 87.5494 92.1733 86.8281 92.1239C86.1094 92.0786 85.4508 93.1293 85.3614 94.4733C85.2734 95.8146 85.7841 96.9399 86.5068 96.9879C87.2268 97.0359 87.8814 95.9853 87.9708 94.6386Z" fill="#4D342D"/>
<path d="M79.9307 94.0759C80.0267 92.6279 79.4334 91.4119 78.6107 91.3612C77.7881 91.3092 77.0414 92.4399 76.948 93.8839C76.8507 95.3319 77.4387 96.5426 78.264 96.5986C79.0867 96.6492 79.836 95.5239 79.9307 94.0759Z" fill="#4D342D"/>
<path d="M83.1051 105.655C83.1051 105.655 88.7437 107.421 89.0864 106.848C89.429 106.279 83.625 90.6319 83.625 90.6319C83.625 90.6319 82.0477 103.631 83.1051 105.655Z" fill="#FBC68C"/>
<path d="M78.8104 68.5172C80.1517 68.6319 84.2397 68.9559 88.4571 75.4866C88.4571 75.4866 82.8464 71.7479 77.7051 71.8399L78.8104 68.5172Z" fill="#892F20"/>
<path d="M75.4648 67.4612C76.7302 67.0119 80.5769 65.5959 87.1742 69.7626C87.1742 69.7626 80.4982 68.7146 75.8715 70.9359L75.4648 67.4612Z" fill="#892F20"/>
<path d="M64.2891 77.8105C68.5677 77.9559 78.2824 80.0612 80.4557 77.4492C82.6317 74.8412 81.2557 71.4319 81.2557 71.4319C70.1544 68.3252 66.0331 70.3439 64.2891 77.8105" fill="#892F20"/>
<path d="M54.617 141.285C57.309 144.067 65.7357 140.045 67.4077 133.423C68.2183 130.219 64.4197 124.999 63.6383 121.679C60.137 106.817 44.497 130.813 54.617 141.285Z" fill="#FBD549"/>
<path d="M61.8034 125.676C63.0128 125.676 64.1941 125.753 65.3354 125.897C64.6141 124.364 64.2501 122.341 63.9647 121.124C61.6861 111.456 52.9314 118.396 51.8301 127.594C54.6687 126.388 58.1008 125.676 61.8034 125.676" fill="#EFB43D"/>
<path d="M67.4073 133.423C67.6113 132.619 67.5219 131.681 67.2633 130.681C65.9473 128.709 64.1926 127.497 62.2593 127.497C58.1726 127.497 54.8633 132.868 54.8633 139.496C54.8633 140.205 54.9086 140.893 54.9806 141.568C57.986 143.721 65.8033 139.779 67.4073 133.423Z" fill="#E8A531"/>
<path d="M57.6825 130.952C55.3692 134.151 80.3519 155.1 80.3519 155.1L81.6972 153.985C81.6972 153.985 62.4865 124.311 57.6825 130.952" fill="#FBC68C"/>
<path d="M67.4336 142.964L69.4816 137.735L75.5656 144.9L75.3403 149.619L67.4336 142.964Z" fill="#F89F76"/>
<path d="M59.9012 131.463C60.3239 130.88 60.8625 130.592 61.4839 130.525C59.8825 129.752 58.5465 129.757 57.6825 130.952C55.3692 134.151 80.3519 155.1 80.3519 155.1L81.1706 154.423C75.9532 149.956 57.9186 134.204 59.9012 131.463" fill="#F89F76"/>
<path d="M122.944 155.705C112.94 151.706 112.023 134.633 99.1875 126.637C99.1875 126.637 100.37 123.809 101.319 124.502C115.23 134.66 133.137 140.05 133.149 148.832C133.158 157.726 127.172 157.393 122.944 155.705Z" fill="#FBC68C"/>
<path d="M54.5393 178.832C53.85 168.08 68.4233 161.339 71.3819 145.143C71.3819 145.143 74.4446 144.996 74.2273 146.151C71.0339 163.076 73.8606 181.565 65.934 185.349C57.91 189.181 54.8313 183.377 54.5393 178.832" fill="#FBC68C"/>
<path d="M68.3193 182.513C61.0139 186.413 59.298 180.947 59.0726 176.405C58.5686 166.195 68.7966 159.701 72.2313 145.153C71.7593 145.129 71.3819 145.143 71.3819 145.143C68.4233 161.339 53.85 168.08 54.5393 178.832C54.8313 183.377 57.91 189.181 65.934 185.349C67.418 184.644 68.5246 183.42 69.3646 181.789C69.0393 182.067 68.6953 182.313 68.3193 182.513" fill="#F89F76"/>
<path d="M111.315 339.562L121.998 334.377C121.998 334.377 112.857 332.425 110.927 334.749C108.998 337.074 111.315 339.562 111.315 339.562Z" fill="#ECCF8F"/>
<path d="M92.9134 220.285L89.416 220.677V222.929L92.9134 222.537V220.285Z" fill="#A77772"/>
<path d="M123.37 152.72C113.682 148.848 112.353 134.588 100.194 124.916C99.6315 125.58 99.1875 126.637 99.1875 126.637C112.537 136.268 112.361 152.325 122.365 156.321C126.524 157.981 132.93 157.716 133.13 149.243C131.568 154.559 126.925 154.14 123.37 152.72" fill="#F89F76"/>
<path d="M69.3668 193.412C70.9348 197.263 78.8188 205.045 86.6455 207.896C86.8828 207.982 87.0215 208.231 86.9695 208.477C86.9188 208.725 86.6935 208.899 86.4415 208.882C80.5948 208.544 71.0588 207.028 67.8308 200.919C65.7841 195.629 69.3668 193.412 69.3668 193.412Z" fill="#7E514A"/>
<path d="M78.5234 189.224C83.6234 193.372 92.3514 198.021 98.5914 196.645C102.121 195.864 104.586 194.624 105.407 193.708C95.1381 196.383 87.2328 192.619 78.5234 189.224" fill="#7E514A"/>
<path d="M15.7516 61.8132C15.0516 62.5319 12.637 60.2559 9.7423 62.3306C9.25297 62.6866 8.53295 63.2972 7.79429 63.8706C6.48229 64.9012 4.70229 65.2625 4.39829 64.5159C4.15029 63.8879 5.45829 63.6772 6.40229 62.9666C7.23163 62.3439 7.53429 62.1546 7.39829 61.8959C7.30229 61.7092 6.10895 62.2439 4.75561 62.7865C3.02095 63.4919 1.74363 63.6159 1.46763 62.8452C1.19963 62.1066 2.46228 62.0079 3.95695 61.2026C5.26095 60.4932 5.86631 60.2826 5.61431 59.5412C5.50097 59.1866 4.58896 59.5359 3.06362 59.7226C1.29296 59.9386 0.0849673 59.5839 0.0089673 58.9279C-0.103033 57.9866 0.834302 58.5532 2.8103 57.9986C5.35564 57.2812 7.88361 57.0039 8.78628 55.5079C9.61961 54.1146 6.97964 51.4799 8.14497 50.9279C9.06764 50.4986 10.4143 53.5599 12.4383 57.0972C14.061 59.9439 16.4983 61.0505 15.7516 61.8132" fill="#FBC68C"/>
<path d="M72.8825 153.78C73.4052 153.064 73.5226 149.413 74.8306 146.783C75.0506 146.349 75.4346 145.721 75.7866 145.092C76.3986 143.991 76.4386 142.504 75.8266 142.221C75.3066 141.98 75.3145 143.092 74.8825 143.889C74.4945 144.601 74.3825 144.86 74.1505 144.74C73.9839 144.657 74.2586 143.621 74.5132 142.46C74.8399 140.995 74.7639 139.909 74.1026 139.613C73.4626 139.323 73.5546 140.424 73.0879 141.692C72.6692 142.823 72.5746 143.359 71.8892 143.112C71.5626 143 71.7385 142.183 71.6812 140.813C71.6185 139.227 71.1252 138.096 70.5226 137.96C69.6386 137.76 70.3012 138.683 70.0812 140.465C69.7945 142.801 70.3892 143.353 69.0825 144.217C67.8159 145.052 65.6452 141.088 65.2159 142.283C64.8799 143.239 66.8972 147.665 70.6892 149.427C73.4612 150.707 72.3185 154.561 72.8825 153.78" fill="#FBC68C"/>
<path d="M71.3116 63.0732C65.5009 62.2612 61.1222 62.4905 55.0742 63.0838C57.8822 64.7425 64.0262 66.5785 71.3116 63.0732Z" fill="#BEEAF3"/>
<path d="M70.3071 62.8878C65.3751 61.9918 61.4191 62.3559 56.2871 62.9439C58.6818 64.1732 64.0951 65.4838 70.3071 62.8878Z" fill="#F07D61"/>
<path d="M38.9961 65.8972H55.6122V63.0316H38.9961V65.8972Z" fill="#DD9F99"/>
<path d="M74.7452 63.6946C74.3652 63.6146 73.9079 63.5226 73.3945 63.4252C73.7945 63.4586 74.2612 63.5572 74.7585 63.6839C74.7532 63.6879 74.7492 63.6906 74.7452 63.6946Z" fill="#5A7B80"/>
<path d="M65.2559 67.4159C65.5399 66.8466 65.7785 66.2519 65.9692 65.6292C66.0612 65.3279 66.0399 65.0585 65.9185 64.8185C67.6145 64.5305 69.4239 63.9812 71.3119 63.0732C70.9372 63.0212 70.5692 62.9732 70.2065 62.9292C70.2212 62.9239 70.2359 62.9172 70.2505 62.9106C71.4159 63.0719 72.4852 63.2546 73.3905 63.4252C73.3919 63.4252 73.3932 63.4252 73.3959 63.4252C73.9092 63.5226 74.3665 63.6146 74.7465 63.6946C72.6852 65.2252 69.3465 66.5386 65.2559 67.4159" fill="#5A7B80"/>
<path d="M53.8734 68.5759C47.6681 68.5759 42.2948 67.5506 39.0108 65.8973L38.9961 64.3439C38.9961 64.3439 47.5934 63.2519 55.0894 63.0813C55.0948 63.0813 55.1014 63.0799 55.1081 63.0799C55.1121 63.0799 55.1174 63.0799 55.1228 63.0799C55.1068 63.0812 55.0894 63.0826 55.0734 63.0839C56.7054 64.0479 59.4654 65.0719 62.9214 65.0719C63.8708 65.0733 64.8721 64.9959 65.9174 64.8186C66.0387 65.0586 66.0601 65.3279 65.9681 65.6293C65.7774 66.2519 65.5388 66.8466 65.2548 67.4159C62.6534 67.9746 59.7468 68.3573 56.6721 68.5066C55.7241 68.5533 54.7894 68.5759 53.8734 68.5759" fill="#5A7B80"/>
<path d="M56.2871 62.9438C56.4018 62.9305 56.5151 62.9172 56.6285 62.9052C56.5151 62.9172 56.4004 62.9305 56.2871 62.9438ZM57.7765 62.7772L57.5938 56.4038L57.7765 62.7772ZM68.7351 62.6398C68.7338 62.6398 68.7338 62.6398 68.7338 62.6398C68.2685 61.3425 67.5911 59.4612 66.9604 57.7465C67.5911 59.4612 68.2698 61.3412 68.7351 62.6398V62.6398ZM57.5938 56.4025H57.5951H57.5938ZM57.5951 56.4025C57.5951 56.4025 57.5965 56.4025 57.5978 56.4012C57.5965 56.4025 57.5951 56.4025 57.5951 56.4025ZM57.5978 56.4012C57.5991 56.4012 57.5991 56.4012 57.6005 56.4012C57.5991 56.4012 57.5991 56.4012 57.5978 56.4012ZM57.6005 56.3998C57.7565 56.3305 60.6498 55.0438 62.8524 54.2145C60.6484 55.0452 57.7565 56.3305 57.6005 56.3998Z" fill="#DD9F99"/>
<path d="M57.7764 62.7772L57.5938 56.4039C57.5938 56.4039 57.5938 56.4039 57.5938 56.4025H57.5951C57.5951 56.4025 57.5964 56.4025 57.5978 56.4012C57.5991 56.4012 57.5991 56.4012 57.6004 56.4012C57.6004 56.3999 57.6004 56.3999 57.6004 56.3999C57.7564 56.3305 60.6484 55.0452 62.8524 54.2145C63.2084 54.0799 63.5471 53.9585 63.8524 53.8545C64.4351 53.9132 65.0031 53.9799 65.5591 54.0585C65.8591 54.7812 66.3911 56.1945 66.9604 57.7465C67.5911 59.4612 68.2684 61.3426 68.7338 62.6399C67.1964 62.4332 65.7377 62.3479 64.2844 62.3479C62.1777 62.3479 60.0844 62.5266 57.7764 62.7772" fill="#D04B3D"/>
<path d="M62.9222 65.0719C59.4662 65.0719 56.7062 64.0479 55.0742 63.0839C55.0902 63.0825 55.1075 63.0812 55.1235 63.0799C55.2875 63.0639 55.4516 63.0479 55.6129 63.0319C55.8542 63.0092 56.0929 62.9892 56.3329 62.9679C57.7195 63.6679 60.0809 64.3865 63.0062 64.3865C65.1556 64.3865 67.6102 63.9985 70.2062 62.9292C70.5689 62.9732 70.9369 63.0212 71.3116 63.0732C69.4236 63.9812 67.6142 64.5305 65.9182 64.8185C64.8729 64.9959 63.8715 65.0732 62.9222 65.0719" fill="#94A19B"/>
<path d="M63.0058 64.3865C60.0805 64.3865 57.7191 63.6678 56.3325 62.9678C56.3338 62.9678 56.3338 62.9665 56.3351 62.9665L56.2871 62.9438C56.4004 62.9305 56.5151 62.9172 56.6285 62.9052C57.0178 62.8612 57.3978 62.8198 57.7765 62.7785V62.7772C60.0845 62.5265 62.1778 62.3478 64.2844 62.3478C65.7378 62.3478 67.1965 62.4332 68.7338 62.6398C68.7338 62.6398 68.7338 62.6398 68.7351 62.6398C68.7351 62.6412 68.7351 62.6425 68.7365 62.6438C69.2511 62.7145 69.7711 62.7905 70.3071 62.8878L70.2484 62.9105H70.2498C70.2351 62.9172 70.2205 62.9238 70.2058 62.9292C67.6098 63.9985 65.1551 64.3865 63.0058 64.3865" fill="#D04B3D"/>
<path d="M34.9366 0.0691565C19.9539 1.18916 18.9112 20.1305 25.2206 25.1772C20.9286 27.3238 19.9206 44.2318 27.3633 47.5105C24.4619 49.6558 27.7419 64.9212 60.5499 59.8772L72.9139 30.7305C70.6433 16.2198 52.4273 -1.23751 34.9366 0.0691565" fill="#A6592C"/>
<path d="M43.9446 26.3745C36.3659 24.6718 29.3379 29.7438 24.1313 26.1131C20.8153 30.2985 20.5993 44.5292 27.3619 47.5105C24.4606 49.6558 27.7406 64.9212 60.5486 59.8772L71.7899 33.3745C64.4006 36.2172 54.5899 28.7652 43.9446 26.3745Z" fill="#7E3C1A"/>
<path d="M66.6052 60.2532C75.3972 58.3852 79.0972 46.7532 74.6799 33.8852C70.2639 21.0119 54.3652 11.6773 46.2892 19.8773C38.2145 28.0799 39.8559 48.1412 45.9119 53.6919C51.9692 59.2426 60.6746 61.5159 66.6052 60.2532" fill="#FBC68C"/>
<path d="M67.7436 58.7732C61.8129 60.0372 53.1076 57.7625 47.0489 52.2132C44.1196 49.5279 41.6529 43.4226 40.7969 36.9066C40.8009 43.9546 43.2622 51.4599 46.4209 54.3559C52.4782 59.9066 60.8769 61.9332 66.8102 60.6692C69.9102 60.0079 72.1569 57.7012 73.8582 54.9906C72.2929 56.9012 70.2542 58.2399 67.7436 58.7732" fill="#F89F76"/>
<path d="M39.0519 29.4452C40.9372 26.0412 48.0386 44.3452 50.4279 48.6705C49.8599 51.3999 48.8346 52.3079 48.8346 52.3079C48.8346 52.3079 40.1892 49.8078 40.4172 51.6252C40.6452 53.4478 35.5252 35.8172 39.0519 29.4452" fill="#7E3C1A"/>
<path d="M41.5581 52.1932C39.5621 49.7292 43.8315 46.6199 45.7648 47.7572C47.6995 48.8972 50.3155 52.1959 50.3155 52.9919C50.3155 53.7892 45.8808 57.5386 41.5581 52.1932" fill="#FBC68C"/>
<path d="M42.898 51.9812C41.6073 50.3839 44.37 48.3733 45.6206 49.1093C46.8713 49.8453 48.5633 51.9813 48.5633 52.4959C48.5633 53.0106 45.6953 55.4386 42.898 51.9812" fill="#F07D61"/>
<path d="M45.6261 52.3692C44.7208 51.2505 46.6568 49.8412 47.5328 50.3572C48.4101 50.8745 49.5968 52.3692 49.5968 52.7305C49.5968 53.0918 47.5848 54.7932 45.6261 52.3692Z" fill="#FBC68C"/>
<path d="M72.0534 34.7506C71.3148 32.2546 69.8588 32.1399 68.0721 32.4292C66.2441 32.7226 64.6601 33.4039 65.2695 36.0252C65.9095 38.7706 67.5001 38.4053 69.4308 38.0119C71.3161 37.6239 72.8281 37.3572 72.0534 34.7506Z" fill="#D95521"/>
<path d="M52.4744 38.6826C51.7464 36.3346 53.101 35.4119 54.8544 35.1293C56.649 34.8413 58.3144 35.356 59.2317 37.7773C60.1931 40.3173 58.5717 40.4746 56.6317 40.704C54.7357 40.9253 53.2384 41.1439 52.4744 38.6826Z" fill="#D95521"/>
<path d="M72.0865 34.8518C71.3412 32.3452 69.6852 31.4905 67.8786 31.7785C66.0679 32.0705 64.7879 33.3972 65.5319 35.8998C66.2746 38.4052 67.7319 38.1358 69.5386 37.8452C71.3479 37.5532 72.8279 37.3545 72.0865 34.8518" fill="#FFFAE9"/>
<path d="M58.8665 37.4412C57.9199 34.9772 56.1052 34.2012 54.3625 34.6865C52.6212 35.1745 51.6092 36.7345 52.5519 39.1945C53.4972 41.6559 54.8972 41.2292 56.6412 40.7412C58.3825 40.2559 59.8079 39.9012 58.8665 37.4412Z" fill="#FFFAE9"/>
<path d="M71.8877 31.5386C69.8877 29.9012 67.5823 30.1466 67.161 30.4479L66.541 29.3546C67.3103 28.8159 70.0183 28.7546 72.241 30.5692L71.8877 31.5386" fill="#AD543B"/>
<path d="M54.7806 33.2679C52.4993 33.8453 51.2873 36.3426 51.2393 37.0212L50.1406 36.6879C50.2393 35.4652 51.806 32.7226 54.346 32.0812L54.7806 33.2679" fill="#AD543B"/>
<path d="M70.4643 35.2839C70.1617 34.2625 69.2363 33.5492 68.3963 33.6812C67.5603 33.8145 67.1257 34.7532 67.4283 35.7719C67.731 36.7919 68.6563 37.5119 69.4937 37.3746C70.3323 37.2426 70.7643 36.3052 70.4643 35.2839" fill="#7BABC7"/>
<path d="M69.6031 35.0012C69.4671 34.5399 69.0444 34.2145 68.6644 34.2732C68.2844 34.3359 68.0844 34.7612 68.2244 35.2225C68.3618 35.6892 68.7831 36.0132 69.1618 35.9532C69.5431 35.8918 69.7431 35.4679 69.6031 35.0012Z" fill="#9FD1E5"/>
<path d="M57.4831 38.0039C57.1818 36.9826 56.2565 36.2652 55.4178 36.3986C54.5805 36.5372 54.1458 37.4692 54.4472 38.4879C54.7525 39.5105 55.6752 40.2292 56.5138 40.0932C57.3525 39.9599 57.7858 39.0212 57.4831 38.0039Z" fill="#7BABC7"/>
<path d="M56.8822 37.6785C56.7422 37.2172 56.3236 36.8892 55.9436 36.9532C55.5636 37.0118 55.3689 37.4358 55.5036 37.9012C55.6409 38.3652 56.0622 38.6905 56.4436 38.6292C56.8209 38.5678 57.0195 38.1412 56.8822 37.6785Z" fill="#9FD1E5"/>
<path d="M69.949 45.9879C69.409 45.2905 62.765 46.5732 62.293 47.5559C61.825 48.5252 65.6784 51.8039 67.3357 51.6585C68.9944 51.5239 70.961 47.2932 69.949 45.9879Z" fill="#4D2521"/>
<path d="M69.3404 46.2439C68.8897 45.6679 63.3604 46.7345 62.9671 47.5452C62.8164 47.8505 63.1897 48.4319 63.7777 49.0319L69.3097 48.4079C69.6084 47.5479 69.6871 46.6905 69.3404 46.2439" fill="#FEF0F1"/>
<path d="M65.0451 43.1198C64.0971 43.2652 63.1798 42.9359 62.8465 42.3612C62.8238 42.4932 62.8211 42.6252 62.8611 42.7585C63.0691 43.4599 64.0985 43.8959 65.1611 43.7252C66.2171 43.5572 66.9091 42.8465 66.7011 42.1425L66.6025 41.9359C66.5105 42.4879 65.9025 42.9772 65.0451 43.1198" fill="#F7936D"/>
</svg>
