<svg width="48" height="52" viewBox="0 0 48 52" fill="#f00" xmlns="http://www.w3.org/2000/svg">
    <path fill-rule="evenodd" clip-rule="evenodd" d="M39 19.5C39 23.0003 37.7169 26.211 35.5806 28.7164L24 48.5L12.4194 28.7164C10.2831 26.211 9 23.0003 9 19.5C9 11.4919 15.7157 5 24 5C32.2843 5 39 11.4919 39 19.5ZM33 19C33 23.9706 28.9706 28 24 28C19.0294 28 15 23.9706 15 19C15 14.0294 19.0294 10 24 10C28.9706 10 33 14.0294 33 19ZM29 19C29 21.7614 26.7614 24 24 24C21.2386 24 19 21.7614 19 19C19 16.2386 21.2386 14 24 14C26.7614 14 29 16.2386 29 19Z" fill="#f00"/>
    <path fill-rule="evenodd" clip-rule="evenodd" d="M24 48.5V19L11.1156 26.9289C11.504 27.5571 11.9402 28.1545 12.4194 28.7164L24 48.5ZM24 28V24C22.1996 24 20.6215 23.0485 19.7411 21.6209L16.334 23.7175C17.9187 26.2872 20.7593 28 24 28Z" fill="black" fill-opacity="0.2"/>
    <path fill-rule="evenodd" clip-rule="evenodd" d="M24 5V10C27.267 10 30.1274 11.7407 31.7044 14.3453L36.4834 11.4579C33.7938 7.56441 29.2067 5 24 5ZM24 19L28.2802 16.414C27.4041 14.9671 25.815 14 24 14V19Z" fill="#FFFFFF" fill-opacity="0.2"/>
</svg>
